ISO-10303-21;
HEADER;
/* Generated by software containing ST-Developer
 * from STEP Tools, Inc. (www.steptools.com) 
 */

FILE_DESCRIPTION(
/* description */ (''),
/* implementation_level */ '2;1');

FILE_NAME(
/* name */ 'head.step',
/* time_stamp */ '2026-04-12T12:59:38+05:30',
/* author */ (''),
/* organization */ (''),
/* preprocessor_version */ 'ST-DEVELOPER v20.1',
/* originating_system */ 'Autodesk Translation Framework v14.24.0.0',
/* authorisation */ '');

FILE_SCHEMA (('AUTOMOTIVE_DESIGN { 1 0 10303 214 3 1 1 }'));
ENDSEC;

DATA;
#10=MECHANICAL_DESIGN_GEOMETRIC_PRESENTATION_REPRESENTATION('',(#13),#2297);
#11=SHAPE_REPRESENTATION_RELATIONSHIP('SRR','None',#2304,#12);
#12=ADVANCED_BREP_SHAPE_REPRESENTATION('',(#14),#2296);
#13=STYLED_ITEM('',(#2313),#14);
#14=MANIFOLD_SOLID_BREP('head',#1397);
#15=CYLINDRICAL_SURFACE('',#1436,1.45);
#16=CYLINDRICAL_SURFACE('',#1440,1.45);
#17=CYLINDRICAL_SURFACE('',#1444,1.45);
#18=CYLINDRICAL_SURFACE('',#1448,1.45);
#19=CYLINDRICAL_SURFACE('',#1452,7.);
#20=CYLINDRICAL_SURFACE('',#1455,16.2463875780963);
#21=CYLINDRICAL_SURFACE('',#1463,6.5);
#22=CYLINDRICAL_SURFACE('',#1465,16.2463875780963);
#23=CYLINDRICAL_SURFACE('',#1469,3.5);
#24=CYLINDRICAL_SURFACE('',#1472,3.5);
#25=CYLINDRICAL_SURFACE('',#1474,3.5);
#26=CYLINDRICAL_SURFACE('',#1479,3.5);
#27=CYLINDRICAL_SURFACE('',#1480,0.999999999999994);
#28=CYLINDRICAL_SURFACE('',#1483,7.5);
#29=CYLINDRICAL_SURFACE('',#1486,1.);
#30=CYLINDRICAL_SURFACE('',#1524,7.);
#31=FACE_BOUND('',#182,.T.);
#32=FACE_BOUND('',#183,.T.);
#33=FACE_BOUND('',#184,.T.);
#34=FACE_BOUND('',#185,.T.);
#35=FACE_BOUND('',#186,.T.);
#36=FACE_BOUND('',#208,.T.);
#37=FACE_BOUND('',#210,.T.);
#38=FACE_BOUND('',#212,.T.);
#39=FACE_BOUND('',#216,.T.);
#40=FACE_BOUND('',#219,.T.);
#41=FACE_BOUND('',#229,.T.);
#42=FACE_BOUND('',#236,.T.);
#43=FACE_BOUND('',#237,.T.);
#44=FACE_BOUND('',#238,.T.);
#45=FACE_BOUND('',#239,.T.);
#46=FACE_BOUND('',#240,.T.);
#47=FACE_BOUND('',#241,.T.);
#48=FACE_BOUND('',#242,.T.);
#49=FACE_BOUND('',#243,.T.);
#50=FACE_BOUND('',#244,.T.);
#51=FACE_BOUND('',#266,.T.);
#52=FACE_BOUND('',#267,.T.);
#53=FACE_BOUND('',#268,.T.);
#54=FACE_BOUND('',#269,.T.);
#55=FACE_BOUND('',#270,.T.);
#56=FACE_BOUND('',#272,.T.);
#57=CIRCLE('',#1422,3.5);
#58=CIRCLE('',#1423,3.5);
#59=CIRCLE('',#1424,3.5);
#60=CIRCLE('',#1425,3.5);
#61=CIRCLE('',#1437,1.45);
#62=CIRCLE('',#1438,1.45);
#63=CIRCLE('',#1441,1.45);
#64=CIRCLE('',#1442,1.45);
#65=CIRCLE('',#1445,1.45);
#66=CIRCLE('',#1446,1.45);
#67=CIRCLE('',#1449,1.45);
#68=CIRCLE('',#1450,1.45);
#69=CIRCLE('',#1453,7.);
#70=CIRCLE('',#1454,7.);
#71=CIRCLE('',#1456,16.2463875780963);
#72=CIRCLE('',#1457,16.2463875780963);
#73=CIRCLE('',#1461,7.);
#74=CIRCLE('',#1462,6.5);
#75=CIRCLE('',#1464,6.5);
#76=CIRCLE('',#1466,16.2463875780963);
#77=CIRCLE('',#1467,16.2463875780963);
#78=CIRCLE('',#1470,3.5);
#79=CIRCLE('',#1473,3.5);
#80=CIRCLE('',#1475,3.5);
#81=CIRCLE('',#1477,3.5);
#82=CIRCLE('',#1481,0.999999999999994);
#83=CIRCLE('',#1482,0.999999999999994);
#84=CIRCLE('',#1484,7.5);
#85=CIRCLE('',#1485,7.5);
#86=CIRCLE('',#1487,1.);
#87=CIRCLE('',#1488,1.);
#88=CIRCLE('',#1490,7.);
#89=CIRCLE('',#1491,7.);
#90=CIRCLE('',#1493,7.);
#91=CIRCLE('',#1494,7.);
#92=CIRCLE('',#1496,7.);
#93=FACE_OUTER_BOUND('',#171,.T.);
#94=FACE_OUTER_BOUND('',#172,.T.);
#95=FACE_OUTER_BOUND('',#173,.T.);
#96=FACE_OUTER_BOUND('',#174,.T.);
#97=FACE_OUTER_BOUND('',#175,.T.);
#98=FACE_OUTER_BOUND('',#176,.T.);
#99=FACE_OUTER_BOUND('',#177,.T.);
#100=FACE_OUTER_BOUND('',#178,.T.);
#101=FACE_OUTER_BOUND('',#179,.T.);
#102=FACE_OUTER_BOUND('',#180,.T.);
#103=FACE_OUTER_BOUND('',#181,.T.);
#104=FACE_OUTER_BOUND('',#187,.T.);
#105=FACE_OUTER_BOUND('',#188,.T.);
#106=FACE_OUTER_BOUND('',#189,.T.);
#107=FACE_OUTER_BOUND('',#190,.T.);
#108=FACE_OUTER_BOUND('',#191,.T.);
#109=FACE_OUTER_BOUND('',#192,.T.);
#110=FACE_OUTER_BOUND('',#193,.T.);
#111=FACE_OUTER_BOUND('',#194,.T.);
#112=FACE_OUTER_BOUND('',#195,.T.);
#113=FACE_OUTER_BOUND('',#196,.T.);
#114=FACE_OUTER_BOUND('',#197,.T.);
#115=FACE_OUTER_BOUND('',#198,.T.);
#116=FACE_OUTER_BOUND('',#199,.T.);
#117=FACE_OUTER_BOUND('',#200,.T.);
#118=FACE_OUTER_BOUND('',#201,.T.);
#119=FACE_OUTER_BOUND('',#202,.T.);
#120=FACE_OUTER_BOUND('',#203,.T.);
#121=FACE_OUTER_BOUND('',#204,.T.);
#122=FACE_OUTER_BOUND('',#205,.T.);
#123=FACE_OUTER_BOUND('',#206,.T.);
#124=FACE_OUTER_BOUND('',#207,.T.);
#125=FACE_OUTER_BOUND('',#209,.T.);
#126=FACE_OUTER_BOUND('',#211,.T.);
#127=FACE_OUTER_BOUND('',#213,.T.);
#128=FACE_OUTER_BOUND('',#214,.T.);
#129=FACE_OUTER_BOUND('',#215,.T.);
#130=FACE_OUTER_BOUND('',#217,.T.);
#131=FACE_OUTER_BOUND('',#218,.T.);
#132=FACE_OUTER_BOUND('',#220,.T.);
#133=FACE_OUTER_BOUND('',#221,.T.);
#134=FACE_OUTER_BOUND('',#222,.T.);
#135=FACE_OUTER_BOUND('',#223,.T.);
#136=FACE_OUTER_BOUND('',#224,.T.);
#137=FACE_OUTER_BOUND('',#225,.T.);
#138=FACE_OUTER_BOUND('',#226,.T.);
#139=FACE_OUTER_BOUND('',#227,.T.);
#140=FACE_OUTER_BOUND('',#228,.T.);
#141=FACE_OUTER_BOUND('',#230,.T.);
#142=FACE_OUTER_BOUND('',#231,.T.);
#143=FACE_OUTER_BOUND('',#232,.T.);
#144=FACE_OUTER_BOUND('',#233,.T.);
#145=FACE_OUTER_BOUND('',#234,.T.);
#146=FACE_OUTER_BOUND('',#235,.T.);
#147=FACE_OUTER_BOUND('',#245,.T.);
#148=FACE_OUTER_BOUND('',#246,.T.);
#149=FACE_OUTER_BOUND('',#247,.T.);
#150=FACE_OUTER_BOUND('',#248,.T.);
#151=FACE_OUTER_BOUND('',#249,.T.);
#152=FACE_OUTER_BOUND('',#250,.T.);
#153=FACE_OUTER_BOUND('',#251,.T.);
#154=FACE_OUTER_BOUND('',#252,.T.);
#155=FACE_OUTER_BOUND('',#253,.T.);
#156=FACE_OUTER_BOUND('',#254,.T.);
#157=FACE_OUTER_BOUND('',#255,.T.);
#158=FACE_OUTER_BOUND('',#256,.T.);
#159=FACE_OUTER_BOUND('',#257,.T.);
#160=FACE_OUTER_BOUND('',#258,.T.);
#161=FACE_OUTER_BOUND('',#259,.T.);
#162=FACE_OUTER_BOUND('',#260,.T.);
#163=FACE_OUTER_BOUND('',#261,.T.);
#164=FACE_OUTER_BOUND('',#262,.T.);
#165=FACE_OUTER_BOUND('',#263,.T.);
#166=FACE_OUTER_BOUND('',#264,.T.);
#167=FACE_OUTER_BOUND('',#265,.T.);
#168=FACE_OUTER_BOUND('',#271,.T.);
#169=FACE_OUTER_BOUND('',#273,.T.);
#170=FACE_OUTER_BOUND('',#274,.T.);
#171=EDGE_LOOP('',(#885,#886,#887,#888));
#172=EDGE_LOOP('',(#889,#890,#891,#892));
#173=EDGE_LOOP('',(#893,#894,#895,#896));
#174=EDGE_LOOP('',(#897,#898,#899,#900));
#175=EDGE_LOOP('',(#901,#902,#903,#904));
#176=EDGE_LOOP('',(#905,#906,#907,#908));
#177=EDGE_LOOP('',(#909,#910,#911,#912));
#178=EDGE_LOOP('',(#913,#914,#915,#916));
#179=EDGE_LOOP('',(#917,#918,#919,#920));
#180=EDGE_LOOP('',(#921,#922,#923,#924));
#181=EDGE_LOOP('',(#925,#926,#927,#928,#929,#930,#931,#932));
#182=EDGE_LOOP('',(#933,#934,#935,#936));
#183=EDGE_LOOP('',(#937,#938,#939,#940));
#184=EDGE_LOOP('',(#941,#942,#943,#944));
#185=EDGE_LOOP('',(#945,#946,#947,#948));
#186=EDGE_LOOP('',(#949,#950,#951,#952));
#187=EDGE_LOOP('',(#953,#954,#955,#956));
#188=EDGE_LOOP('',(#957,#958,#959,#960));
#189=EDGE_LOOP('',(#961,#962,#963,#964));
#190=EDGE_LOOP('',(#965,#966,#967,#968));
#191=EDGE_LOOP('',(#969,#970,#971,#972));
#192=EDGE_LOOP('',(#973,#974,#975,#976));
#193=EDGE_LOOP('',(#977,#978,#979,#980));
#194=EDGE_LOOP('',(#981,#982,#983,#984));
#195=EDGE_LOOP('',(#985,#986,#987,#988));
#196=EDGE_LOOP('',(#989,#990,#991,#992));
#197=EDGE_LOOP('',(#993,#994,#995,#996));
#198=EDGE_LOOP('',(#997));
#199=EDGE_LOOP('',(#998,#999,#1000,#1001));
#200=EDGE_LOOP('',(#1002));
#201=EDGE_LOOP('',(#1003,#1004,#1005,#1006));
#202=EDGE_LOOP('',(#1007));
#203=EDGE_LOOP('',(#1008,#1009,#1010,#1011));
#204=EDGE_LOOP('',(#1012));
#205=EDGE_LOOP('',(#1013,#1014,#1015,#1016));
#206=EDGE_LOOP('',(#1017,#1018,#1019,#1020));
#207=EDGE_LOOP('',(#1021));
#208=EDGE_LOOP('',(#1022));
#209=EDGE_LOOP('',(#1023,#1024,#1025,#1026));
#210=EDGE_LOOP('',(#1027));
#211=EDGE_LOOP('',(#1028));
#212=EDGE_LOOP('',(#1029));
#213=EDGE_LOOP('',(#1030,#1031,#1032,#1033));
#214=EDGE_LOOP('',(#1034,#1035,#1036,#1037));
#215=EDGE_LOOP('',(#1038));
#216=EDGE_LOOP('',(#1039));
#217=EDGE_LOOP('',(#1040,#1041,#1042,#1043));
#218=EDGE_LOOP('',(#1044,#1045,#1046,#1047));
#219=EDGE_LOOP('',(#1048));
#220=EDGE_LOOP('',(#1049,#1050,#1051,#1052));
#221=EDGE_LOOP('',(#1053,#1054,#1055,#1056));
#222=EDGE_LOOP('',(#1057,#1058,#1059,#1060,#1061,#1062,#1063,#1064));
#223=EDGE_LOOP('',(#1065));
#224=EDGE_LOOP('',(#1066,#1067,#1068,#1069));
#225=EDGE_LOOP('',(#1070,#1071,#1072,#1073));
#226=EDGE_LOOP('',(#1074,#1075,#1076,#1077));
#227=EDGE_LOOP('',(#1078,#1079,#1080,#1081));
#228=EDGE_LOOP('',(#1082));
#229=EDGE_LOOP('',(#1083,#1084,#1085,#1086));
#230=EDGE_LOOP('',(#1087,#1088,#1089));
#231=EDGE_LOOP('',(#1090,#1091));
#232=EDGE_LOOP('',(#1092,#1093,#1094,#1095));
#233=EDGE_LOOP('',(#1096,#1097,#1098,#1099));
#234=EDGE_LOOP('',(#1100,#1101,#1102,#1103));
#235=EDGE_LOOP('',(#1104,#1105,#1106,#1107));
#236=EDGE_LOOP('',(#1108));
#237=EDGE_LOOP('',(#1109));
#238=EDGE_LOOP('',(#1110));
#239=EDGE_LOOP('',(#1111));
#240=EDGE_LOOP('',(#1112,#1113,#1114,#1115));
#241=EDGE_LOOP('',(#1116,#1117,#1118,#1119));
#242=EDGE_LOOP('',(#1120,#1121,#1122,#1123));
#243=EDGE_LOOP('',(#1124,#1125,#1126,#1127));
#244=EDGE_LOOP('',(#1128,#1129,#1130,#1131));
#245=EDGE_LOOP('',(#1132,#1133,#1134,#1135));
#246=EDGE_LOOP('',(#1136,#1137,#1138,#1139));
#247=EDGE_LOOP('',(#1140,#1141,#1142,#1143));
#248=EDGE_LOOP('',(#1144,#1145,#1146,#1147));
#249=EDGE_LOOP('',(#1148,#1149,#1150,#1151));
#250=EDGE_LOOP('',(#1152,#1153,#1154,#1155));
#251=EDGE_LOOP('',(#1156,#1157,#1158,#1159));
#252=EDGE_LOOP('',(#1160,#1161,#1162,#1163));
#253=EDGE_LOOP('',(#1164,#1165,#1166,#1167));
#254=EDGE_LOOP('',(#1168,#1169,#1170,#1171));
#255=EDGE_LOOP('',(#1172,#1173,#1174,#1175));
#256=EDGE_LOOP('',(#1176,#1177,#1178,#1179));
#257=EDGE_LOOP('',(#1180,#1181,#1182,#1183));
#258=EDGE_LOOP('',(#1184,#1185,#1186,#1187));
#259=EDGE_LOOP('',(#1188,#1189,#1190,#1191));
#260=EDGE_LOOP('',(#1192,#1193,#1194,#1195));
#261=EDGE_LOOP('',(#1196,#1197,#1198,#1199));
#262=EDGE_LOOP('',(#1200,#1201,#1202,#1203));
#263=EDGE_LOOP('',(#1204,#1205,#1206,#1207));
#264=EDGE_LOOP('',(#1208,#1209,#1210,#1211));
#265=EDGE_LOOP('',(#1212,#1213,#1214,#1215));
#266=EDGE_LOOP('',(#1216,#1217,#1218,#1219));
#267=EDGE_LOOP('',(#1220,#1221,#1222,#1223));
#268=EDGE_LOOP('',(#1224,#1225,#1226,#1227));
#269=EDGE_LOOP('',(#1228,#1229,#1230,#1231));
#270=EDGE_LOOP('',(#1232,#1233,#1234,#1235));
#271=EDGE_LOOP('',(#1236,#1237,#1238,#1239));
#272=EDGE_LOOP('',(#1240));
#273=EDGE_LOOP('',(#1241,#1242,#1243,#1244));
#274=EDGE_LOOP('',(#1245,#1246,#1247,#1248,#1249,#1250,#1251,#1252,#1253,
#1254,#1255,#1256));
#275=LINE('',#1909,#425);
#276=LINE('',#1911,#426);
#277=LINE('',#1913,#427);
#278=LINE('',#1914,#428);
#279=LINE('',#1917,#429);
#280=LINE('',#1919,#430);
#281=LINE('',#1920,#431);
#282=LINE('',#1923,#432);
#283=LINE('',#1925,#433);
#284=LINE('',#1926,#434);
#285=LINE('',#1928,#435);
#286=LINE('',#1929,#436);
#287=LINE('',#1934,#437);
#288=LINE('',#1936,#438);
#289=LINE('',#1938,#439);
#290=LINE('',#1939,#440);
#291=LINE('',#1942,#441);
#292=LINE('',#1944,#442);
#293=LINE('',#1945,#443);
#294=LINE('',#1948,#444);
#295=LINE('',#1950,#445);
#296=LINE('',#1951,#446);
#297=LINE('',#1953,#447);
#298=LINE('',#1954,#448);
#299=LINE('',#1959,#449);
#300=LINE('',#1963,#450);
#301=LINE('',#1967,#451);
#302=LINE('',#1971,#452);
#303=LINE('',#1975,#453);
#304=LINE('',#1977,#454);
#305=LINE('',#1979,#455);
#306=LINE('',#1980,#456);
#307=LINE('',#1983,#457);
#308=LINE('',#1985,#458);
#309=LINE('',#1987,#459);
#310=LINE('',#1988,#460);
#311=LINE('',#1991,#461);
#312=LINE('',#1993,#462);
#313=LINE('',#1995,#463);
#314=LINE('',#1996,#464);
#315=LINE('',#1999,#465);
#316=LINE('',#2001,#466);
#317=LINE('',#2002,#467);
#318=LINE('',#2005,#468);
#319=LINE('',#2006,#469);
#320=LINE('',#2009,#470);
#321=LINE('',#2010,#471);
#322=LINE('',#2012,#472);
#323=LINE('',#2016,#473);
#324=LINE('',#2018,#474);
#325=LINE('',#2019,#475);
#326=LINE('',#2022,#476);
#327=LINE('',#2023,#477);
#328=LINE('',#2026,#478);
#329=LINE('',#2027,#479);
#330=LINE('',#2029,#480);
#331=LINE('',#2035,#481);
#332=LINE('',#2042,#482);
#333=LINE('',#2049,#483);
#334=LINE('',#2056,#484);
#335=LINE('',#2063,#485);
#336=LINE('',#2069,#486);
#337=LINE('',#2074,#487);
#338=LINE('',#2076,#488);
#339=LINE('',#2077,#489);
#340=LINE('',#2086,#490);
#341=LINE('',#2091,#491);
#342=LINE('',#2096,#492);
#343=LINE('',#2099,#493);
#344=LINE('',#2102,#494);
#345=LINE('',#2103,#495);
#346=LINE('',#2107,#496);
#347=LINE('',#2111,#497);
#348=LINE('',#2113,#498);
#349=LINE('',#2116,#499);
#350=LINE('',#2119,#500);
#351=LINE('',#2123,#501);
#352=LINE('',#2127,#502);
#353=LINE('',#2133,#503);
#354=LINE('',#2138,#504);
#355=LINE('',#2142,#505);
#356=LINE('',#2156,#506);
#357=LINE('',#2158,#507);
#358=LINE('',#2160,#508);
#359=LINE('',#2161,#509);
#360=LINE('',#2163,#510);
#361=LINE('',#2164,#511);
#362=LINE('',#2166,#512);
#363=LINE('',#2168,#513);
#364=LINE('',#2171,#514);
#365=LINE('',#2173,#515);
#366=LINE('',#2175,#516);
#367=LINE('',#2176,#517);
#368=LINE('',#2179,#518);
#369=LINE('',#2181,#519);
#370=LINE('',#2183,#520);
#371=LINE('',#2184,#521);
#372=LINE('',#2187,#522);
#373=LINE('',#2189,#523);
#374=LINE('',#2191,#524);
#375=LINE('',#2192,#525);
#376=LINE('',#2195,#526);
#377=LINE('',#2197,#527);
#378=LINE('',#2199,#528);
#379=LINE('',#2200,#529);
#380=LINE('',#2203,#530);
#381=LINE('',#2205,#531);
#382=LINE('',#2207,#532);
#383=LINE('',#2208,#533);
#384=LINE('',#2211,#534);
#385=LINE('',#2213,#535);
#386=LINE('',#2214,#536);
#387=LINE('',#2217,#537);
#388=LINE('',#2218,#538);
#389=LINE('',#2221,#539);
#390=LINE('',#2222,#540);
#391=LINE('',#2224,#541);
#392=LINE('',#2227,#542);
#393=LINE('',#2229,#543);
#394=LINE('',#2230,#544);
#395=LINE('',#2233,#545);
#396=LINE('',#2234,#546);
#397=LINE('',#2237,#547);
#398=LINE('',#2238,#548);
#399=LINE('',#2240,#549);
#400=LINE('',#2243,#550);
#401=LINE('',#2245,#551);
#402=LINE('',#2246,#552);
#403=LINE('',#2249,#553);
#404=LINE('',#2250,#554);
#405=LINE('',#2253,#555);
#406=LINE('',#2254,#556);
#407=LINE('',#2256,#557);
#408=LINE('',#2259,#558);
#409=LINE('',#2261,#559);
#410=LINE('',#2262,#560);
#411=LINE('',#2265,#561);
#412=LINE('',#2266,#562);
#413=LINE('',#2269,#563);
#414=LINE('',#2270,#564);
#415=LINE('',#2272,#565);
#416=LINE('',#2275,#566);
#417=LINE('',#2277,#567);
#418=LINE('',#2278,#568);
#419=LINE('',#2281,#569);
#420=LINE('',#2282,#570);
#421=LINE('',#2285,#571);
#422=LINE('',#2286,#572);
#423=LINE('',#2288,#573);
#424=LINE('',#2293,#574);
#425=VECTOR('',#1529,10.);
#426=VECTOR('',#1530,10.);
#427=VECTOR('',#1531,10.);
#428=VECTOR('',#1532,10.);
#429=VECTOR('',#1535,10.);
#430=VECTOR('',#1536,10.);
#431=VECTOR('',#1537,10.);
#432=VECTOR('',#1540,10.);
#433=VECTOR('',#1541,10.);
#434=VECTOR('',#1542,10.);
#435=VECTOR('',#1545,10.);
#436=VECTOR('',#1546,10.);
#437=VECTOR('',#1551,10.);
#438=VECTOR('',#1552,10.);
#439=VECTOR('',#1553,10.);
#440=VECTOR('',#1554,10.);
#441=VECTOR('',#1557,10.);
#442=VECTOR('',#1558,10.);
#443=VECTOR('',#1559,10.);
#444=VECTOR('',#1562,10.);
#445=VECTOR('',#1563,10.);
#446=VECTOR('',#1564,10.);
#447=VECTOR('',#1567,10.);
#448=VECTOR('',#1568,10.);
#449=VECTOR('',#1573,10.);
#450=VECTOR('',#1576,10.);
#451=VECTOR('',#1579,10.);
#452=VECTOR('',#1582,10.);
#453=VECTOR('',#1585,10.);
#454=VECTOR('',#1586,10.);
#455=VECTOR('',#1587,10.);
#456=VECTOR('',#1588,10.);
#457=VECTOR('',#1589,10.);
#458=VECTOR('',#1590,10.);
#459=VECTOR('',#1591,10.);
#460=VECTOR('',#1592,10.);
#461=VECTOR('',#1593,10.);
#462=VECTOR('',#1594,10.);
#463=VECTOR('',#1595,10.);
#464=VECTOR('',#1596,10.);
#465=VECTOR('',#1599,10.);
#466=VECTOR('',#1600,10.);
#467=VECTOR('',#1601,10.);
#468=VECTOR('',#1604,10.);
#469=VECTOR('',#1605,10.);
#470=VECTOR('',#1608,10.);
#471=VECTOR('',#1609,10.);
#472=VECTOR('',#1612,10.);
#473=VECTOR('',#1617,10.);
#474=VECTOR('',#1618,10.);
#475=VECTOR('',#1619,10.);
#476=VECTOR('',#1622,10.);
#477=VECTOR('',#1623,10.);
#478=VECTOR('',#1626,10.);
#479=VECTOR('',#1627,10.);
#480=VECTOR('',#1630,10.);
#481=VECTOR('',#1637,1.45);
#482=VECTOR('',#1646,1.45);
#483=VECTOR('',#1655,1.45);
#484=VECTOR('',#1664,1.45);
#485=VECTOR('',#1673,7.);
#486=VECTOR('',#1680,16.2463875780963);
#487=VECTOR('',#1687,10.);
#488=VECTOR('',#1688,10.);
#489=VECTOR('',#1689,10.);
#490=VECTOR('',#1700,7.);
#491=VECTOR('',#1705,16.2463875780963);
#492=VECTOR('',#1712,10.);
#493=VECTOR('',#1715,10.);
#494=VECTOR('',#1718,10.);
#495=VECTOR('',#1719,10.);
#496=VECTOR('',#1724,10.);
#497=VECTOR('',#1729,10.);
#498=VECTOR('',#1732,10.);
#499=VECTOR('',#1735,10.);
#500=VECTOR('',#1740,10.);
#501=VECTOR('',#1743,10.);
#502=VECTOR('',#1746,10.);
#503=VECTOR('',#1753,7.5);
#504=VECTOR('',#1758,10.);
#505=VECTOR('',#1761,10.);
#506=VECTOR('',#1782,10.);
#507=VECTOR('',#1783,10.);
#508=VECTOR('',#1784,10.);
#509=VECTOR('',#1785,10.);
#510=VECTOR('',#1788,10.);
#511=VECTOR('',#1789,10.);
#512=VECTOR('',#1792,10.);
#513=VECTOR('',#1795,10.);
#514=VECTOR('',#1796,10.);
#515=VECTOR('',#1797,10.);
#516=VECTOR('',#1798,10.);
#517=VECTOR('',#1799,10.);
#518=VECTOR('',#1800,10.);
#519=VECTOR('',#1801,10.);
#520=VECTOR('',#1802,10.);
#521=VECTOR('',#1803,10.);
#522=VECTOR('',#1804,10.);
#523=VECTOR('',#1805,10.);
#524=VECTOR('',#1806,10.);
#525=VECTOR('',#1807,10.);
#526=VECTOR('',#1808,10.);
#527=VECTOR('',#1809,10.);
#528=VECTOR('',#1810,10.);
#529=VECTOR('',#1811,10.);
#530=VECTOR('',#1812,10.);
#531=VECTOR('',#1813,10.);
#532=VECTOR('',#1814,10.);
#533=VECTOR('',#1815,10.);
#534=VECTOR('',#1818,10.);
#535=VECTOR('',#1819,10.);
#536=VECTOR('',#1820,10.);
#537=VECTOR('',#1823,10.);
#538=VECTOR('',#1824,10.);
#539=VECTOR('',#1827,10.);
#540=VECTOR('',#1828,10.);
#541=VECTOR('',#1831,10.);
#542=VECTOR('',#1834,10.);
#543=VECTOR('',#1835,10.);
#544=VECTOR('',#1836,10.);
#545=VECTOR('',#1839,10.);
#546=VECTOR('',#1840,10.);
#547=VECTOR('',#1843,10.);
#548=VECTOR('',#1844,10.);
#549=VECTOR('',#1847,10.);
#550=VECTOR('',#1850,10.);
#551=VECTOR('',#1851,10.);
#552=VECTOR('',#1852,10.);
#553=VECTOR('',#1855,10.);
#554=VECTOR('',#1856,10.);
#555=VECTOR('',#1859,10.);
#556=VECTOR('',#1860,10.);
#557=VECTOR('',#1863,10.);
#558=VECTOR('',#1866,10.);
#559=VECTOR('',#1867,10.);
#560=VECTOR('',#1868,10.);
#561=VECTOR('',#1871,10.);
#562=VECTOR('',#1872,10.);
#563=VECTOR('',#1875,10.);
#564=VECTOR('',#1876,10.);
#565=VECTOR('',#1879,10.);
#566=VECTOR('',#1882,10.);
#567=VECTOR('',#1883,10.);
#568=VECTOR('',#1884,10.);
#569=VECTOR('',#1887,10.);
#570=VECTOR('',#1888,10.);
#571=VECTOR('',#1891,10.);
#572=VECTOR('',#1892,10.);
#573=VECTOR('',#1895,10.);
#574=VECTOR('',#1904,7.);
#575=VERTEX_POINT('',#1907);
#576=VERTEX_POINT('',#1908);
#577=VERTEX_POINT('',#1910);
#578=VERTEX_POINT('',#1912);
#579=VERTEX_POINT('',#1916);
#580=VERTEX_POINT('',#1918);
#581=VERTEX_POINT('',#1922);
#582=VERTEX_POINT('',#1924);
#583=VERTEX_POINT('',#1932);
#584=VERTEX_POINT('',#1933);
#585=VERTEX_POINT('',#1935);
#586=VERTEX_POINT('',#1937);
#587=VERTEX_POINT('',#1941);
#588=VERTEX_POINT('',#1943);
#589=VERTEX_POINT('',#1947);
#590=VERTEX_POINT('',#1949);
#591=VERTEX_POINT('',#1957);
#592=VERTEX_POINT('',#1958);
#593=VERTEX_POINT('',#1960);
#594=VERTEX_POINT('',#1962);
#595=VERTEX_POINT('',#1964);
#596=VERTEX_POINT('',#1966);
#597=VERTEX_POINT('',#1968);
#598=VERTEX_POINT('',#1970);
#599=VERTEX_POINT('',#1973);
#600=VERTEX_POINT('',#1974);
#601=VERTEX_POINT('',#1976);
#602=VERTEX_POINT('',#1978);
#603=VERTEX_POINT('',#1981);
#604=VERTEX_POINT('',#1982);
#605=VERTEX_POINT('',#1984);
#606=VERTEX_POINT('',#1986);
#607=VERTEX_POINT('',#1989);
#608=VERTEX_POINT('',#1990);
#609=VERTEX_POINT('',#1992);
#610=VERTEX_POINT('',#1994);
#611=VERTEX_POINT('',#1998);
#612=VERTEX_POINT('',#2000);
#613=VERTEX_POINT('',#2004);
#614=VERTEX_POINT('',#2008);
#615=VERTEX_POINT('',#2015);
#616=VERTEX_POINT('',#2017);
#617=VERTEX_POINT('',#2021);
#618=VERTEX_POINT('',#2025);
#619=VERTEX_POINT('',#2032);
#620=VERTEX_POINT('',#2034);
#621=VERTEX_POINT('',#2039);
#622=VERTEX_POINT('',#2041);
#623=VERTEX_POINT('',#2046);
#624=VERTEX_POINT('',#2048);
#625=VERTEX_POINT('',#2053);
#626=VERTEX_POINT('',#2055);
#627=VERTEX_POINT('',#2060);
#628=VERTEX_POINT('',#2062);
#629=VERTEX_POINT('',#2066);
#630=VERTEX_POINT('',#2068);
#631=VERTEX_POINT('',#2073);
#632=VERTEX_POINT('',#2075);
#633=VERTEX_POINT('',#2079);
#634=VERTEX_POINT('',#2081);
#635=VERTEX_POINT('',#2084);
#636=VERTEX_POINT('',#2088);
#637=VERTEX_POINT('',#2090);
#638=VERTEX_POINT('',#2095);
#639=VERTEX_POINT('',#2097);
#640=VERTEX_POINT('',#2101);
#641=VERTEX_POINT('',#2105);
#642=VERTEX_POINT('',#2109);
#643=VERTEX_POINT('',#2114);
#644=VERTEX_POINT('',#2121);
#645=VERTEX_POINT('',#2122);
#646=VERTEX_POINT('',#2124);
#647=VERTEX_POINT('',#2126);
#648=VERTEX_POINT('',#2130);
#649=VERTEX_POINT('',#2132);
#650=VERTEX_POINT('',#2136);
#651=VERTEX_POINT('',#2137);
#652=VERTEX_POINT('',#2139);
#653=VERTEX_POINT('',#2141);
#654=VERTEX_POINT('',#2148);
#655=VERTEX_POINT('',#2154);
#656=VERTEX_POINT('',#2155);
#657=VERTEX_POINT('',#2157);
#658=VERTEX_POINT('',#2159);
#659=VERTEX_POINT('',#2169);
#660=VERTEX_POINT('',#2170);
#661=VERTEX_POINT('',#2172);
#662=VERTEX_POINT('',#2174);
#663=VERTEX_POINT('',#2177);
#664=VERTEX_POINT('',#2178);
#665=VERTEX_POINT('',#2180);
#666=VERTEX_POINT('',#2182);
#667=VERTEX_POINT('',#2185);
#668=VERTEX_POINT('',#2186);
#669=VERTEX_POINT('',#2188);
#670=VERTEX_POINT('',#2190);
#671=VERTEX_POINT('',#2193);
#672=VERTEX_POINT('',#2194);
#673=VERTEX_POINT('',#2196);
#674=VERTEX_POINT('',#2198);
#675=VERTEX_POINT('',#2201);
#676=VERTEX_POINT('',#2202);
#677=VERTEX_POINT('',#2204);
#678=VERTEX_POINT('',#2206);
#679=VERTEX_POINT('',#2210);
#680=VERTEX_POINT('',#2212);
#681=VERTEX_POINT('',#2216);
#682=VERTEX_POINT('',#2220);
#683=VERTEX_POINT('',#2226);
#684=VERTEX_POINT('',#2228);
#685=VERTEX_POINT('',#2232);
#686=VERTEX_POINT('',#2236);
#687=VERTEX_POINT('',#2242);
#688=VERTEX_POINT('',#2244);
#689=VERTEX_POINT('',#2248);
#690=VERTEX_POINT('',#2252);
#691=VERTEX_POINT('',#2258);
#692=VERTEX_POINT('',#2260);
#693=VERTEX_POINT('',#2264);
#694=VERTEX_POINT('',#2268);
#695=VERTEX_POINT('',#2274);
#696=VERTEX_POINT('',#2276);
#697=VERTEX_POINT('',#2280);
#698=VERTEX_POINT('',#2284);
#699=EDGE_CURVE('',#575,#576,#275,.T.);
#700=EDGE_CURVE('',#575,#577,#276,.T.);
#701=EDGE_CURVE('',#578,#577,#277,.T.);
#702=EDGE_CURVE('',#576,#578,#278,.T.);
#703=EDGE_CURVE('',#576,#579,#279,.T.);
#704=EDGE_CURVE('',#580,#578,#280,.T.);
#705=EDGE_CURVE('',#579,#580,#281,.T.);
#706=EDGE_CURVE('',#579,#581,#282,.T.);
#707=EDGE_CURVE('',#582,#580,#283,.T.);
#708=EDGE_CURVE('',#581,#582,#284,.T.);
#709=EDGE_CURVE('',#581,#575,#285,.T.);
#710=EDGE_CURVE('',#577,#582,#286,.T.);
#711=EDGE_CURVE('',#583,#584,#287,.T.);
#712=EDGE_CURVE('',#583,#585,#288,.T.);
#713=EDGE_CURVE('',#585,#586,#289,.T.);
#714=EDGE_CURVE('',#584,#586,#290,.T.);
#715=EDGE_CURVE('',#587,#583,#291,.T.);
#716=EDGE_CURVE('',#587,#588,#292,.T.);
#717=EDGE_CURVE('',#588,#585,#293,.T.);
#718=EDGE_CURVE('',#589,#587,#294,.T.);
#719=EDGE_CURVE('',#589,#590,#295,.T.);
#720=EDGE_CURVE('',#590,#588,#296,.T.);
#721=EDGE_CURVE('',#584,#589,#297,.T.);
#722=EDGE_CURVE('',#586,#590,#298,.T.);
#723=EDGE_CURVE('',#591,#592,#299,.T.);
#724=EDGE_CURVE('',#593,#591,#57,.T.);
#725=EDGE_CURVE('',#593,#594,#300,.T.);
#726=EDGE_CURVE('',#595,#594,#58,.T.);
#727=EDGE_CURVE('',#596,#595,#301,.T.);
#728=EDGE_CURVE('',#597,#596,#59,.T.);
#729=EDGE_CURVE('',#598,#597,#302,.T.);
#730=EDGE_CURVE('',#592,#598,#60,.T.);
#731=EDGE_CURVE('',#599,#600,#303,.T.);
#732=EDGE_CURVE('',#601,#600,#304,.T.);
#733=EDGE_CURVE('',#602,#601,#305,.T.);
#734=EDGE_CURVE('',#599,#602,#306,.T.);
#735=EDGE_CURVE('',#603,#604,#307,.T.);
#736=EDGE_CURVE('',#604,#605,#308,.T.);
#737=EDGE_CURVE('',#605,#606,#309,.T.);
#738=EDGE_CURVE('',#606,#603,#310,.T.);
#739=EDGE_CURVE('',#607,#608,#311,.T.);
#740=EDGE_CURVE('',#608,#609,#312,.T.);
#741=EDGE_CURVE('',#609,#610,#313,.T.);
#742=EDGE_CURVE('',#610,#607,#314,.T.);
#743=EDGE_CURVE('',#607,#611,#315,.T.);
#744=EDGE_CURVE('',#612,#611,#316,.T.);
#745=EDGE_CURVE('',#608,#612,#317,.T.);
#746=EDGE_CURVE('',#613,#612,#318,.T.);
#747=EDGE_CURVE('',#609,#613,#319,.T.);
#748=EDGE_CURVE('',#614,#613,#320,.T.);
#749=EDGE_CURVE('',#610,#614,#321,.T.);
#750=EDGE_CURVE('',#611,#614,#322,.T.);
#751=EDGE_CURVE('',#603,#615,#323,.T.);
#752=EDGE_CURVE('',#615,#616,#324,.T.);
#753=EDGE_CURVE('',#616,#604,#325,.T.);
#754=EDGE_CURVE('',#606,#617,#326,.T.);
#755=EDGE_CURVE('',#617,#615,#327,.T.);
#756=EDGE_CURVE('',#605,#618,#328,.T.);
#757=EDGE_CURVE('',#618,#617,#329,.T.);
#758=EDGE_CURVE('',#616,#618,#330,.T.);
#759=EDGE_CURVE('',#619,#619,#61,.T.);
#760=EDGE_CURVE('',#619,#620,#331,.T.);
#761=EDGE_CURVE('',#620,#620,#62,.T.);
#762=EDGE_CURVE('',#621,#621,#63,.T.);
#763=EDGE_CURVE('',#621,#622,#332,.T.);
#764=EDGE_CURVE('',#622,#622,#64,.T.);
#765=EDGE_CURVE('',#623,#623,#65,.T.);
#766=EDGE_CURVE('',#623,#624,#333,.T.);
#767=EDGE_CURVE('',#624,#624,#66,.T.);
#768=EDGE_CURVE('',#625,#625,#67,.T.);
#769=EDGE_CURVE('',#625,#626,#334,.T.);
#770=EDGE_CURVE('',#626,#626,#68,.T.);
#771=EDGE_CURVE('',#627,#627,#69,.T.);
#772=EDGE_CURVE('',#627,#628,#335,.T.);
#773=EDGE_CURVE('',#628,#628,#70,.T.);
#774=EDGE_CURVE('',#629,#629,#71,.T.);
#775=EDGE_CURVE('',#629,#630,#336,.T.);
#776=EDGE_CURVE('',#630,#630,#72,.T.);
#777=EDGE_CURVE('',#598,#631,#337,.T.);
#778=EDGE_CURVE('',#632,#597,#338,.T.);
#779=EDGE_CURVE('',#631,#632,#339,.T.);
#780=EDGE_CURVE('',#633,#633,#73,.T.);
#781=EDGE_CURVE('',#634,#634,#74,.T.);
#782=EDGE_CURVE('',#635,#635,#75,.T.);
#783=EDGE_CURVE('',#635,#634,#340,.T.);
#784=EDGE_CURVE('',#636,#636,#76,.T.);
#785=EDGE_CURVE('',#636,#637,#341,.T.);
#786=EDGE_CURVE('',#637,#637,#77,.T.);
#787=EDGE_CURVE('',#591,#638,#342,.T.);
#788=EDGE_CURVE('',#638,#639,#78,.T.);
#789=EDGE_CURVE('',#639,#593,#343,.T.);
#790=EDGE_CURVE('',#640,#639,#344,.T.);
#791=EDGE_CURVE('',#594,#640,#345,.T.);
#792=EDGE_CURVE('',#640,#641,#79,.T.);
#793=EDGE_CURVE('',#641,#595,#346,.T.);
#794=EDGE_CURVE('',#631,#642,#80,.T.);
#795=EDGE_CURVE('',#642,#592,#347,.T.);
#796=EDGE_CURVE('',#638,#642,#348,.T.);
#797=EDGE_CURVE('',#643,#632,#81,.T.);
#798=EDGE_CURVE('',#641,#643,#349,.T.);
#799=EDGE_CURVE('',#596,#643,#350,.T.);
#800=EDGE_CURVE('',#644,#645,#351,.T.);
#801=EDGE_CURVE('',#644,#646,#82,.T.);
#802=EDGE_CURVE('',#646,#647,#352,.T.);
#803=EDGE_CURVE('',#645,#647,#83,.T.);
#804=EDGE_CURVE('',#648,#648,#84,.T.);
#805=EDGE_CURVE('',#648,#649,#353,.T.);
#806=EDGE_CURVE('',#649,#649,#85,.T.);
#807=EDGE_CURVE('',#650,#651,#354,.T.);
#808=EDGE_CURVE('',#650,#652,#86,.T.);
#809=EDGE_CURVE('',#652,#653,#355,.T.);
#810=EDGE_CURVE('',#651,#653,#87,.T.);
#811=EDGE_CURVE('',#653,#645,#88,.T.);
#812=EDGE_CURVE('',#647,#651,#89,.T.);
#813=EDGE_CURVE('',#650,#654,#90,.T.);
#814=EDGE_CURVE('',#654,#652,#91,.T.);
#815=EDGE_CURVE('',#644,#646,#92,.T.);
#816=EDGE_CURVE('',#655,#656,#356,.T.);
#817=EDGE_CURVE('',#657,#655,#357,.T.);
#818=EDGE_CURVE('',#658,#657,#358,.T.);
#819=EDGE_CURVE('',#656,#658,#359,.T.);
#820=EDGE_CURVE('',#658,#600,#360,.T.);
#821=EDGE_CURVE('',#656,#599,#361,.T.);
#822=EDGE_CURVE('',#601,#657,#362,.T.);
#823=EDGE_CURVE('',#655,#602,#363,.T.);
#824=EDGE_CURVE('',#659,#660,#364,.T.);
#825=EDGE_CURVE('',#661,#659,#365,.T.);
#826=EDGE_CURVE('',#662,#661,#366,.T.);
#827=EDGE_CURVE('',#660,#662,#367,.T.);
#828=EDGE_CURVE('',#663,#664,#368,.T.);
#829=EDGE_CURVE('',#665,#663,#369,.T.);
#830=EDGE_CURVE('',#666,#665,#370,.T.);
#831=EDGE_CURVE('',#664,#666,#371,.T.);
#832=EDGE_CURVE('',#667,#668,#372,.T.);
#833=EDGE_CURVE('',#669,#667,#373,.T.);
#834=EDGE_CURVE('',#670,#669,#374,.T.);
#835=EDGE_CURVE('',#668,#670,#375,.T.);
#836=EDGE_CURVE('',#671,#672,#376,.T.);
#837=EDGE_CURVE('',#673,#671,#377,.T.);
#838=EDGE_CURVE('',#674,#673,#378,.T.);
#839=EDGE_CURVE('',#672,#674,#379,.T.);
#840=EDGE_CURVE('',#675,#676,#380,.T.);
#841=EDGE_CURVE('',#677,#675,#381,.T.);
#842=EDGE_CURVE('',#678,#677,#382,.T.);
#843=EDGE_CURVE('',#676,#678,#383,.T.);
#844=EDGE_CURVE('',#660,#679,#384,.T.);
#845=EDGE_CURVE('',#680,#679,#385,.T.);
#846=EDGE_CURVE('',#659,#680,#386,.T.);
#847=EDGE_CURVE('',#662,#681,#387,.T.);
#848=EDGE_CURVE('',#679,#681,#388,.T.);
#849=EDGE_CURVE('',#661,#682,#389,.T.);
#850=EDGE_CURVE('',#681,#682,#390,.T.);
#851=EDGE_CURVE('',#682,#680,#391,.T.);
#852=EDGE_CURVE('',#664,#683,#392,.T.);
#853=EDGE_CURVE('',#684,#683,#393,.T.);
#854=EDGE_CURVE('',#663,#684,#394,.T.);
#855=EDGE_CURVE('',#666,#685,#395,.T.);
#856=EDGE_CURVE('',#683,#685,#396,.T.);
#857=EDGE_CURVE('',#665,#686,#397,.T.);
#858=EDGE_CURVE('',#685,#686,#398,.T.);
#859=EDGE_CURVE('',#686,#684,#399,.T.);
#860=EDGE_CURVE('',#668,#687,#400,.T.);
#861=EDGE_CURVE('',#688,#687,#401,.T.);
#862=EDGE_CURVE('',#667,#688,#402,.T.);
#863=EDGE_CURVE('',#670,#689,#403,.T.);
#864=EDGE_CURVE('',#687,#689,#404,.T.);
#865=EDGE_CURVE('',#669,#690,#405,.T.);
#866=EDGE_CURVE('',#689,#690,#406,.T.);
#867=EDGE_CURVE('',#690,#688,#407,.T.);
#868=EDGE_CURVE('',#672,#691,#408,.T.);
#869=EDGE_CURVE('',#692,#691,#409,.T.);
#870=EDGE_CURVE('',#671,#692,#410,.T.);
#871=EDGE_CURVE('',#674,#693,#411,.T.);
#872=EDGE_CURVE('',#691,#693,#412,.T.);
#873=EDGE_CURVE('',#673,#694,#413,.T.);
#874=EDGE_CURVE('',#693,#694,#414,.T.);
#875=EDGE_CURVE('',#694,#692,#415,.T.);
#876=EDGE_CURVE('',#676,#695,#416,.T.);
#877=EDGE_CURVE('',#696,#695,#417,.T.);
#878=EDGE_CURVE('',#675,#696,#418,.T.);
#879=EDGE_CURVE('',#678,#697,#419,.T.);
#880=EDGE_CURVE('',#695,#697,#420,.T.);
#881=EDGE_CURVE('',#677,#698,#421,.T.);
#882=EDGE_CURVE('',#697,#698,#422,.T.);
#883=EDGE_CURVE('',#698,#696,#423,.T.);
#884=EDGE_CURVE('',#633,#654,#424,.T.);
#885=ORIENTED_EDGE('',*,*,#699,.F.);
#886=ORIENTED_EDGE('',*,*,#700,.T.);
#887=ORIENTED_EDGE('',*,*,#701,.F.);
#888=ORIENTED_EDGE('',*,*,#702,.F.);
#889=ORIENTED_EDGE('',*,*,#703,.F.);
#890=ORIENTED_EDGE('',*,*,#702,.T.);
#891=ORIENTED_EDGE('',*,*,#704,.F.);
#892=ORIENTED_EDGE('',*,*,#705,.F.);
#893=ORIENTED_EDGE('',*,*,#706,.F.);
#894=ORIENTED_EDGE('',*,*,#705,.T.);
#895=ORIENTED_EDGE('',*,*,#707,.F.);
#896=ORIENTED_EDGE('',*,*,#708,.F.);
#897=ORIENTED_EDGE('',*,*,#709,.F.);
#898=ORIENTED_EDGE('',*,*,#708,.T.);
#899=ORIENTED_EDGE('',*,*,#710,.F.);
#900=ORIENTED_EDGE('',*,*,#700,.F.);
#901=ORIENTED_EDGE('',*,*,#710,.T.);
#902=ORIENTED_EDGE('',*,*,#707,.T.);
#903=ORIENTED_EDGE('',*,*,#704,.T.);
#904=ORIENTED_EDGE('',*,*,#701,.T.);
#905=ORIENTED_EDGE('',*,*,#711,.F.);
#906=ORIENTED_EDGE('',*,*,#712,.T.);
#907=ORIENTED_EDGE('',*,*,#713,.T.);
#908=ORIENTED_EDGE('',*,*,#714,.F.);
#909=ORIENTED_EDGE('',*,*,#715,.F.);
#910=ORIENTED_EDGE('',*,*,#716,.T.);
#911=ORIENTED_EDGE('',*,*,#717,.T.);
#912=ORIENTED_EDGE('',*,*,#712,.F.);
#913=ORIENTED_EDGE('',*,*,#718,.F.);
#914=ORIENTED_EDGE('',*,*,#719,.T.);
#915=ORIENTED_EDGE('',*,*,#720,.T.);
#916=ORIENTED_EDGE('',*,*,#716,.F.);
#917=ORIENTED_EDGE('',*,*,#721,.F.);
#918=ORIENTED_EDGE('',*,*,#714,.T.);
#919=ORIENTED_EDGE('',*,*,#722,.T.);
#920=ORIENTED_EDGE('',*,*,#719,.F.);
#921=ORIENTED_EDGE('',*,*,#722,.F.);
#922=ORIENTED_EDGE('',*,*,#713,.F.);
#923=ORIENTED_EDGE('',*,*,#717,.F.);
#924=ORIENTED_EDGE('',*,*,#720,.F.);
#925=ORIENTED_EDGE('',*,*,#723,.F.);
#926=ORIENTED_EDGE('',*,*,#724,.F.);
#927=ORIENTED_EDGE('',*,*,#725,.T.);
#928=ORIENTED_EDGE('',*,*,#726,.F.);
#929=ORIENTED_EDGE('',*,*,#727,.F.);
#930=ORIENTED_EDGE('',*,*,#728,.F.);
#931=ORIENTED_EDGE('',*,*,#729,.F.);
#932=ORIENTED_EDGE('',*,*,#730,.F.);
#933=ORIENTED_EDGE('',*,*,#731,.T.);
#934=ORIENTED_EDGE('',*,*,#732,.F.);
#935=ORIENTED_EDGE('',*,*,#733,.F.);
#936=ORIENTED_EDGE('',*,*,#734,.F.);
#937=ORIENTED_EDGE('',*,*,#699,.T.);
#938=ORIENTED_EDGE('',*,*,#703,.T.);
#939=ORIENTED_EDGE('',*,*,#706,.T.);
#940=ORIENTED_EDGE('',*,*,#709,.T.);
#941=ORIENTED_EDGE('',*,*,#735,.T.);
#942=ORIENTED_EDGE('',*,*,#736,.T.);
#943=ORIENTED_EDGE('',*,*,#737,.T.);
#944=ORIENTED_EDGE('',*,*,#738,.T.);
#945=ORIENTED_EDGE('',*,*,#739,.T.);
#946=ORIENTED_EDGE('',*,*,#740,.T.);
#947=ORIENTED_EDGE('',*,*,#741,.T.);
#948=ORIENTED_EDGE('',*,*,#742,.T.);
#949=ORIENTED_EDGE('',*,*,#711,.T.);
#950=ORIENTED_EDGE('',*,*,#721,.T.);
#951=ORIENTED_EDGE('',*,*,#718,.T.);
#952=ORIENTED_EDGE('',*,*,#715,.T.);
#953=ORIENTED_EDGE('',*,*,#739,.F.);
#954=ORIENTED_EDGE('',*,*,#743,.T.);
#955=ORIENTED_EDGE('',*,*,#744,.F.);
#956=ORIENTED_EDGE('',*,*,#745,.F.);
#957=ORIENTED_EDGE('',*,*,#740,.F.);
#958=ORIENTED_EDGE('',*,*,#745,.T.);
#959=ORIENTED_EDGE('',*,*,#746,.F.);
#960=ORIENTED_EDGE('',*,*,#747,.F.);
#961=ORIENTED_EDGE('',*,*,#741,.F.);
#962=ORIENTED_EDGE('',*,*,#747,.T.);
#963=ORIENTED_EDGE('',*,*,#748,.F.);
#964=ORIENTED_EDGE('',*,*,#749,.F.);
#965=ORIENTED_EDGE('',*,*,#742,.F.);
#966=ORIENTED_EDGE('',*,*,#749,.T.);
#967=ORIENTED_EDGE('',*,*,#750,.F.);
#968=ORIENTED_EDGE('',*,*,#743,.F.);
#969=ORIENTED_EDGE('',*,*,#750,.T.);
#970=ORIENTED_EDGE('',*,*,#748,.T.);
#971=ORIENTED_EDGE('',*,*,#746,.T.);
#972=ORIENTED_EDGE('',*,*,#744,.T.);
#973=ORIENTED_EDGE('',*,*,#735,.F.);
#974=ORIENTED_EDGE('',*,*,#751,.T.);
#975=ORIENTED_EDGE('',*,*,#752,.T.);
#976=ORIENTED_EDGE('',*,*,#753,.T.);
#977=ORIENTED_EDGE('',*,*,#751,.F.);
#978=ORIENTED_EDGE('',*,*,#738,.F.);
#979=ORIENTED_EDGE('',*,*,#754,.T.);
#980=ORIENTED_EDGE('',*,*,#755,.T.);
#981=ORIENTED_EDGE('',*,*,#737,.F.);
#982=ORIENTED_EDGE('',*,*,#756,.T.);
#983=ORIENTED_EDGE('',*,*,#757,.T.);
#984=ORIENTED_EDGE('',*,*,#754,.F.);
#985=ORIENTED_EDGE('',*,*,#753,.F.);
#986=ORIENTED_EDGE('',*,*,#758,.T.);
#987=ORIENTED_EDGE('',*,*,#756,.F.);
#988=ORIENTED_EDGE('',*,*,#736,.F.);
#989=ORIENTED_EDGE('',*,*,#752,.F.);
#990=ORIENTED_EDGE('',*,*,#755,.F.);
#991=ORIENTED_EDGE('',*,*,#757,.F.);
#992=ORIENTED_EDGE('',*,*,#758,.F.);
#993=ORIENTED_EDGE('',*,*,#759,.F.);
#994=ORIENTED_EDGE('',*,*,#760,.T.);
#995=ORIENTED_EDGE('',*,*,#761,.F.);
#996=ORIENTED_EDGE('',*,*,#760,.F.);
#997=ORIENTED_EDGE('',*,*,#759,.T.);
#998=ORIENTED_EDGE('',*,*,#762,.F.);
#999=ORIENTED_EDGE('',*,*,#763,.T.);
#1000=ORIENTED_EDGE('',*,*,#764,.F.);
#1001=ORIENTED_EDGE('',*,*,#763,.F.);
#1002=ORIENTED_EDGE('',*,*,#762,.T.);
#1003=ORIENTED_EDGE('',*,*,#765,.F.);
#1004=ORIENTED_EDGE('',*,*,#766,.T.);
#1005=ORIENTED_EDGE('',*,*,#767,.F.);
#1006=ORIENTED_EDGE('',*,*,#766,.F.);
#1007=ORIENTED_EDGE('',*,*,#765,.T.);
#1008=ORIENTED_EDGE('',*,*,#768,.F.);
#1009=ORIENTED_EDGE('',*,*,#769,.T.);
#1010=ORIENTED_EDGE('',*,*,#770,.F.);
#1011=ORIENTED_EDGE('',*,*,#769,.F.);
#1012=ORIENTED_EDGE('',*,*,#768,.T.);
#1013=ORIENTED_EDGE('',*,*,#771,.T.);
#1014=ORIENTED_EDGE('',*,*,#772,.T.);
#1015=ORIENTED_EDGE('',*,*,#773,.F.);
#1016=ORIENTED_EDGE('',*,*,#772,.F.);
#1017=ORIENTED_EDGE('',*,*,#774,.T.);
#1018=ORIENTED_EDGE('',*,*,#775,.T.);
#1019=ORIENTED_EDGE('',*,*,#776,.F.);
#1020=ORIENTED_EDGE('',*,*,#775,.F.);
#1021=ORIENTED_EDGE('',*,*,#774,.F.);
#1022=ORIENTED_EDGE('',*,*,#771,.F.);
#1023=ORIENTED_EDGE('',*,*,#777,.F.);
#1024=ORIENTED_EDGE('',*,*,#729,.T.);
#1025=ORIENTED_EDGE('',*,*,#778,.F.);
#1026=ORIENTED_EDGE('',*,*,#779,.F.);
#1027=ORIENTED_EDGE('',*,*,#776,.T.);
#1028=ORIENTED_EDGE('',*,*,#780,.T.);
#1029=ORIENTED_EDGE('',*,*,#781,.F.);
#1030=ORIENTED_EDGE('',*,*,#782,.F.);
#1031=ORIENTED_EDGE('',*,*,#783,.T.);
#1032=ORIENTED_EDGE('',*,*,#781,.T.);
#1033=ORIENTED_EDGE('',*,*,#783,.F.);
#1034=ORIENTED_EDGE('',*,*,#784,.F.);
#1035=ORIENTED_EDGE('',*,*,#785,.T.);
#1036=ORIENTED_EDGE('',*,*,#786,.F.);
#1037=ORIENTED_EDGE('',*,*,#785,.F.);
#1038=ORIENTED_EDGE('',*,*,#784,.T.);
#1039=ORIENTED_EDGE('',*,*,#782,.T.);
#1040=ORIENTED_EDGE('',*,*,#724,.T.);
#1041=ORIENTED_EDGE('',*,*,#787,.T.);
#1042=ORIENTED_EDGE('',*,*,#788,.T.);
#1043=ORIENTED_EDGE('',*,*,#789,.T.);
#1044=ORIENTED_EDGE('',*,*,#789,.F.);
#1045=ORIENTED_EDGE('',*,*,#790,.F.);
#1046=ORIENTED_EDGE('',*,*,#791,.F.);
#1047=ORIENTED_EDGE('',*,*,#725,.F.);
#1048=ORIENTED_EDGE('',*,*,#786,.T.);
#1049=ORIENTED_EDGE('',*,*,#792,.T.);
#1050=ORIENTED_EDGE('',*,*,#793,.T.);
#1051=ORIENTED_EDGE('',*,*,#726,.T.);
#1052=ORIENTED_EDGE('',*,*,#791,.T.);
#1053=ORIENTED_EDGE('',*,*,#730,.T.);
#1054=ORIENTED_EDGE('',*,*,#777,.T.);
#1055=ORIENTED_EDGE('',*,*,#794,.T.);
#1056=ORIENTED_EDGE('',*,*,#795,.T.);
#1057=ORIENTED_EDGE('',*,*,#788,.F.);
#1058=ORIENTED_EDGE('',*,*,#796,.T.);
#1059=ORIENTED_EDGE('',*,*,#794,.F.);
#1060=ORIENTED_EDGE('',*,*,#779,.T.);
#1061=ORIENTED_EDGE('',*,*,#797,.F.);
#1062=ORIENTED_EDGE('',*,*,#798,.F.);
#1063=ORIENTED_EDGE('',*,*,#792,.F.);
#1064=ORIENTED_EDGE('',*,*,#790,.T.);
#1065=ORIENTED_EDGE('',*,*,#773,.T.);
#1066=ORIENTED_EDGE('',*,*,#728,.T.);
#1067=ORIENTED_EDGE('',*,*,#799,.T.);
#1068=ORIENTED_EDGE('',*,*,#797,.T.);
#1069=ORIENTED_EDGE('',*,*,#778,.T.);
#1070=ORIENTED_EDGE('',*,*,#800,.F.);
#1071=ORIENTED_EDGE('',*,*,#801,.T.);
#1072=ORIENTED_EDGE('',*,*,#802,.T.);
#1073=ORIENTED_EDGE('',*,*,#803,.F.);
#1074=ORIENTED_EDGE('',*,*,#804,.F.);
#1075=ORIENTED_EDGE('',*,*,#805,.T.);
#1076=ORIENTED_EDGE('',*,*,#806,.F.);
#1077=ORIENTED_EDGE('',*,*,#805,.F.);
#1078=ORIENTED_EDGE('',*,*,#807,.F.);
#1079=ORIENTED_EDGE('',*,*,#808,.T.);
#1080=ORIENTED_EDGE('',*,*,#809,.T.);
#1081=ORIENTED_EDGE('',*,*,#810,.F.);
#1082=ORIENTED_EDGE('',*,*,#804,.T.);
#1083=ORIENTED_EDGE('',*,*,#810,.T.);
#1084=ORIENTED_EDGE('',*,*,#811,.T.);
#1085=ORIENTED_EDGE('',*,*,#803,.T.);
#1086=ORIENTED_EDGE('',*,*,#812,.T.);
#1087=ORIENTED_EDGE('',*,*,#808,.F.);
#1088=ORIENTED_EDGE('',*,*,#813,.T.);
#1089=ORIENTED_EDGE('',*,*,#814,.T.);
#1090=ORIENTED_EDGE('',*,*,#801,.F.);
#1091=ORIENTED_EDGE('',*,*,#815,.T.);
#1092=ORIENTED_EDGE('',*,*,#816,.F.);
#1093=ORIENTED_EDGE('',*,*,#817,.F.);
#1094=ORIENTED_EDGE('',*,*,#818,.F.);
#1095=ORIENTED_EDGE('',*,*,#819,.F.);
#1096=ORIENTED_EDGE('',*,*,#819,.T.);
#1097=ORIENTED_EDGE('',*,*,#820,.T.);
#1098=ORIENTED_EDGE('',*,*,#731,.F.);
#1099=ORIENTED_EDGE('',*,*,#821,.F.);
#1100=ORIENTED_EDGE('',*,*,#818,.T.);
#1101=ORIENTED_EDGE('',*,*,#822,.F.);
#1102=ORIENTED_EDGE('',*,*,#732,.T.);
#1103=ORIENTED_EDGE('',*,*,#820,.F.);
#1104=ORIENTED_EDGE('',*,*,#817,.T.);
#1105=ORIENTED_EDGE('',*,*,#823,.T.);
#1106=ORIENTED_EDGE('',*,*,#733,.T.);
#1107=ORIENTED_EDGE('',*,*,#822,.T.);
#1108=ORIENTED_EDGE('',*,*,#761,.T.);
#1109=ORIENTED_EDGE('',*,*,#764,.T.);
#1110=ORIENTED_EDGE('',*,*,#767,.T.);
#1111=ORIENTED_EDGE('',*,*,#770,.T.);
#1112=ORIENTED_EDGE('',*,*,#824,.F.);
#1113=ORIENTED_EDGE('',*,*,#825,.F.);
#1114=ORIENTED_EDGE('',*,*,#826,.F.);
#1115=ORIENTED_EDGE('',*,*,#827,.F.);
#1116=ORIENTED_EDGE('',*,*,#828,.F.);
#1117=ORIENTED_EDGE('',*,*,#829,.F.);
#1118=ORIENTED_EDGE('',*,*,#830,.F.);
#1119=ORIENTED_EDGE('',*,*,#831,.F.);
#1120=ORIENTED_EDGE('',*,*,#832,.F.);
#1121=ORIENTED_EDGE('',*,*,#833,.F.);
#1122=ORIENTED_EDGE('',*,*,#834,.F.);
#1123=ORIENTED_EDGE('',*,*,#835,.F.);
#1124=ORIENTED_EDGE('',*,*,#836,.F.);
#1125=ORIENTED_EDGE('',*,*,#837,.F.);
#1126=ORIENTED_EDGE('',*,*,#838,.F.);
#1127=ORIENTED_EDGE('',*,*,#839,.F.);
#1128=ORIENTED_EDGE('',*,*,#840,.F.);
#1129=ORIENTED_EDGE('',*,*,#841,.F.);
#1130=ORIENTED_EDGE('',*,*,#842,.F.);
#1131=ORIENTED_EDGE('',*,*,#843,.F.);
#1132=ORIENTED_EDGE('',*,*,#824,.T.);
#1133=ORIENTED_EDGE('',*,*,#844,.T.);
#1134=ORIENTED_EDGE('',*,*,#845,.F.);
#1135=ORIENTED_EDGE('',*,*,#846,.F.);
#1136=ORIENTED_EDGE('',*,*,#827,.T.);
#1137=ORIENTED_EDGE('',*,*,#847,.T.);
#1138=ORIENTED_EDGE('',*,*,#848,.F.);
#1139=ORIENTED_EDGE('',*,*,#844,.F.);
#1140=ORIENTED_EDGE('',*,*,#826,.T.);
#1141=ORIENTED_EDGE('',*,*,#849,.T.);
#1142=ORIENTED_EDGE('',*,*,#850,.F.);
#1143=ORIENTED_EDGE('',*,*,#847,.F.);
#1144=ORIENTED_EDGE('',*,*,#825,.T.);
#1145=ORIENTED_EDGE('',*,*,#846,.T.);
#1146=ORIENTED_EDGE('',*,*,#851,.F.);
#1147=ORIENTED_EDGE('',*,*,#849,.F.);
#1148=ORIENTED_EDGE('',*,*,#828,.T.);
#1149=ORIENTED_EDGE('',*,*,#852,.T.);
#1150=ORIENTED_EDGE('',*,*,#853,.F.);
#1151=ORIENTED_EDGE('',*,*,#854,.F.);
#1152=ORIENTED_EDGE('',*,*,#831,.T.);
#1153=ORIENTED_EDGE('',*,*,#855,.T.);
#1154=ORIENTED_EDGE('',*,*,#856,.F.);
#1155=ORIENTED_EDGE('',*,*,#852,.F.);
#1156=ORIENTED_EDGE('',*,*,#830,.T.);
#1157=ORIENTED_EDGE('',*,*,#857,.T.);
#1158=ORIENTED_EDGE('',*,*,#858,.F.);
#1159=ORIENTED_EDGE('',*,*,#855,.F.);
#1160=ORIENTED_EDGE('',*,*,#829,.T.);
#1161=ORIENTED_EDGE('',*,*,#854,.T.);
#1162=ORIENTED_EDGE('',*,*,#859,.F.);
#1163=ORIENTED_EDGE('',*,*,#857,.F.);
#1164=ORIENTED_EDGE('',*,*,#832,.T.);
#1165=ORIENTED_EDGE('',*,*,#860,.T.);
#1166=ORIENTED_EDGE('',*,*,#861,.F.);
#1167=ORIENTED_EDGE('',*,*,#862,.F.);
#1168=ORIENTED_EDGE('',*,*,#835,.T.);
#1169=ORIENTED_EDGE('',*,*,#863,.T.);
#1170=ORIENTED_EDGE('',*,*,#864,.F.);
#1171=ORIENTED_EDGE('',*,*,#860,.F.);
#1172=ORIENTED_EDGE('',*,*,#834,.T.);
#1173=ORIENTED_EDGE('',*,*,#865,.T.);
#1174=ORIENTED_EDGE('',*,*,#866,.F.);
#1175=ORIENTED_EDGE('',*,*,#863,.F.);
#1176=ORIENTED_EDGE('',*,*,#833,.T.);
#1177=ORIENTED_EDGE('',*,*,#862,.T.);
#1178=ORIENTED_EDGE('',*,*,#867,.F.);
#1179=ORIENTED_EDGE('',*,*,#865,.F.);
#1180=ORIENTED_EDGE('',*,*,#836,.T.);
#1181=ORIENTED_EDGE('',*,*,#868,.T.);
#1182=ORIENTED_EDGE('',*,*,#869,.F.);
#1183=ORIENTED_EDGE('',*,*,#870,.F.);
#1184=ORIENTED_EDGE('',*,*,#839,.T.);
#1185=ORIENTED_EDGE('',*,*,#871,.T.);
#1186=ORIENTED_EDGE('',*,*,#872,.F.);
#1187=ORIENTED_EDGE('',*,*,#868,.F.);
#1188=ORIENTED_EDGE('',*,*,#838,.T.);
#1189=ORIENTED_EDGE('',*,*,#873,.T.);
#1190=ORIENTED_EDGE('',*,*,#874,.F.);
#1191=ORIENTED_EDGE('',*,*,#871,.F.);
#1192=ORIENTED_EDGE('',*,*,#837,.T.);
#1193=ORIENTED_EDGE('',*,*,#870,.T.);
#1194=ORIENTED_EDGE('',*,*,#875,.F.);
#1195=ORIENTED_EDGE('',*,*,#873,.F.);
#1196=ORIENTED_EDGE('',*,*,#840,.T.);
#1197=ORIENTED_EDGE('',*,*,#876,.T.);
#1198=ORIENTED_EDGE('',*,*,#877,.F.);
#1199=ORIENTED_EDGE('',*,*,#878,.F.);
#1200=ORIENTED_EDGE('',*,*,#843,.T.);
#1201=ORIENTED_EDGE('',*,*,#879,.T.);
#1202=ORIENTED_EDGE('',*,*,#880,.F.);
#1203=ORIENTED_EDGE('',*,*,#876,.F.);
#1204=ORIENTED_EDGE('',*,*,#842,.T.);
#1205=ORIENTED_EDGE('',*,*,#881,.T.);
#1206=ORIENTED_EDGE('',*,*,#882,.F.);
#1207=ORIENTED_EDGE('',*,*,#879,.F.);
#1208=ORIENTED_EDGE('',*,*,#841,.T.);
#1209=ORIENTED_EDGE('',*,*,#878,.T.);
#1210=ORIENTED_EDGE('',*,*,#883,.F.);
#1211=ORIENTED_EDGE('',*,*,#881,.F.);
#1212=ORIENTED_EDGE('',*,*,#793,.F.);
#1213=ORIENTED_EDGE('',*,*,#798,.T.);
#1214=ORIENTED_EDGE('',*,*,#799,.F.);
#1215=ORIENTED_EDGE('',*,*,#727,.T.);
#1216=ORIENTED_EDGE('',*,*,#845,.T.);
#1217=ORIENTED_EDGE('',*,*,#848,.T.);
#1218=ORIENTED_EDGE('',*,*,#850,.T.);
#1219=ORIENTED_EDGE('',*,*,#851,.T.);
#1220=ORIENTED_EDGE('',*,*,#853,.T.);
#1221=ORIENTED_EDGE('',*,*,#856,.T.);
#1222=ORIENTED_EDGE('',*,*,#858,.T.);
#1223=ORIENTED_EDGE('',*,*,#859,.T.);
#1224=ORIENTED_EDGE('',*,*,#861,.T.);
#1225=ORIENTED_EDGE('',*,*,#864,.T.);
#1226=ORIENTED_EDGE('',*,*,#866,.T.);
#1227=ORIENTED_EDGE('',*,*,#867,.T.);
#1228=ORIENTED_EDGE('',*,*,#869,.T.);
#1229=ORIENTED_EDGE('',*,*,#872,.T.);
#1230=ORIENTED_EDGE('',*,*,#874,.T.);
#1231=ORIENTED_EDGE('',*,*,#875,.T.);
#1232=ORIENTED_EDGE('',*,*,#877,.T.);
#1233=ORIENTED_EDGE('',*,*,#880,.T.);
#1234=ORIENTED_EDGE('',*,*,#882,.T.);
#1235=ORIENTED_EDGE('',*,*,#883,.T.);
#1236=ORIENTED_EDGE('',*,*,#816,.T.);
#1237=ORIENTED_EDGE('',*,*,#821,.T.);
#1238=ORIENTED_EDGE('',*,*,#734,.T.);
#1239=ORIENTED_EDGE('',*,*,#823,.F.);
#1240=ORIENTED_EDGE('',*,*,#806,.T.);
#1241=ORIENTED_EDGE('',*,*,#787,.F.);
#1242=ORIENTED_EDGE('',*,*,#723,.T.);
#1243=ORIENTED_EDGE('',*,*,#795,.F.);
#1244=ORIENTED_EDGE('',*,*,#796,.F.);
#1245=ORIENTED_EDGE('',*,*,#780,.F.);
#1246=ORIENTED_EDGE('',*,*,#884,.T.);
#1247=ORIENTED_EDGE('',*,*,#813,.F.);
#1248=ORIENTED_EDGE('',*,*,#807,.T.);
#1249=ORIENTED_EDGE('',*,*,#812,.F.);
#1250=ORIENTED_EDGE('',*,*,#802,.F.);
#1251=ORIENTED_EDGE('',*,*,#815,.F.);
#1252=ORIENTED_EDGE('',*,*,#800,.T.);
#1253=ORIENTED_EDGE('',*,*,#811,.F.);
#1254=ORIENTED_EDGE('',*,*,#809,.F.);
#1255=ORIENTED_EDGE('',*,*,#814,.F.);
#1256=ORIENTED_EDGE('',*,*,#884,.F.);
#1257=PLANE('',#1411);
#1258=PLANE('',#1412);
#1259=PLANE('',#1413);
#1260=PLANE('',#1414);
#1261=PLANE('',#1415);
#1262=PLANE('',#1416);
#1263=PLANE('',#1417);
#1264=PLANE('',#1418);
#1265=PLANE('',#1419);
#1266=PLANE('',#1420);
#1267=PLANE('',#1421);
#1268=PLANE('',#1426);
#1269=PLANE('',#1427);
#1270=PLANE('',#1428);
#1271=PLANE('',#1429);
#1272=PLANE('',#1430);
#1273=PLANE('',#1431);
#1274=PLANE('',#1432);
#1275=PLANE('',#1433);
#1276=PLANE('',#1434);
#1277=PLANE('',#1435);
#1278=PLANE('',#1439);
#1279=PLANE('',#1443);
#1280=PLANE('',#1447);
#1281=PLANE('',#1451);
#1282=PLANE('',#1458);
#1283=PLANE('',#1459);
#1284=PLANE('',#1460);
#1285=PLANE('',#1468);
#1286=PLANE('',#1471);
#1287=PLANE('',#1476);
#1288=PLANE('',#1478);
#1289=PLANE('',#1489);
#1290=PLANE('',#1492);
#1291=PLANE('',#1495);
#1292=PLANE('',#1497);
#1293=PLANE('',#1498);
#1294=PLANE('',#1499);
#1295=PLANE('',#1500);
#1296=PLANE('',#1501);
#1297=PLANE('',#1502);
#1298=PLANE('',#1503);
#1299=PLANE('',#1504);
#1300=PLANE('',#1505);
#1301=PLANE('',#1506);
#1302=PLANE('',#1507);
#1303=PLANE('',#1508);
#1304=PLANE('',#1509);
#1305=PLANE('',#1510);
#1306=PLANE('',#1511);
#1307=PLANE('',#1512);
#1308=PLANE('',#1513);
#1309=PLANE('',#1514);
#1310=PLANE('',#1515);
#1311=PLANE('',#1516);
#1312=PLANE('',#1517);
#1313=PLANE('',#1518);
#1314=PLANE('',#1519);
#1315=PLANE('',#1520);
#1316=PLANE('',#1521);
#1317=PLANE('',#1522);
#1318=PLANE('',#1523);
#1319=ADVANCED_FACE('',(#93),#1257,.T.);
#1320=ADVANCED_FACE('',(#94),#1258,.T.);
#1321=ADVANCED_FACE('',(#95),#1259,.T.);
#1322=ADVANCED_FACE('',(#96),#1260,.T.);
#1323=ADVANCED_FACE('',(#97),#1261,.T.);
#1324=ADVANCED_FACE('',(#98),#1262,.F.);
#1325=ADVANCED_FACE('',(#99),#1263,.F.);
#1326=ADVANCED_FACE('',(#100),#1264,.F.);
#1327=ADVANCED_FACE('',(#101),#1265,.F.);
#1328=ADVANCED_FACE('',(#102),#1266,.F.);
#1329=ADVANCED_FACE('',(#103,#31,#32,#33,#34,#35),#1267,.T.);
#1330=ADVANCED_FACE('',(#104),#1268,.T.);
#1331=ADVANCED_FACE('',(#105),#1269,.T.);
#1332=ADVANCED_FACE('',(#106),#1270,.T.);
#1333=ADVANCED_FACE('',(#107),#1271,.T.);
#1334=ADVANCED_FACE('',(#108),#1272,.T.);
#1335=ADVANCED_FACE('',(#109),#1273,.T.);
#1336=ADVANCED_FACE('',(#110),#1274,.F.);
#1337=ADVANCED_FACE('',(#111),#1275,.F.);
#1338=ADVANCED_FACE('',(#112),#1276,.F.);
#1339=ADVANCED_FACE('',(#113),#1277,.F.);
#1340=ADVANCED_FACE('',(#114),#15,.T.);
#1341=ADVANCED_FACE('',(#115),#1278,.T.);
#1342=ADVANCED_FACE('',(#116),#16,.T.);
#1343=ADVANCED_FACE('',(#117),#1279,.T.);
#1344=ADVANCED_FACE('',(#118),#17,.T.);
#1345=ADVANCED_FACE('',(#119),#1280,.T.);
#1346=ADVANCED_FACE('',(#120),#18,.T.);
#1347=ADVANCED_FACE('',(#121),#1281,.T.);
#1348=ADVANCED_FACE('',(#122),#19,.F.);
#1349=ADVANCED_FACE('',(#123),#20,.T.);
#1350=ADVANCED_FACE('',(#124,#36),#1282,.F.);
#1351=ADVANCED_FACE('',(#125,#37),#1283,.T.);
#1352=ADVANCED_FACE('',(#126,#38),#1284,.F.);
#1353=ADVANCED_FACE('',(#127),#21,.F.);
#1354=ADVANCED_FACE('',(#128),#22,.T.);
#1355=ADVANCED_FACE('',(#129,#39),#1285,.T.);
#1356=ADVANCED_FACE('',(#130),#23,.T.);
#1357=ADVANCED_FACE('',(#131,#40),#1286,.T.);
#1358=ADVANCED_FACE('',(#132),#24,.T.);
#1359=ADVANCED_FACE('',(#133),#25,.T.);
#1360=ADVANCED_FACE('',(#134),#1287,.T.);
#1361=ADVANCED_FACE('',(#135),#1288,.T.);
#1362=ADVANCED_FACE('',(#136),#26,.T.);
#1363=ADVANCED_FACE('',(#137),#27,.T.);
#1364=ADVANCED_FACE('',(#138),#28,.T.);
#1365=ADVANCED_FACE('',(#139),#29,.T.);
#1366=ADVANCED_FACE('',(#140,#41),#1289,.T.);
#1367=ADVANCED_FACE('',(#141),#1290,.F.);
#1368=ADVANCED_FACE('',(#142),#1291,.F.);
#1369=ADVANCED_FACE('',(#143),#1292,.T.);
#1370=ADVANCED_FACE('',(#144),#1293,.T.);
#1371=ADVANCED_FACE('',(#145),#1294,.T.);
#1372=ADVANCED_FACE('',(#146,#42,#43,#44,#45,#46,#47,#48,#49,#50),#1295,
 .F.);
#1373=ADVANCED_FACE('',(#147),#1296,.T.);
#1374=ADVANCED_FACE('',(#148),#1297,.T.);
#1375=ADVANCED_FACE('',(#149),#1298,.T.);
#1376=ADVANCED_FACE('',(#150),#1299,.T.);
#1377=ADVANCED_FACE('',(#151),#1300,.T.);
#1378=ADVANCED_FACE('',(#152),#1301,.T.);
#1379=ADVANCED_FACE('',(#153),#1302,.T.);
#1380=ADVANCED_FACE('',(#154),#1303,.T.);
#1381=ADVANCED_FACE('',(#155),#1304,.T.);
#1382=ADVANCED_FACE('',(#156),#1305,.T.);
#1383=ADVANCED_FACE('',(#157),#1306,.T.);
#1384=ADVANCED_FACE('',(#158),#1307,.T.);
#1385=ADVANCED_FACE('',(#159),#1308,.T.);
#1386=ADVANCED_FACE('',(#160),#1309,.T.);
#1387=ADVANCED_FACE('',(#161),#1310,.T.);
#1388=ADVANCED_FACE('',(#162),#1311,.T.);
#1389=ADVANCED_FACE('',(#163),#1312,.T.);
#1390=ADVANCED_FACE('',(#164),#1313,.T.);
#1391=ADVANCED_FACE('',(#165),#1314,.T.);
#1392=ADVANCED_FACE('',(#166),#1315,.T.);
#1393=ADVANCED_FACE('',(#167,#51,#52,#53,#54,#55),#1316,.T.);
#1394=ADVANCED_FACE('',(#168,#56),#1317,.T.);
#1395=ADVANCED_FACE('',(#169),#1318,.T.);
#1396=ADVANCED_FACE('',(#170),#30,.F.);
#1397=CLOSED_SHELL('',(#1319,#1320,#1321,#1322,#1323,#1324,#1325,#1326,
#1327,#1328,#1329,#1330,#1331,#1332,#1333,#1334,#1335,#1336,#1337,#1338,
#1339,#1340,#1341,#1342,#1343,#1344,#1345,#1346,#1347,#1348,#1349,#1350,
#1351,#1352,#1353,#1354,#1355,#1356,#1357,#1358,#1359,#1360,#1361,#1362,
#1363,#1364,#1365,#1366,#1367,#1368,#1369,#1370,#1371,#1372,#1373,#1374,
#1375,#1376,#1377,#1378,#1379,#1380,#1381,#1382,#1383,#1384,#1385,#1386,
#1387,#1388,#1389,#1390,#1391,#1392,#1393,#1394,#1395,#1396));
#1398=DERIVED_UNIT_ELEMENT(#1400,1.);
#1399=DERIVED_UNIT_ELEMENT(#2299,-3.);
#1400=(
MASS_UNIT()
NAMED_UNIT(*)
SI_UNIT(.KILO.,.GRAM.)
);
#1401=DERIVED_UNIT((#1398,#1399));
#1402=MEASURE_REPRESENTATION_ITEM('density measure',
POSITIVE_RATIO_MEASURE(7850.),#1401);
#1403=PROPERTY_DEFINITION_REPRESENTATION(#1408,#1405);
#1404=PROPERTY_DEFINITION_REPRESENTATION(#1409,#1406);
#1405=REPRESENTATION('material name',(#1407),#2296);
#1406=REPRESENTATION('density',(#1402),#2296);
#1407=DESCRIPTIVE_REPRESENTATION_ITEM('Steel','Steel');
#1408=PROPERTY_DEFINITION('material property','material name',#2306);
#1409=PROPERTY_DEFINITION('material property','density of part',#2306);
#1410=AXIS2_PLACEMENT_3D('',#1905,#1525,#1526);
#1411=AXIS2_PLACEMENT_3D('',#1906,#1527,#1528);
#1412=AXIS2_PLACEMENT_3D('',#1915,#1533,#1534);
#1413=AXIS2_PLACEMENT_3D('',#1921,#1538,#1539);
#1414=AXIS2_PLACEMENT_3D('',#1927,#1543,#1544);
#1415=AXIS2_PLACEMENT_3D('',#1930,#1547,#1548);
#1416=AXIS2_PLACEMENT_3D('',#1931,#1549,#1550);
#1417=AXIS2_PLACEMENT_3D('',#1940,#1555,#1556);
#1418=AXIS2_PLACEMENT_3D('',#1946,#1560,#1561);
#1419=AXIS2_PLACEMENT_3D('',#1952,#1565,#1566);
#1420=AXIS2_PLACEMENT_3D('',#1955,#1569,#1570);
#1421=AXIS2_PLACEMENT_3D('',#1956,#1571,#1572);
#1422=AXIS2_PLACEMENT_3D('',#1961,#1574,#1575);
#1423=AXIS2_PLACEMENT_3D('',#1965,#1577,#1578);
#1424=AXIS2_PLACEMENT_3D('',#1969,#1580,#1581);
#1425=AXIS2_PLACEMENT_3D('',#1972,#1583,#1584);
#1426=AXIS2_PLACEMENT_3D('',#1997,#1597,#1598);
#1427=AXIS2_PLACEMENT_3D('',#2003,#1602,#1603);
#1428=AXIS2_PLACEMENT_3D('',#2007,#1606,#1607);
#1429=AXIS2_PLACEMENT_3D('',#2011,#1610,#1611);
#1430=AXIS2_PLACEMENT_3D('',#2013,#1613,#1614);
#1431=AXIS2_PLACEMENT_3D('',#2014,#1615,#1616);
#1432=AXIS2_PLACEMENT_3D('',#2020,#1620,#1621);
#1433=AXIS2_PLACEMENT_3D('',#2024,#1624,#1625);
#1434=AXIS2_PLACEMENT_3D('',#2028,#1628,#1629);
#1435=AXIS2_PLACEMENT_3D('',#2030,#1631,#1632);
#1436=AXIS2_PLACEMENT_3D('',#2031,#1633,#1634);
#1437=AXIS2_PLACEMENT_3D('',#2033,#1635,#1636);
#1438=AXIS2_PLACEMENT_3D('',#2036,#1638,#1639);
#1439=AXIS2_PLACEMENT_3D('',#2037,#1640,#1641);
#1440=AXIS2_PLACEMENT_3D('',#2038,#1642,#1643);
#1441=AXIS2_PLACEMENT_3D('',#2040,#1644,#1645);
#1442=AXIS2_PLACEMENT_3D('',#2043,#1647,#1648);
#1443=AXIS2_PLACEMENT_3D('',#2044,#1649,#1650);
#1444=AXIS2_PLACEMENT_3D('',#2045,#1651,#1652);
#1445=AXIS2_PLACEMENT_3D('',#2047,#1653,#1654);
#1446=AXIS2_PLACEMENT_3D('',#2050,#1656,#1657);
#1447=AXIS2_PLACEMENT_3D('',#2051,#1658,#1659);
#1448=AXIS2_PLACEMENT_3D('',#2052,#1660,#1661);
#1449=AXIS2_PLACEMENT_3D('',#2054,#1662,#1663);
#1450=AXIS2_PLACEMENT_3D('',#2057,#1665,#1666);
#1451=AXIS2_PLACEMENT_3D('',#2058,#1667,#1668);
#1452=AXIS2_PLACEMENT_3D('',#2059,#1669,#1670);
#1453=AXIS2_PLACEMENT_3D('',#2061,#1671,#1672);
#1454=AXIS2_PLACEMENT_3D('',#2064,#1674,#1675);
#1455=AXIS2_PLACEMENT_3D('',#2065,#1676,#1677);
#1456=AXIS2_PLACEMENT_3D('',#2067,#1678,#1679);
#1457=AXIS2_PLACEMENT_3D('',#2070,#1681,#1682);
#1458=AXIS2_PLACEMENT_3D('',#2071,#1683,#1684);
#1459=AXIS2_PLACEMENT_3D('',#2072,#1685,#1686);
#1460=AXIS2_PLACEMENT_3D('',#2078,#1690,#1691);
#1461=AXIS2_PLACEMENT_3D('',#2080,#1692,#1693);
#1462=AXIS2_PLACEMENT_3D('',#2082,#1694,#1695);
#1463=AXIS2_PLACEMENT_3D('',#2083,#1696,#1697);
#1464=AXIS2_PLACEMENT_3D('',#2085,#1698,#1699);
#1465=AXIS2_PLACEMENT_3D('',#2087,#1701,#1702);
#1466=AXIS2_PLACEMENT_3D('',#2089,#1703,#1704);
#1467=AXIS2_PLACEMENT_3D('',#2092,#1706,#1707);
#1468=AXIS2_PLACEMENT_3D('',#2093,#1708,#1709);
#1469=AXIS2_PLACEMENT_3D('',#2094,#1710,#1711);
#1470=AXIS2_PLACEMENT_3D('',#2098,#1713,#1714);
#1471=AXIS2_PLACEMENT_3D('',#2100,#1716,#1717);
#1472=AXIS2_PLACEMENT_3D('',#2104,#1720,#1721);
#1473=AXIS2_PLACEMENT_3D('',#2106,#1722,#1723);
#1474=AXIS2_PLACEMENT_3D('',#2108,#1725,#1726);
#1475=AXIS2_PLACEMENT_3D('',#2110,#1727,#1728);
#1476=AXIS2_PLACEMENT_3D('',#2112,#1730,#1731);
#1477=AXIS2_PLACEMENT_3D('',#2115,#1733,#1734);
#1478=AXIS2_PLACEMENT_3D('',#2117,#1736,#1737);
#1479=AXIS2_PLACEMENT_3D('',#2118,#1738,#1739);
#1480=AXIS2_PLACEMENT_3D('',#2120,#1741,#1742);
#1481=AXIS2_PLACEMENT_3D('',#2125,#1744,#1745);
#1482=AXIS2_PLACEMENT_3D('',#2128,#1747,#1748);
#1483=AXIS2_PLACEMENT_3D('',#2129,#1749,#1750);
#1484=AXIS2_PLACEMENT_3D('',#2131,#1751,#1752);
#1485=AXIS2_PLACEMENT_3D('',#2134,#1754,#1755);
#1486=AXIS2_PLACEMENT_3D('',#2135,#1756,#1757);
#1487=AXIS2_PLACEMENT_3D('',#2140,#1759,#1760);
#1488=AXIS2_PLACEMENT_3D('',#2143,#1762,#1763);
#1489=AXIS2_PLACEMENT_3D('',#2144,#1764,#1765);
#1490=AXIS2_PLACEMENT_3D('',#2145,#1766,#1767);
#1491=AXIS2_PLACEMENT_3D('',#2146,#1768,#1769);
#1492=AXIS2_PLACEMENT_3D('',#2147,#1770,#1771);
#1493=AXIS2_PLACEMENT_3D('',#2149,#1772,#1773);
#1494=AXIS2_PLACEMENT_3D('',#2150,#1774,#1775);
#1495=AXIS2_PLACEMENT_3D('',#2151,#1776,#1777);
#1496=AXIS2_PLACEMENT_3D('',#2152,#1778,#1779);
#1497=AXIS2_PLACEMENT_3D('',#2153,#1780,#1781);
#1498=AXIS2_PLACEMENT_3D('',#2162,#1786,#1787);
#1499=AXIS2_PLACEMENT_3D('',#2165,#1790,#1791);
#1500=AXIS2_PLACEMENT_3D('',#2167,#1793,#1794);
#1501=AXIS2_PLACEMENT_3D('',#2209,#1816,#1817);
#1502=AXIS2_PLACEMENT_3D('',#2215,#1821,#1822);
#1503=AXIS2_PLACEMENT_3D('',#2219,#1825,#1826);
#1504=AXIS2_PLACEMENT_3D('',#2223,#1829,#1830);
#1505=AXIS2_PLACEMENT_3D('',#2225,#1832,#1833);
#1506=AXIS2_PLACEMENT_3D('',#2231,#1837,#1838);
#1507=AXIS2_PLACEMENT_3D('',#2235,#1841,#1842);
#1508=AXIS2_PLACEMENT_3D('',#2239,#1845,#1846);
#1509=AXIS2_PLACEMENT_3D('',#2241,#1848,#1849);
#1510=AXIS2_PLACEMENT_3D('',#2247,#1853,#1854);
#1511=AXIS2_PLACEMENT_3D('',#2251,#1857,#1858);
#1512=AXIS2_PLACEMENT_3D('',#2255,#1861,#1862);
#1513=AXIS2_PLACEMENT_3D('',#2257,#1864,#1865);
#1514=AXIS2_PLACEMENT_3D('',#2263,#1869,#1870);
#1515=AXIS2_PLACEMENT_3D('',#2267,#1873,#1874);
#1516=AXIS2_PLACEMENT_3D('',#2271,#1877,#1878);
#1517=AXIS2_PLACEMENT_3D('',#2273,#1880,#1881);
#1518=AXIS2_PLACEMENT_3D('',#2279,#1885,#1886);
#1519=AXIS2_PLACEMENT_3D('',#2283,#1889,#1890);
#1520=AXIS2_PLACEMENT_3D('',#2287,#1893,#1894);
#1521=AXIS2_PLACEMENT_3D('',#2289,#1896,#1897);
#1522=AXIS2_PLACEMENT_3D('',#2290,#1898,#1899);
#1523=AXIS2_PLACEMENT_3D('',#2291,#1900,#1901);
#1524=AXIS2_PLACEMENT_3D('',#2292,#1902,#1903);
#1525=DIRECTION('axis',(0.,0.,1.));
#1526=DIRECTION('refdir',(1.,0.,0.));
#1527=DIRECTION('center_axis',(-1.,0.,0.));
#1528=DIRECTION('ref_axis',(0.,0.,1.));
#1529=DIRECTION('',(0.,0.,-1.));
#1530=DIRECTION('',(0.,1.,0.));
#1531=DIRECTION('',(0.,0.,1.));
#1532=DIRECTION('',(0.,1.,0.));
#1533=DIRECTION('center_axis',(0.,0.,1.));
#1534=DIRECTION('ref_axis',(1.,0.,0.));
#1535=DIRECTION('',(-1.,0.,0.));
#1536=DIRECTION('',(1.,0.,0.));
#1537=DIRECTION('',(0.,1.,0.));
#1538=DIRECTION('center_axis',(1.,0.,0.));
#1539=DIRECTION('ref_axis',(0.,0.,-1.));
#1540=DIRECTION('',(0.,0.,1.));
#1541=DIRECTION('',(0.,0.,-1.));
#1542=DIRECTION('',(0.,1.,0.));
#1543=DIRECTION('center_axis',(0.,0.,-1.));
#1544=DIRECTION('ref_axis',(-1.,0.,0.));
#1545=DIRECTION('',(1.,0.,0.));
#1546=DIRECTION('',(-1.,0.,0.));
#1547=DIRECTION('center_axis',(0.,-1.,0.));
#1548=DIRECTION('ref_axis',(0.,0.,1.));
#1549=DIRECTION('center_axis',(1.,0.,0.));
#1550=DIRECTION('ref_axis',(0.,0.,-1.));
#1551=DIRECTION('',(0.,0.,-1.));
#1552=DIRECTION('',(0.,1.,0.));
#1553=DIRECTION('',(0.,0.,-1.));
#1554=DIRECTION('',(0.,1.,0.));
#1555=DIRECTION('center_axis',(0.,0.,1.));
#1556=DIRECTION('ref_axis',(1.,0.,0.));
#1557=DIRECTION('',(1.,0.,0.));
#1558=DIRECTION('',(0.,1.,0.));
#1559=DIRECTION('',(1.,0.,0.));
#1560=DIRECTION('center_axis',(-1.,0.,0.));
#1561=DIRECTION('ref_axis',(0.,0.,1.));
#1562=DIRECTION('',(0.,0.,1.));
#1563=DIRECTION('',(0.,1.,0.));
#1564=DIRECTION('',(0.,0.,1.));
#1565=DIRECTION('center_axis',(0.,0.,-1.));
#1566=DIRECTION('ref_axis',(-1.,0.,0.));
#1567=DIRECTION('',(-1.,0.,0.));
#1568=DIRECTION('',(-1.,0.,0.));
#1569=DIRECTION('center_axis',(0.,1.,0.));
#1570=DIRECTION('ref_axis',(0.,0.,-1.));
#1571=DIRECTION('center_axis',(0.,-1.,0.));
#1572=DIRECTION('ref_axis',(1.,0.,0.));
#1573=DIRECTION('',(-1.,0.,0.));
#1574=DIRECTION('center_axis',(0.,1.,0.));
#1575=DIRECTION('ref_axis',(0.707106781186548,0.,-0.707106781186548));
#1576=DIRECTION('',(0.,0.,1.));
#1577=DIRECTION('center_axis',(0.,1.,0.));
#1578=DIRECTION('ref_axis',(0.707106781186548,0.,0.707106781186547));
#1579=DIRECTION('',(1.,0.,0.));
#1580=DIRECTION('center_axis',(0.,1.,0.));
#1581=DIRECTION('ref_axis',(-0.707106781186547,0.,0.707106781186548));
#1582=DIRECTION('',(0.,0.,1.));
#1583=DIRECTION('center_axis',(0.,1.,0.));
#1584=DIRECTION('ref_axis',(-0.707106781186547,0.,-0.707106781186548));
#1585=DIRECTION('',(-1.,0.,0.));
#1586=DIRECTION('',(0.,0.,-1.));
#1587=DIRECTION('',(-1.,0.,0.));
#1588=DIRECTION('',(0.,0.,1.));
#1589=DIRECTION('',(1.,0.,0.));
#1590=DIRECTION('',(0.,0.,-1.));
#1591=DIRECTION('',(-1.,0.,0.));
#1592=DIRECTION('',(0.,0.,1.));
#1593=DIRECTION('',(0.,0.,1.));
#1594=DIRECTION('',(1.,0.,0.));
#1595=DIRECTION('',(0.,0.,-1.));
#1596=DIRECTION('',(-1.,0.,0.));
#1597=DIRECTION('center_axis',(1.,0.,0.));
#1598=DIRECTION('ref_axis',(0.,0.,-1.));
#1599=DIRECTION('',(0.,1.,0.));
#1600=DIRECTION('',(0.,0.,-1.));
#1601=DIRECTION('',(0.,1.,0.));
#1602=DIRECTION('center_axis',(0.,0.,-1.));
#1603=DIRECTION('ref_axis',(-1.,0.,0.));
#1604=DIRECTION('',(-1.,0.,0.));
#1605=DIRECTION('',(0.,1.,0.));
#1606=DIRECTION('center_axis',(-1.,0.,0.));
#1607=DIRECTION('ref_axis',(0.,0.,1.));
#1608=DIRECTION('',(0.,0.,1.));
#1609=DIRECTION('',(0.,1.,0.));
#1610=DIRECTION('center_axis',(0.,0.,1.));
#1611=DIRECTION('ref_axis',(1.,0.,0.));
#1612=DIRECTION('',(1.,0.,0.));
#1613=DIRECTION('center_axis',(0.,-1.,0.));
#1614=DIRECTION('ref_axis',(0.,0.,-1.));
#1615=DIRECTION('center_axis',(0.,0.,-1.));
#1616=DIRECTION('ref_axis',(-1.,0.,0.));
#1617=DIRECTION('',(0.,1.,0.));
#1618=DIRECTION('',(1.,0.,0.));
#1619=DIRECTION('',(0.,-1.,0.));
#1620=DIRECTION('center_axis',(-1.,0.,0.));
#1621=DIRECTION('ref_axis',(0.,0.,1.));
#1622=DIRECTION('',(0.,1.,0.));
#1623=DIRECTION('',(0.,0.,1.));
#1624=DIRECTION('center_axis',(0.,0.,-1.));
#1625=DIRECTION('ref_axis',(-1.,0.,0.));
#1626=DIRECTION('',(0.,1.,0.));
#1627=DIRECTION('',(-1.,0.,0.));
#1628=DIRECTION('center_axis',(1.,0.,0.));
#1629=DIRECTION('ref_axis',(0.,0.,-1.));
#1630=DIRECTION('',(0.,0.,-1.));
#1631=DIRECTION('center_axis',(0.,1.,0.));
#1632=DIRECTION('ref_axis',(0.,0.,1.));
#1633=DIRECTION('center_axis',(0.,0.,-1.));
#1634=DIRECTION('ref_axis',(-1.,0.,0.));
#1635=DIRECTION('center_axis',(0.,0.,-1.));
#1636=DIRECTION('ref_axis',(-1.,0.,0.));
#1637=DIRECTION('',(0.,0.,1.));
#1638=DIRECTION('center_axis',(0.,0.,1.));
#1639=DIRECTION('ref_axis',(-1.,0.,0.));
#1640=DIRECTION('center_axis',(0.,0.,-1.));
#1641=DIRECTION('ref_axis',(-1.,0.,0.));
#1642=DIRECTION('center_axis',(0.,0.,-1.));
#1643=DIRECTION('ref_axis',(-1.,0.,0.));
#1644=DIRECTION('center_axis',(0.,0.,-1.));
#1645=DIRECTION('ref_axis',(-1.,0.,0.));
#1646=DIRECTION('',(0.,0.,1.));
#1647=DIRECTION('center_axis',(0.,0.,1.));
#1648=DIRECTION('ref_axis',(-1.,0.,0.));
#1649=DIRECTION('center_axis',(0.,0.,-1.));
#1650=DIRECTION('ref_axis',(-1.,0.,0.));
#1651=DIRECTION('center_axis',(0.,0.,-1.));
#1652=DIRECTION('ref_axis',(-1.,0.,0.));
#1653=DIRECTION('center_axis',(0.,0.,-1.));
#1654=DIRECTION('ref_axis',(-1.,0.,0.));
#1655=DIRECTION('',(0.,0.,1.));
#1656=DIRECTION('center_axis',(0.,0.,1.));
#1657=DIRECTION('ref_axis',(-1.,0.,0.));
#1658=DIRECTION('center_axis',(0.,0.,-1.));
#1659=DIRECTION('ref_axis',(-1.,0.,0.));
#1660=DIRECTION('center_axis',(0.,0.,-1.));
#1661=DIRECTION('ref_axis',(-1.,0.,0.));
#1662=DIRECTION('center_axis',(0.,0.,-1.));
#1663=DIRECTION('ref_axis',(-1.,0.,0.));
#1664=DIRECTION('',(0.,0.,1.));
#1665=DIRECTION('center_axis',(0.,0.,1.));
#1666=DIRECTION('ref_axis',(-1.,0.,0.));
#1667=DIRECTION('center_axis',(0.,0.,-1.));
#1668=DIRECTION('ref_axis',(-1.,0.,0.));
#1669=DIRECTION('center_axis',(-1.,0.,0.));
#1670=DIRECTION('ref_axis',(0.,0.,-1.));
#1671=DIRECTION('center_axis',(-1.,0.,0.));
#1672=DIRECTION('ref_axis',(0.,0.,-1.));
#1673=DIRECTION('',(1.,0.,0.));
#1674=DIRECTION('center_axis',(-1.,4.44089209850063E-17,0.));
#1675=DIRECTION('ref_axis',(0.,0.,-1.));
#1676=DIRECTION('center_axis',(1.,0.,0.));
#1677=DIRECTION('ref_axis',(0.,0.,-1.));
#1678=DIRECTION('center_axis',(1.,0.,0.));
#1679=DIRECTION('ref_axis',(0.,0.,-1.));
#1680=DIRECTION('',(1.,0.,0.));
#1681=DIRECTION('center_axis',(1.,-4.44089209850063E-17,0.));
#1682=DIRECTION('ref_axis',(0.,0.,-1.));
#1683=DIRECTION('center_axis',(1.,0.,0.));
#1684=DIRECTION('ref_axis',(0.,0.,-1.));
#1685=DIRECTION('center_axis',(-1.,4.44089209850063E-17,0.));
#1686=DIRECTION('ref_axis',(-4.44089209850063E-17,-1.,0.));
#1687=DIRECTION('',(4.44089209850063E-17,1.,0.));
#1688=DIRECTION('',(-4.44089209850063E-17,-1.,0.));
#1689=DIRECTION('',(0.,0.,1.));
#1690=DIRECTION('center_axis',(1.,0.,0.));
#1691=DIRECTION('ref_axis',(0.,0.,-1.));
#1692=DIRECTION('center_axis',(-1.,0.,0.));
#1693=DIRECTION('ref_axis',(0.,0.,-1.));
#1694=DIRECTION('center_axis',(-1.,0.,0.));
#1695=DIRECTION('ref_axis',(0.,0.,-1.));
#1696=DIRECTION('center_axis',(-1.,0.,0.));
#1697=DIRECTION('ref_axis',(0.,0.,-1.));
#1698=DIRECTION('center_axis',(-1.,0.,0.));
#1699=DIRECTION('ref_axis',(0.,0.,-1.));
#1700=DIRECTION('',(-1.,0.,0.));
#1701=DIRECTION('center_axis',(1.,0.,0.));
#1702=DIRECTION('ref_axis',(0.,0.,-1.));
#1703=DIRECTION('center_axis',(1.,0.,0.));
#1704=DIRECTION('ref_axis',(0.,0.,-1.));
#1705=DIRECTION('',(-1.,0.,0.));
#1706=DIRECTION('center_axis',(-1.,0.,0.));
#1707=DIRECTION('ref_axis',(0.,0.,-1.));
#1708=DIRECTION('center_axis',(1.,0.,0.));
#1709=DIRECTION('ref_axis',(0.,0.,-1.));
#1710=DIRECTION('center_axis',(0.,-1.,0.));
#1711=DIRECTION('ref_axis',(0.707106781186548,0.,-0.707106781186548));
#1712=DIRECTION('',(0.,1.,0.));
#1713=DIRECTION('center_axis',(0.,-1.,0.));
#1714=DIRECTION('ref_axis',(0.707106781186548,0.,-0.707106781186548));
#1715=DIRECTION('',(0.,-1.,0.));
#1716=DIRECTION('center_axis',(1.,0.,0.));
#1717=DIRECTION('ref_axis',(0.,1.,0.));
#1718=DIRECTION('',(0.,0.,-1.));
#1719=DIRECTION('',(0.,1.,0.));
#1720=DIRECTION('center_axis',(0.,1.,0.));
#1721=DIRECTION('ref_axis',(0.707106781186548,0.,0.707106781186547));
#1722=DIRECTION('center_axis',(0.,-1.,0.));
#1723=DIRECTION('ref_axis',(0.707106781186548,0.,0.707106781186547));
#1724=DIRECTION('',(0.,-1.,0.));
#1725=DIRECTION('center_axis',(-4.44089209850063E-17,-1.,0.));
#1726=DIRECTION('ref_axis',(-0.707106781186547,0.,-0.707106781186548));
#1727=DIRECTION('center_axis',(0.,-1.,0.));
#1728=DIRECTION('ref_axis',(-0.707106781186547,0.,-0.707106781186548));
#1729=DIRECTION('',(-4.44089209850063E-17,-1.,0.));
#1730=DIRECTION('center_axis',(0.,1.,0.));
#1731=DIRECTION('ref_axis',(-1.,0.,0.));
#1732=DIRECTION('',(-1.,0.,0.));
#1733=DIRECTION('center_axis',(0.,-1.,0.));
#1734=DIRECTION('ref_axis',(-0.707106781186547,0.,0.707106781186548));
#1735=DIRECTION('',(-1.,0.,0.));
#1736=DIRECTION('center_axis',(-1.,4.44089209850063E-17,0.));
#1737=DIRECTION('ref_axis',(-4.44089209850063E-17,-1.,0.));
#1738=DIRECTION('center_axis',(-4.44089209850063E-17,-1.,0.));
#1739=DIRECTION('ref_axis',(-0.707106781186547,0.,0.707106781186548));
#1740=DIRECTION('',(4.44089209850063E-17,1.,0.));
#1741=DIRECTION('center_axis',(-1.,0.,0.));
#1742=DIRECTION('ref_axis',(0.,-0.997445717412068,0.0714285714285583));
#1743=DIRECTION('',(-1.,0.,0.));
#1744=DIRECTION('center_axis',(-1.,0.,0.));
#1745=DIRECTION('ref_axis',(0.,-0.997445717412068,0.0714285714285583));
#1746=DIRECTION('',(-1.,0.,0.));
#1747=DIRECTION('center_axis',(-1.,0.,0.));
#1748=DIRECTION('ref_axis',(0.,-0.997445717412068,0.0714285714285583));
#1749=DIRECTION('center_axis',(-1.,0.,0.));
#1750=DIRECTION('ref_axis',(0.,0.,1.));
#1751=DIRECTION('center_axis',(-1.,0.,0.));
#1752=DIRECTION('ref_axis',(0.,0.,1.));
#1753=DIRECTION('',(1.,0.,0.));
#1754=DIRECTION('center_axis',(1.,0.,0.));
#1755=DIRECTION('ref_axis',(0.,0.,1.));
#1756=DIRECTION('center_axis',(-1.,0.,0.));
#1757=DIRECTION('ref_axis',(0.,0.997445717412067,-0.0714285714285801));
#1758=DIRECTION('',(-1.,0.,0.));
#1759=DIRECTION('center_axis',(-1.,0.,0.));
#1760=DIRECTION('ref_axis',(0.,0.997445717412067,-0.0714285714285801));
#1761=DIRECTION('',(-1.,0.,0.));
#1762=DIRECTION('center_axis',(-1.,0.,0.));
#1763=DIRECTION('ref_axis',(0.,0.997445717412067,-0.0714285714285801));
#1764=DIRECTION('center_axis',(-1.,0.,0.));
#1765=DIRECTION('ref_axis',(0.,0.,1.));
#1766=DIRECTION('center_axis',(1.,0.,0.));
#1767=DIRECTION('ref_axis',(0.,0.,1.));
#1768=DIRECTION('center_axis',(1.,0.,0.));
#1769=DIRECTION('ref_axis',(0.,0.,1.));
#1770=DIRECTION('center_axis',(-1.,0.,0.));
#1771=DIRECTION('ref_axis',(0.,0.,1.));
#1772=DIRECTION('center_axis',(1.,0.,0.));
#1773=DIRECTION('ref_axis',(0.,0.,-1.));
#1774=DIRECTION('center_axis',(1.,0.,0.));
#1775=DIRECTION('ref_axis',(0.,0.,-1.));
#1776=DIRECTION('center_axis',(-1.,0.,0.));
#1777=DIRECTION('ref_axis',(0.,0.,1.));
#1778=DIRECTION('center_axis',(1.,0.,0.));
#1779=DIRECTION('ref_axis',(0.,0.,-1.));
#1780=DIRECTION('center_axis',(0.,-1.,0.));
#1781=DIRECTION('ref_axis',(0.,0.,-1.));
#1782=DIRECTION('',(0.,0.,-1.));
#1783=DIRECTION('',(1.,0.,0.));
#1784=DIRECTION('',(0.,0.,1.));
#1785=DIRECTION('',(-1.,0.,0.));
#1786=DIRECTION('center_axis',(0.,0.,1.));
#1787=DIRECTION('ref_axis',(0.,1.,0.));
#1788=DIRECTION('',(0.,-1.,0.));
#1789=DIRECTION('',(0.,-1.,0.));
#1790=DIRECTION('center_axis',(1.,0.,0.));
#1791=DIRECTION('ref_axis',(0.,0.,-1.));
#1792=DIRECTION('',(0.,1.,0.));
#1793=DIRECTION('center_axis',(0.,0.,1.));
#1794=DIRECTION('ref_axis',(-1.,0.,0.));
#1795=DIRECTION('',(0.,-1.,0.));
#1796=DIRECTION('',(0.,-1.,0.));
#1797=DIRECTION('',(1.,0.,0.));
#1798=DIRECTION('',(0.,1.,0.));
#1799=DIRECTION('',(-1.,0.,0.));
#1800=DIRECTION('',(0.,-1.,0.));
#1801=DIRECTION('',(1.,0.,0.));
#1802=DIRECTION('',(0.,1.,0.));
#1803=DIRECTION('',(-1.,0.,0.));
#1804=DIRECTION('',(0.,1.,0.));
#1805=DIRECTION('',(-1.,-6.72862439166761E-17,0.));
#1806=DIRECTION('',(0.,-1.,0.));
#1807=DIRECTION('',(1.,0.,0.));
#1808=DIRECTION('',(0.,-1.,0.));
#1809=DIRECTION('',(1.,0.,0.));
#1810=DIRECTION('',(0.,1.,0.));
#1811=DIRECTION('',(-1.,0.,0.));
#1812=DIRECTION('',(0.,-1.,0.));
#1813=DIRECTION('',(1.,0.,0.));
#1814=DIRECTION('',(0.,1.,0.));
#1815=DIRECTION('',(-1.,0.,0.));
#1816=DIRECTION('center_axis',(-1.,0.,0.));
#1817=DIRECTION('ref_axis',(0.,-1.,0.));
#1818=DIRECTION('',(0.,0.,1.));
#1819=DIRECTION('',(0.,-1.,0.));
#1820=DIRECTION('',(0.,0.,1.));
#1821=DIRECTION('center_axis',(0.,1.,0.));
#1822=DIRECTION('ref_axis',(-1.,0.,0.));
#1823=DIRECTION('',(0.,0.,1.));
#1824=DIRECTION('',(-1.,0.,0.));
#1825=DIRECTION('center_axis',(1.,0.,0.));
#1826=DIRECTION('ref_axis',(0.,1.,0.));
#1827=DIRECTION('',(0.,0.,1.));
#1828=DIRECTION('',(0.,1.,0.));
#1829=DIRECTION('center_axis',(0.,-1.,0.));
#1830=DIRECTION('ref_axis',(1.,0.,0.));
#1831=DIRECTION('',(1.,0.,0.));
#1832=DIRECTION('center_axis',(-1.,0.,0.));
#1833=DIRECTION('ref_axis',(0.,-1.,0.));
#1834=DIRECTION('',(0.,0.,1.));
#1835=DIRECTION('',(0.,-1.,0.));
#1836=DIRECTION('',(0.,0.,1.));
#1837=DIRECTION('center_axis',(0.,1.,0.));
#1838=DIRECTION('ref_axis',(-1.,0.,0.));
#1839=DIRECTION('',(0.,0.,1.));
#1840=DIRECTION('',(-1.,0.,0.));
#1841=DIRECTION('center_axis',(1.,0.,0.));
#1842=DIRECTION('ref_axis',(0.,1.,0.));
#1843=DIRECTION('',(0.,0.,1.));
#1844=DIRECTION('',(0.,1.,0.));
#1845=DIRECTION('center_axis',(0.,-1.,0.));
#1846=DIRECTION('ref_axis',(1.,0.,0.));
#1847=DIRECTION('',(1.,0.,0.));
#1848=DIRECTION('center_axis',(1.,0.,0.));
#1849=DIRECTION('ref_axis',(0.,1.,0.));
#1850=DIRECTION('',(0.,0.,1.));
#1851=DIRECTION('',(0.,1.,0.));
#1852=DIRECTION('',(0.,0.,1.));
#1853=DIRECTION('center_axis',(0.,-1.,0.));
#1854=DIRECTION('ref_axis',(1.,0.,0.));
#1855=DIRECTION('',(0.,0.,1.));
#1856=DIRECTION('',(1.,0.,0.));
#1857=DIRECTION('center_axis',(-1.,0.,0.));
#1858=DIRECTION('ref_axis',(0.,-1.,0.));
#1859=DIRECTION('',(0.,0.,1.));
#1860=DIRECTION('',(0.,-1.,0.));
#1861=DIRECTION('center_axis',(-6.72862439166761E-17,1.,0.));
#1862=DIRECTION('ref_axis',(-1.,-6.72862439166761E-17,0.));
#1863=DIRECTION('',(-1.,-6.72862439166761E-17,0.));
#1864=DIRECTION('center_axis',(-1.,0.,0.));
#1865=DIRECTION('ref_axis',(0.,-1.,0.));
#1866=DIRECTION('',(0.,0.,1.));
#1867=DIRECTION('',(0.,-1.,0.));
#1868=DIRECTION('',(0.,0.,1.));
#1869=DIRECTION('center_axis',(0.,1.,0.));
#1870=DIRECTION('ref_axis',(-1.,0.,0.));
#1871=DIRECTION('',(0.,0.,1.));
#1872=DIRECTION('',(-1.,0.,0.));
#1873=DIRECTION('center_axis',(1.,0.,0.));
#1874=DIRECTION('ref_axis',(0.,1.,0.));
#1875=DIRECTION('',(0.,0.,1.));
#1876=DIRECTION('',(0.,1.,0.));
#1877=DIRECTION('center_axis',(0.,-1.,0.));
#1878=DIRECTION('ref_axis',(1.,0.,0.));
#1879=DIRECTION('',(1.,0.,0.));
#1880=DIRECTION('center_axis',(-1.,0.,0.));
#1881=DIRECTION('ref_axis',(0.,-1.,0.));
#1882=DIRECTION('',(0.,0.,1.));
#1883=DIRECTION('',(0.,-1.,0.));
#1884=DIRECTION('',(0.,0.,1.));
#1885=DIRECTION('center_axis',(0.,1.,0.));
#1886=DIRECTION('ref_axis',(-1.,0.,0.));
#1887=DIRECTION('',(0.,0.,1.));
#1888=DIRECTION('',(-1.,0.,0.));
#1889=DIRECTION('center_axis',(1.,0.,0.));
#1890=DIRECTION('ref_axis',(0.,1.,0.));
#1891=DIRECTION('',(0.,0.,1.));
#1892=DIRECTION('',(0.,1.,0.));
#1893=DIRECTION('center_axis',(0.,-1.,0.));
#1894=DIRECTION('ref_axis',(1.,0.,0.));
#1895=DIRECTION('',(1.,0.,0.));
#1896=DIRECTION('center_axis',(0.,0.,1.));
#1897=DIRECTION('ref_axis',(1.,0.,0.));
#1898=DIRECTION('center_axis',(-1.,0.,0.));
#1899=DIRECTION('ref_axis',(0.,0.,1.));
#1900=DIRECTION('center_axis',(0.,0.,-1.));
#1901=DIRECTION('ref_axis',(0.,-1.,0.));
#1902=DIRECTION('center_axis',(-1.,0.,0.));
#1903=DIRECTION('ref_axis',(0.,0.,-1.));
#1904=DIRECTION('',(-1.,0.,0.));
#1905=CARTESIAN_POINT('',(0.,0.,0.));
#1906=CARTESIAN_POINT('Origin',(38.5000000745058,-8.14999999999998,-42.1412092343643));
#1907=CARTESIAN_POINT('',(38.5000000745058,-8.14999999999998,-40.0000005960464));
#1908=CARTESIAN_POINT('',(38.5000000745058,-8.14999999999998,-42.1412092343643));
#1909=CARTESIAN_POINT('',(38.5000000745058,-8.15,-19.7456046171821));
#1910=CARTESIAN_POINT('',(38.5000000745058,-4.64999999999998,-40.0000005960464));
#1911=CARTESIAN_POINT('',(38.5000000745058,-8.14999999999998,-40.0000005960464));
#1912=CARTESIAN_POINT('',(38.5000000745058,-4.64999999999998,-42.1412092343643));
#1913=CARTESIAN_POINT('',(38.5000000745058,-4.64999999999998,-40.0000005960464));
#1914=CARTESIAN_POINT('',(38.5000000745058,-8.14999999999998,-42.1412092343643));
#1915=CARTESIAN_POINT('Origin',(18.4999997764826,-8.14999999999998,-42.1412092343643));
#1916=CARTESIAN_POINT('',(18.4999997764826,-8.14999999999998,-42.1412092343643));
#1917=CARTESIAN_POINT('',(5.12499988824129,-8.15,-42.1412092343643));
#1918=CARTESIAN_POINT('',(18.4999997764826,-4.64999999999998,-42.1412092343643));
#1919=CARTESIAN_POINT('',(38.5000000745058,-4.64999999999998,-42.1412092343643));
#1920=CARTESIAN_POINT('',(18.4999997764826,-8.14999999999998,-42.1412092343643));
#1921=CARTESIAN_POINT('Origin',(18.4999997764826,-8.14999999999998,-40.0000005960464));
#1922=CARTESIAN_POINT('',(18.4999997764826,-8.14999999999998,-40.0000005960464));
#1923=CARTESIAN_POINT('',(18.4999997764826,-8.15,-18.6750002980232));
#1924=CARTESIAN_POINT('',(18.4999997764826,-4.64999999999998,-40.0000005960464));
#1925=CARTESIAN_POINT('',(18.4999997764826,-4.64999999999998,-42.1412092343643));
#1926=CARTESIAN_POINT('',(18.4999997764826,-8.14999999999998,-40.0000005960464));
#1927=CARTESIAN_POINT('Origin',(38.5000000745058,-8.14999999999998,-40.0000005960464));
#1928=CARTESIAN_POINT('',(15.1250000372529,-8.15,-40.0000005960464));
#1929=CARTESIAN_POINT('',(18.4999997764826,-4.64999999999998,-40.0000005960464));
#1930=CARTESIAN_POINT('Origin',(28.4999999254942,-4.64999999999998,-41.0706049152054));
#1931=CARTESIAN_POINT('Origin',(38.5000000745058,-8.14999999999998,5.4412092343643));
#1932=CARTESIAN_POINT('',(38.5000000745058,-8.14999999999998,5.4412092343643));
#1933=CARTESIAN_POINT('',(38.5000000745058,-8.14999999999998,3.30000059604645));
#1934=CARTESIAN_POINT('',(38.5000000745058,-8.15,4.04560461718215));
#1935=CARTESIAN_POINT('',(38.5000000745058,-4.64999999999998,5.4412092343643));
#1936=CARTESIAN_POINT('',(38.5000000745058,-8.14999999999998,5.4412092343643));
#1937=CARTESIAN_POINT('',(38.5000000745058,-4.64999999999998,3.30000059604645));
#1938=CARTESIAN_POINT('',(38.5000000745058,-4.64999999999998,3.30000059604645));
#1939=CARTESIAN_POINT('',(38.5000000745058,-8.14999999999998,3.30000059604645));
#1940=CARTESIAN_POINT('Origin',(18.4999997764826,-8.14999999999998,5.4412092343643));
#1941=CARTESIAN_POINT('',(18.4999997764826,-8.14999999999998,5.4412092343643));
#1942=CARTESIAN_POINT('',(5.12499988824129,-8.15,5.4412092343643));
#1943=CARTESIAN_POINT('',(18.4999997764826,-4.64999999999998,5.4412092343643));
#1944=CARTESIAN_POINT('',(18.4999997764826,-8.14999999999998,5.4412092343643));
#1945=CARTESIAN_POINT('',(38.5000000745058,-4.64999999999998,5.4412092343643));
#1946=CARTESIAN_POINT('Origin',(18.4999997764826,-8.14999999999998,3.30000059604645));
#1947=CARTESIAN_POINT('',(18.4999997764826,-8.14999999999998,3.30000059604645));
#1948=CARTESIAN_POINT('',(18.4999997764826,-8.15,2.97500029802322));
#1949=CARTESIAN_POINT('',(18.4999997764826,-4.64999999999998,3.30000059604645));
#1950=CARTESIAN_POINT('',(18.4999997764826,-8.14999999999998,3.30000059604645));
#1951=CARTESIAN_POINT('',(18.4999997764826,-4.64999999999998,5.4412092343643));
#1952=CARTESIAN_POINT('Origin',(38.5000000745058,-8.14999999999998,3.30000059604645));
#1953=CARTESIAN_POINT('',(15.1250000372529,-8.15,3.30000059604645));
#1954=CARTESIAN_POINT('',(18.4999997764826,-4.64999999999998,3.30000059604645));
#1955=CARTESIAN_POINT('Origin',(28.4999999254942,-4.64999999999998,4.37060491520537));
#1956=CARTESIAN_POINT('Origin',(-8.25,-8.15,2.65));
#1957=CARTESIAN_POINT('',(38.25,-8.15,-43.35));
#1958=CARTESIAN_POINT('',(-4.75,-8.15,-43.35));
#1959=CARTESIAN_POINT('',(41.75,-8.15,-43.35));
#1960=CARTESIAN_POINT('',(41.75,-8.15,-39.85));
#1961=CARTESIAN_POINT('Origin',(38.25,-8.15,-39.85));
#1962=CARTESIAN_POINT('',(41.75,-8.15,3.15));
#1963=CARTESIAN_POINT('',(41.75,-8.15,2.65));
#1964=CARTESIAN_POINT('',(38.25,-8.15,6.65));
#1965=CARTESIAN_POINT('Origin',(38.25,-8.15,3.15));
#1966=CARTESIAN_POINT('',(-4.75,-8.15,6.65));
#1967=CARTESIAN_POINT('',(41.75,-8.15,6.65));
#1968=CARTESIAN_POINT('',(-8.25,-8.15,3.15));
#1969=CARTESIAN_POINT('Origin',(-4.75,-8.15,3.15));
#1970=CARTESIAN_POINT('',(-8.25,-8.15,-39.85));
#1971=CARTESIAN_POINT('',(-8.25,-8.15,2.65));
#1972=CARTESIAN_POINT('Origin',(-4.75,-8.15,-39.85));
#1973=CARTESIAN_POINT('',(37.75,-8.15,-39.35));
#1974=CARTESIAN_POINT('',(-4.25000000000001,-8.15,-39.35));
#1975=CARTESIAN_POINT('',(37.75,-8.15,-39.35));
#1976=CARTESIAN_POINT('',(-4.25000000000001,-8.15,2.65));
#1977=CARTESIAN_POINT('',(-4.25000000000001,-8.15,-39.35));
#1978=CARTESIAN_POINT('',(37.75,-8.15,2.65));
#1979=CARTESIAN_POINT('',(41.75,-8.15,2.65));
#1980=CARTESIAN_POINT('',(37.75,-8.15,-43.35));
#1981=CARTESIAN_POINT('',(-5.00000007450581,-8.14999999999998,-40.4000005960464));
#1982=CARTESIAN_POINT('',(15.0000002235174,-8.14999999999998,-40.4000005960464));
#1983=CARTESIAN_POINT('',(-6.6250000372529,-8.15,-40.4000005960464));
#1984=CARTESIAN_POINT('',(15.0000002235174,-8.14999999999998,-42.1412092343643));
#1985=CARTESIAN_POINT('',(15.0000002235174,-8.15,-18.6750002980232));
#1986=CARTESIAN_POINT('',(-5.00000007450581,-8.14999999999998,-42.1412092343643));
#1987=CARTESIAN_POINT('',(3.37500011175871,-8.15,-42.1412092343643));
#1988=CARTESIAN_POINT('',(-5.00000007450581,-8.15,-19.7456046171821));
#1989=CARTESIAN_POINT('',(-5.00000007450581,-8.14999999999998,3.30000059604645));
#1990=CARTESIAN_POINT('',(-5.00000007450581,-8.14999999999998,5.4412092343643));
#1991=CARTESIAN_POINT('',(-5.00000007450581,-8.15,4.04560461718215));
#1992=CARTESIAN_POINT('',(15.0000002235174,-8.14999999999998,5.4412092343643));
#1993=CARTESIAN_POINT('',(3.37500011175871,-8.15,5.4412092343643));
#1994=CARTESIAN_POINT('',(15.0000002235174,-8.14999999999998,3.30000059604645));
#1995=CARTESIAN_POINT('',(15.0000002235174,-8.15,2.97500029802322));
#1996=CARTESIAN_POINT('',(-6.6250000372529,-8.15,3.30000059604645));
#1997=CARTESIAN_POINT('Origin',(-5.00000007450581,-8.14999999999998,5.4412092343643));
#1998=CARTESIAN_POINT('',(-5.00000007450581,-4.64999999999998,3.30000059604645));
#1999=CARTESIAN_POINT('',(-5.00000007450581,-8.14999999999998,3.30000059604645));
#2000=CARTESIAN_POINT('',(-5.00000007450581,-4.64999999999998,5.4412092343643));
#2001=CARTESIAN_POINT('',(-5.00000007450581,-4.64999999999998,3.30000059604645));
#2002=CARTESIAN_POINT('',(-5.00000007450581,-8.14999999999998,5.4412092343643));
#2003=CARTESIAN_POINT('Origin',(15.0000002235174,-8.14999999999998,5.4412092343643));
#2004=CARTESIAN_POINT('',(15.0000002235174,-4.64999999999998,5.4412092343643));
#2005=CARTESIAN_POINT('',(-5.00000007450581,-4.64999999999998,5.4412092343643));
#2006=CARTESIAN_POINT('',(15.0000002235174,-8.14999999999998,5.4412092343643));
#2007=CARTESIAN_POINT('Origin',(15.0000002235174,-8.14999999999998,3.30000059604645));
#2008=CARTESIAN_POINT('',(15.0000002235174,-4.64999999999998,3.30000059604645));
#2009=CARTESIAN_POINT('',(15.0000002235174,-4.64999999999998,5.4412092343643));
#2010=CARTESIAN_POINT('',(15.0000002235174,-8.14999999999998,3.30000059604645));
#2011=CARTESIAN_POINT('Origin',(-5.00000007450581,-8.14999999999998,3.30000059604645));
#2012=CARTESIAN_POINT('',(15.0000002235174,-4.64999999999998,3.30000059604645));
#2013=CARTESIAN_POINT('Origin',(5.00000007450581,-4.64999999999998,4.37060491520537));
#2014=CARTESIAN_POINT('Origin',(-5.00000007450581,-8.14999999999998,-40.4000005960464));
#2015=CARTESIAN_POINT('',(-5.00000007450581,-4.64999999999998,-40.4000005960464));
#2016=CARTESIAN_POINT('',(-5.00000007450581,-8.14999999999998,-40.4000005960464));
#2017=CARTESIAN_POINT('',(15.0000002235174,-4.64999999999998,-40.4000005960464));
#2018=CARTESIAN_POINT('',(0.,-4.64999999999998,-40.4000005960465));
#2019=CARTESIAN_POINT('',(15.0000002235174,-8.14999999999998,-40.4000005960464));
#2020=CARTESIAN_POINT('Origin',(-5.00000007450581,-8.14999999999998,-42.1412092343643));
#2021=CARTESIAN_POINT('',(-5.00000007450581,-4.64999999999998,-42.1412092343643));
#2022=CARTESIAN_POINT('',(-5.00000007450581,-8.14999999999998,-42.1412092343643));
#2023=CARTESIAN_POINT('',(-5.00000007450581,-4.64999999999998,-40.0000005960464));
#2024=CARTESIAN_POINT('Origin',(15.0000002235174,-8.14999999999998,-42.1412092343643));
#2025=CARTESIAN_POINT('',(15.0000002235174,-4.64999999999998,-42.1412092343643));
#2026=CARTESIAN_POINT('',(15.0000002235174,-8.14999999999998,-42.1412092343643));
#2027=CARTESIAN_POINT('',(-5.00000007450581,-4.64999999999998,-42.1412092343643));
#2028=CARTESIAN_POINT('Origin',(15.0000002235174,-8.14999999999998,-40.0000005960464));
#2029=CARTESIAN_POINT('',(15.0000002235174,-4.64999999999998,-42.1412092343643));
#2030=CARTESIAN_POINT('Origin',(5.00000007450581,-4.64999999999998,-41.0706049152054));
#2031=CARTESIAN_POINT('Origin',(31.5,30.7,2.65));
#2032=CARTESIAN_POINT('',(32.95,30.7,-1.35));
#2033=CARTESIAN_POINT('Origin',(31.5,30.7,-1.35));
#2034=CARTESIAN_POINT('',(32.95,30.7,2.65));
#2035=CARTESIAN_POINT('',(32.95,30.7,2.65));
#2036=CARTESIAN_POINT('Origin',(31.5,30.7,2.65));
#2037=CARTESIAN_POINT('Origin',(31.5,30.7,-1.35));
#2038=CARTESIAN_POINT('Origin',(2.,2.,2.65));
#2039=CARTESIAN_POINT('',(3.45,2.,-1.35));
#2040=CARTESIAN_POINT('Origin',(2.,2.,-1.35));
#2041=CARTESIAN_POINT('',(3.45,2.,2.65));
#2042=CARTESIAN_POINT('',(3.45,2.,2.65));
#2043=CARTESIAN_POINT('Origin',(2.,2.,2.65));
#2044=CARTESIAN_POINT('Origin',(2.,2.,-1.35));
#2045=CARTESIAN_POINT('Origin',(31.5,2.,2.65));
#2046=CARTESIAN_POINT('',(32.95,2.,-1.35));
#2047=CARTESIAN_POINT('Origin',(31.5,2.,-1.35));
#2048=CARTESIAN_POINT('',(32.95,2.,2.65));
#2049=CARTESIAN_POINT('',(32.95,2.,2.65));
#2050=CARTESIAN_POINT('Origin',(31.5,2.,2.65));
#2051=CARTESIAN_POINT('Origin',(31.5,2.,-1.35));
#2052=CARTESIAN_POINT('Origin',(2.,30.7,2.65));
#2053=CARTESIAN_POINT('',(3.45,30.7,-1.35));
#2054=CARTESIAN_POINT('Origin',(2.,30.7,-1.35));
#2055=CARTESIAN_POINT('',(3.45,30.7,2.65));
#2056=CARTESIAN_POINT('',(3.45,30.7,2.65));
#2057=CARTESIAN_POINT('Origin',(2.,30.7,2.65));
#2058=CARTESIAN_POINT('Origin',(2.,30.7,-1.35));
#2059=CARTESIAN_POINT('Origin',(-11.25,16.85,-18.35));
#2060=CARTESIAN_POINT('',(-11.25,16.85,-11.35));
#2061=CARTESIAN_POINT('Origin',(-11.25,16.85,-18.35));
#2062=CARTESIAN_POINT('',(-8.25,16.85,-11.35));
#2063=CARTESIAN_POINT('',(-11.25,16.85,-11.35));
#2064=CARTESIAN_POINT('Origin',(-8.25,16.85,-18.35));
#2065=CARTESIAN_POINT('Origin',(-8.25,16.85,-18.35));
#2066=CARTESIAN_POINT('',(-11.25,16.85,-2.10361242190365));
#2067=CARTESIAN_POINT('Origin',(-11.25,16.85,-18.35));
#2068=CARTESIAN_POINT('',(-8.25,16.85,-2.10361242190365));
#2069=CARTESIAN_POINT('',(-8.25,16.85,-2.10361242190365));
#2070=CARTESIAN_POINT('Origin',(-8.25,16.85,-18.35));
#2071=CARTESIAN_POINT('Origin',(-11.25,16.85,-18.35));
#2072=CARTESIAN_POINT('Origin',(-8.25,41.85,2.65));
#2073=CARTESIAN_POINT('',(-8.25,41.85,-39.85));
#2074=CARTESIAN_POINT('',(-8.25,41.85,-39.85));
#2075=CARTESIAN_POINT('',(-8.25,41.85,3.15));
#2076=CARTESIAN_POINT('',(-8.25,29.35,3.15));
#2077=CARTESIAN_POINT('',(-8.25,41.85,2.65));
#2078=CARTESIAN_POINT('Origin',(41.75,16.85,-18.35));
#2079=CARTESIAN_POINT('',(41.75,16.85,-11.35));
#2080=CARTESIAN_POINT('Origin',(41.75,16.85,-18.35));
#2081=CARTESIAN_POINT('',(41.75,16.85,-11.85));
#2082=CARTESIAN_POINT('Origin',(41.75,16.85,-18.35));
#2083=CARTESIAN_POINT('Origin',(44.75,16.85,-18.35));
#2084=CARTESIAN_POINT('',(44.75,16.85,-11.85));
#2085=CARTESIAN_POINT('Origin',(44.75,16.85,-18.35));
#2086=CARTESIAN_POINT('',(44.75,16.85,-11.85));
#2087=CARTESIAN_POINT('Origin',(41.75,16.85,-18.35));
#2088=CARTESIAN_POINT('',(44.75,16.85,-2.10361242190365));
#2089=CARTESIAN_POINT('Origin',(44.75,16.85,-18.35));
#2090=CARTESIAN_POINT('',(41.75,16.85,-2.10361242190365));
#2091=CARTESIAN_POINT('',(41.75,16.85,-2.10361242190365));
#2092=CARTESIAN_POINT('Origin',(41.75,16.85,-18.35));
#2093=CARTESIAN_POINT('Origin',(44.75,16.85,-18.35));
#2094=CARTESIAN_POINT('Origin',(38.25,16.85,-39.85));
#2095=CARTESIAN_POINT('',(38.25,41.85,-43.35));
#2096=CARTESIAN_POINT('',(38.25,16.85,-43.35));
#2097=CARTESIAN_POINT('',(41.75,41.85,-39.85));
#2098=CARTESIAN_POINT('Origin',(38.25,41.85,-39.85));
#2099=CARTESIAN_POINT('',(41.75,16.85,-39.85));
#2100=CARTESIAN_POINT('Origin',(41.75,-8.15,2.65));
#2101=CARTESIAN_POINT('',(41.75,41.85,3.15));
#2102=CARTESIAN_POINT('',(41.75,41.85,2.65));
#2103=CARTESIAN_POINT('',(41.75,4.35,3.15));
#2104=CARTESIAN_POINT('Origin',(38.25,4.35,3.15));
#2105=CARTESIAN_POINT('',(38.25,41.85,6.65));
#2106=CARTESIAN_POINT('Origin',(38.25,41.85,3.15));
#2107=CARTESIAN_POINT('',(38.25,4.35,6.65));
#2108=CARTESIAN_POINT('Origin',(-4.75,41.85,-39.85));
#2109=CARTESIAN_POINT('',(-4.75,41.85,-43.35));
#2110=CARTESIAN_POINT('Origin',(-4.75,41.85,-39.85));
#2111=CARTESIAN_POINT('',(-4.75,41.85,-43.35));
#2112=CARTESIAN_POINT('Origin',(41.75,41.85,2.65));
#2113=CARTESIAN_POINT('',(41.75,41.85,-43.35));
#2114=CARTESIAN_POINT('',(-4.75,41.85,6.65));
#2115=CARTESIAN_POINT('Origin',(-4.75,41.85,3.15));
#2116=CARTESIAN_POINT('',(-8.25,41.85,6.65));
#2117=CARTESIAN_POINT('Origin',(-8.25,41.85,2.65));
#2118=CARTESIAN_POINT('Origin',(-4.75,29.35,3.15));
#2119=CARTESIAN_POINT('',(-4.75,29.35,6.65));
#2120=CARTESIAN_POINT('Origin',(37.75,16.85,-25.35));
#2121=CARTESIAN_POINT('',(37.75,15.852554282588,-25.2785714285714));
#2122=CARTESIAN_POINT('',(35.75,15.852554282588,-25.2785714285714));
#2123=CARTESIAN_POINT('',(37.75,15.852554282588,-25.2785714285714));
#2124=CARTESIAN_POINT('',(37.75,17.8474457174121,-25.2785714285714));
#2125=CARTESIAN_POINT('Origin',(37.75,16.85,-25.35));
#2126=CARTESIAN_POINT('',(35.75,17.8474457174121,-25.2785714285714));
#2127=CARTESIAN_POINT('',(37.75,17.8474457174121,-25.2785714285714));
#2128=CARTESIAN_POINT('Origin',(35.75,16.85,-25.35));
#2129=CARTESIAN_POINT('Origin',(37.75,16.85,-18.35));
#2130=CARTESIAN_POINT('',(35.75,16.85,-25.85));
#2131=CARTESIAN_POINT('Origin',(35.75,16.85,-18.35));
#2132=CARTESIAN_POINT('',(37.75,16.85,-25.85));
#2133=CARTESIAN_POINT('',(37.75,16.85,-25.85));
#2134=CARTESIAN_POINT('Origin',(37.75,16.85,-18.35));
#2135=CARTESIAN_POINT('Origin',(37.75,16.85,-11.35));
#2136=CARTESIAN_POINT('',(37.75,17.8474457174121,-11.4214285714286));
#2137=CARTESIAN_POINT('',(35.75,17.8474457174121,-11.4214285714286));
#2138=CARTESIAN_POINT('',(37.75,17.8474457174121,-11.4214285714286));
#2139=CARTESIAN_POINT('',(37.75,15.852554282588,-11.4214285714286));
#2140=CARTESIAN_POINT('Origin',(37.75,16.85,-11.35));
#2141=CARTESIAN_POINT('',(35.75,15.852554282588,-11.4214285714286));
#2142=CARTESIAN_POINT('',(37.75,15.852554282588,-11.4214285714286));
#2143=CARTESIAN_POINT('Origin',(35.75,16.85,-11.35));
#2144=CARTESIAN_POINT('Origin',(35.75,16.85,-11.85));
#2145=CARTESIAN_POINT('Origin',(35.75,16.85,-18.35));
#2146=CARTESIAN_POINT('Origin',(35.75,16.85,-18.35));
#2147=CARTESIAN_POINT('Origin',(37.75,16.85,-11.85));
#2148=CARTESIAN_POINT('',(37.75,16.85,-11.35));
#2149=CARTESIAN_POINT('Origin',(37.75,16.85,-18.35));
#2150=CARTESIAN_POINT('Origin',(37.75,16.85,-18.35));
#2151=CARTESIAN_POINT('Origin',(37.75,16.85,-24.85));
#2152=CARTESIAN_POINT('Origin',(37.75,16.85,-18.35));
#2153=CARTESIAN_POINT('Origin',(16.75,36.85,-18.35));
#2154=CARTESIAN_POINT('',(37.75,36.85,2.65));
#2155=CARTESIAN_POINT('',(37.75,36.85,-39.35));
#2156=CARTESIAN_POINT('',(37.75,36.85,-19.35));
#2157=CARTESIAN_POINT('',(-4.25,36.85,2.65));
#2158=CARTESIAN_POINT('',(16.75,36.85,2.65));
#2159=CARTESIAN_POINT('',(-4.25000000000001,36.85,-39.35));
#2160=CARTESIAN_POINT('',(-4.25000000000001,36.85,-18.35));
#2161=CARTESIAN_POINT('',(27.25,36.85,-39.35));
#2162=CARTESIAN_POINT('Origin',(37.75,-8.15,-39.35));
#2163=CARTESIAN_POINT('',(-4.25000000000001,4.35,-39.35));
#2164=CARTESIAN_POINT('',(37.75,4.35,-39.35));
#2165=CARTESIAN_POINT('Origin',(-4.25000000000001,16.85,-18.35));
#2166=CARTESIAN_POINT('',(-4.25000000000001,16.85,2.65));
#2167=CARTESIAN_POINT('Origin',(16.75,16.85,2.65));
#2168=CARTESIAN_POINT('',(37.75,16.85,2.65));
#2169=CARTESIAN_POINT('',(18.345,32.725,2.65));
#2170=CARTESIAN_POINT('',(18.345,32.075,2.65));
#2171=CARTESIAN_POINT('',(18.345,32.725,2.65));
#2172=CARTESIAN_POINT('',(17.695,32.725,2.65));
#2173=CARTESIAN_POINT('',(17.695,32.725,2.65));
#2174=CARTESIAN_POINT('',(17.695,32.075,2.65));
#2175=CARTESIAN_POINT('',(17.695,32.075,2.65));
#2176=CARTESIAN_POINT('',(18.345,32.075,2.65));
#2177=CARTESIAN_POINT('',(15.805,32.725,2.65));
#2178=CARTESIAN_POINT('',(15.805,32.075,2.65));
#2179=CARTESIAN_POINT('',(15.805,32.725,2.65));
#2180=CARTESIAN_POINT('',(15.155,32.725,2.65));
#2181=CARTESIAN_POINT('',(15.155,32.725,2.65));
#2182=CARTESIAN_POINT('',(15.155,32.075,2.65));
#2183=CARTESIAN_POINT('',(15.155,32.075,2.65));
#2184=CARTESIAN_POINT('',(15.805,32.075,2.65));
#2185=CARTESIAN_POINT('',(0.249999999999999,4.85,2.65));
#2186=CARTESIAN_POINT('',(0.249999999999999,28.85,2.65));
#2187=CARTESIAN_POINT('',(0.249999999999999,4.85,2.65));
#2188=CARTESIAN_POINT('',(33.25,4.85,2.65));
#2189=CARTESIAN_POINT('',(33.25,4.85,2.65));
#2190=CARTESIAN_POINT('',(33.25,28.85,2.65));
#2191=CARTESIAN_POINT('',(33.25,28.85,2.65));
#2192=CARTESIAN_POINT('',(0.249999999999999,28.85,2.65));
#2193=CARTESIAN_POINT('',(20.885,32.725,2.65));
#2194=CARTESIAN_POINT('',(20.885,32.075,2.65));
#2195=CARTESIAN_POINT('',(20.885,32.725,2.65));
#2196=CARTESIAN_POINT('',(20.235,32.725,2.65));
#2197=CARTESIAN_POINT('',(20.235,32.725,2.65));
#2198=CARTESIAN_POINT('',(20.235,32.075,2.65));
#2199=CARTESIAN_POINT('',(20.235,32.075,2.65));
#2200=CARTESIAN_POINT('',(20.885,32.075,2.65));
#2201=CARTESIAN_POINT('',(13.265,32.725,2.65));
#2202=CARTESIAN_POINT('',(13.265,32.075,2.65));
#2203=CARTESIAN_POINT('',(13.265,32.725,2.65));
#2204=CARTESIAN_POINT('',(12.615,32.725,2.65));
#2205=CARTESIAN_POINT('',(12.615,32.725,2.65));
#2206=CARTESIAN_POINT('',(12.615,32.075,2.65));
#2207=CARTESIAN_POINT('',(12.615,32.075,2.65));
#2208=CARTESIAN_POINT('',(13.265,32.075,2.65));
#2209=CARTESIAN_POINT('Origin',(18.345,32.725,2.65));
#2210=CARTESIAN_POINT('',(18.345,32.075,6.65));
#2211=CARTESIAN_POINT('',(18.345,32.075,2.65));
#2212=CARTESIAN_POINT('',(18.345,32.725,6.65));
#2213=CARTESIAN_POINT('',(18.345,32.725,6.65));
#2214=CARTESIAN_POINT('',(18.345,32.725,2.65));
#2215=CARTESIAN_POINT('Origin',(18.345,32.075,2.65));
#2216=CARTESIAN_POINT('',(17.695,32.075,6.65));
#2217=CARTESIAN_POINT('',(17.695,32.075,2.65));
#2218=CARTESIAN_POINT('',(18.345,32.075,6.65));
#2219=CARTESIAN_POINT('Origin',(17.695,32.075,2.65));
#2220=CARTESIAN_POINT('',(17.695,32.725,6.65));
#2221=CARTESIAN_POINT('',(17.695,32.725,2.65));
#2222=CARTESIAN_POINT('',(17.695,32.075,6.65));
#2223=CARTESIAN_POINT('Origin',(17.695,32.725,2.65));
#2224=CARTESIAN_POINT('',(17.695,32.725,6.65));
#2225=CARTESIAN_POINT('Origin',(15.805,32.725,2.65));
#2226=CARTESIAN_POINT('',(15.805,32.075,6.65));
#2227=CARTESIAN_POINT('',(15.805,32.075,2.65));
#2228=CARTESIAN_POINT('',(15.805,32.725,6.65));
#2229=CARTESIAN_POINT('',(15.805,32.725,6.65));
#2230=CARTESIAN_POINT('',(15.805,32.725,2.65));
#2231=CARTESIAN_POINT('Origin',(15.805,32.075,2.65));
#2232=CARTESIAN_POINT('',(15.155,32.075,6.65));
#2233=CARTESIAN_POINT('',(15.155,32.075,2.65));
#2234=CARTESIAN_POINT('',(15.805,32.075,6.65));
#2235=CARTESIAN_POINT('Origin',(15.155,32.075,2.65));
#2236=CARTESIAN_POINT('',(15.155,32.725,6.65));
#2237=CARTESIAN_POINT('',(15.155,32.725,2.65));
#2238=CARTESIAN_POINT('',(15.155,32.075,6.65));
#2239=CARTESIAN_POINT('Origin',(15.155,32.725,2.65));
#2240=CARTESIAN_POINT('',(15.155,32.725,6.65));
#2241=CARTESIAN_POINT('Origin',(0.249999999999999,4.85,2.65));
#2242=CARTESIAN_POINT('',(0.249999999999999,28.85,6.65));
#2243=CARTESIAN_POINT('',(0.249999999999999,28.85,2.65));
#2244=CARTESIAN_POINT('',(0.249999999999999,4.85,6.65));
#2245=CARTESIAN_POINT('',(0.249999999999999,4.85,6.65));
#2246=CARTESIAN_POINT('',(0.249999999999999,4.85,2.65));
#2247=CARTESIAN_POINT('Origin',(0.249999999999999,28.85,2.65));
#2248=CARTESIAN_POINT('',(33.25,28.85,6.65));
#2249=CARTESIAN_POINT('',(33.25,28.85,2.65));
#2250=CARTESIAN_POINT('',(0.249999999999999,28.85,6.65));
#2251=CARTESIAN_POINT('Origin',(33.25,28.85,2.65));
#2252=CARTESIAN_POINT('',(33.25,4.85,6.65));
#2253=CARTESIAN_POINT('',(33.25,4.85,2.65));
#2254=CARTESIAN_POINT('',(33.25,28.85,6.65));
#2255=CARTESIAN_POINT('Origin',(33.25,4.85,2.65));
#2256=CARTESIAN_POINT('',(33.25,4.85,6.65));
#2257=CARTESIAN_POINT('Origin',(20.885,32.725,2.65));
#2258=CARTESIAN_POINT('',(20.885,32.075,6.65));
#2259=CARTESIAN_POINT('',(20.885,32.075,2.65));
#2260=CARTESIAN_POINT('',(20.885,32.725,6.65));
#2261=CARTESIAN_POINT('',(20.885,32.725,6.65));
#2262=CARTESIAN_POINT('',(20.885,32.725,2.65));
#2263=CARTESIAN_POINT('Origin',(20.885,32.075,2.65));
#2264=CARTESIAN_POINT('',(20.235,32.075,6.65));
#2265=CARTESIAN_POINT('',(20.235,32.075,2.65));
#2266=CARTESIAN_POINT('',(20.885,32.075,6.65));
#2267=CARTESIAN_POINT('Origin',(20.235,32.075,2.65));
#2268=CARTESIAN_POINT('',(20.235,32.725,6.65));
#2269=CARTESIAN_POINT('',(20.235,32.725,2.65));
#2270=CARTESIAN_POINT('',(20.235,32.075,6.65));
#2271=CARTESIAN_POINT('Origin',(20.235,32.725,2.65));
#2272=CARTESIAN_POINT('',(20.235,32.725,6.65));
#2273=CARTESIAN_POINT('Origin',(13.265,32.725,2.65));
#2274=CARTESIAN_POINT('',(13.265,32.075,6.65));
#2275=CARTESIAN_POINT('',(13.265,32.075,2.65));
#2276=CARTESIAN_POINT('',(13.265,32.725,6.65));
#2277=CARTESIAN_POINT('',(13.265,32.725,6.65));
#2278=CARTESIAN_POINT('',(13.265,32.725,2.65));
#2279=CARTESIAN_POINT('Origin',(13.265,32.075,2.65));
#2280=CARTESIAN_POINT('',(12.615,32.075,6.65));
#2281=CARTESIAN_POINT('',(12.615,32.075,2.65));
#2282=CARTESIAN_POINT('',(13.265,32.075,6.65));
#2283=CARTESIAN_POINT('Origin',(12.615,32.075,2.65));
#2284=CARTESIAN_POINT('',(12.615,32.725,6.65));
#2285=CARTESIAN_POINT('',(12.615,32.725,2.65));
#2286=CARTESIAN_POINT('',(12.615,32.075,6.65));
#2287=CARTESIAN_POINT('Origin',(12.615,32.725,2.65));
#2288=CARTESIAN_POINT('',(12.615,32.725,6.65));
#2289=CARTESIAN_POINT('Origin',(16.75,16.85,6.65));
#2290=CARTESIAN_POINT('Origin',(37.75,16.85,-20.35));
#2291=CARTESIAN_POINT('Origin',(41.75,41.85,-43.35));
#2292=CARTESIAN_POINT('Origin',(44.75,16.85,-18.35));
#2293=CARTESIAN_POINT('',(44.75,16.85,-11.35));
#2294=UNCERTAINTY_MEASURE_WITH_UNIT(LENGTH_MEASURE(0.01),#2298,
'DISTANCE_ACCURACY_VALUE',
'Maximum model space distance between geometric entities at asserted c
onnectivities');
#2295=UNCERTAINTY_MEASURE_WITH_UNIT(LENGTH_MEASURE(0.01),#2298,
'DISTANCE_ACCURACY_VALUE',
'Maximum model space distance between geometric entities at asserted c
onnectivities');
#2296=(
GEOMETRIC_REPRESENTATION_CONTEXT(3)
GLOBAL_UNCERTAINTY_ASSIGNED_CONTEXT((#2294))
GLOBAL_UNIT_ASSIGNED_CONTEXT((#2298,#2300,#2301))
REPRESENTATION_CONTEXT('','3D')
);
#2297=(
GEOMETRIC_REPRESENTATION_CONTEXT(3)
GLOBAL_UNCERTAINTY_ASSIGNED_CONTEXT((#2295))
GLOBAL_UNIT_ASSIGNED_CONTEXT((#2298,#2300,#2301))
REPRESENTATION_CONTEXT('','3D')
);
#2298=(
LENGTH_UNIT()
NAMED_UNIT(*)
SI_UNIT(.MILLI.,.METRE.)
);
#2299=(
LENGTH_UNIT()
NAMED_UNIT(*)
SI_UNIT($,.METRE.)
);
#2300=(
NAMED_UNIT(*)
PLANE_ANGLE_UNIT()
SI_UNIT($,.RADIAN.)
);
#2301=(
NAMED_UNIT(*)
SI_UNIT($,.STERADIAN.)
SOLID_ANGLE_UNIT()
);
#2302=SHAPE_DEFINITION_REPRESENTATION(#2303,#2304);
#2303=PRODUCT_DEFINITION_SHAPE('',$,#2306);
#2304=SHAPE_REPRESENTATION('',(#1410),#2296);
#2305=PRODUCT_DEFINITION_CONTEXT('part definition',#2310,'design');
#2306=PRODUCT_DEFINITION('head','head',#2307,#2305);
#2307=PRODUCT_DEFINITION_FORMATION('',$,#2312);
#2308=PRODUCT_RELATED_PRODUCT_CATEGORY('head','head',(#2312));
#2309=APPLICATION_PROTOCOL_DEFINITION('international standard',
'automotive_design',2009,#2310);
#2310=APPLICATION_CONTEXT(
'Core Data for Automotive Mechanical Design Process');
#2311=PRODUCT_CONTEXT('part definition',#2310,'mechanical');
#2312=PRODUCT('head','head',$,(#2311));
#2313=PRESENTATION_STYLE_ASSIGNMENT((#2314));
#2314=SURFACE_STYLE_USAGE(.BOTH.,#2315);
#2315=SURFACE_SIDE_STYLE('',(#2316));
#2316=SURFACE_STYLE_FILL_AREA(#2317);
#2317=FILL_AREA_STYLE('Steel - Satin',(#2318));
#2318=FILL_AREA_STYLE_COLOUR('Steel - Satin',#2319);
#2319=COLOUR_RGB('Steel - Satin',0.627450980392157,0.627450980392157,0.627450980392157);
ENDSEC;
END-ISO-10303-21;
