ISO-10303-21;
HEADER;
/* Generated by software containing ST-Developer
 * from STEP Tools, Inc. (www.steptools.com) 
 */

FILE_DESCRIPTION(
/* description */ (''),
/* implementation_level */ '2;1');

FILE_NAME(
/* name */ 'lefthand.step',
/* time_stamp */ '2026-04-12T13:08:36+05:30',
/* author */ (''),
/* organization */ (''),
/* preprocessor_version */ 'ST-DEVELOPER v20.1',
/* originating_system */ 'Autodesk Translation Framework v14.24.0.0',
/* authorisation */ '');

FILE_SCHEMA (('AUTOMOTIVE_DESIGN { 1 0 10303 214 3 1 1 }'));
ENDSEC;

DATA;
#10=MECHANICAL_DESIGN_GEOMETRIC_PRESENTATION_REPRESENTATION('',(#13),#987);
#11=SHAPE_REPRESENTATION_RELATIONSHIP('SRR','None',#994,#12);
#12=ADVANCED_BREP_SHAPE_REPRESENTATION('',(#14),#986);
#13=STYLED_ITEM('',(#1004),#14);
#14=MANIFOLD_SOLID_BREP('Body1',#571);
#15=CYLINDRICAL_SURFACE('',#596,10.);
#16=CYLINDRICAL_SURFACE('',#602,14.);
#17=CYLINDRICAL_SURFACE('',#604,8.57074048706363);
#18=CYLINDRICAL_SURFACE('',#606,8.57074048706363);
#19=CYLINDRICAL_SURFACE('',#609,12.5062230354262);
#20=CYLINDRICAL_SURFACE('',#612,15.5);
#21=CYLINDRICAL_SURFACE('',#616,3.4);
#22=CYLINDRICAL_SURFACE('',#620,1.80000000000018);
#23=CYLINDRICAL_SURFACE('',#633,2.4);
#24=CYLINDRICAL_SURFACE('',#643,0.499999999999998);
#25=CYLINDRICAL_SURFACE('',#644,0.499999999999998);
#26=CYLINDRICAL_SURFACE('',#645,0.499999999999998);
#27=CYLINDRICAL_SURFACE('',#646,0.499999999999998);
#28=CYLINDRICAL_SURFACE('',#647,0.499999999999998);
#29=CYLINDRICAL_SURFACE('',#648,0.499999999999998);
#30=CYLINDRICAL_SURFACE('',#649,0.499999999999998);
#31=FACE_BOUND('',#78,.T.);
#32=FACE_BOUND('',#97,.T.);
#33=FACE_BOUND('',#98,.T.);
#34=FACE_BOUND('',#99,.T.);
#35=FACE_BOUND('',#100,.T.);
#36=FACE_BOUND('',#101,.T.);
#37=FACE_BOUND('',#102,.T.);
#38=FACE_BOUND('',#103,.T.);
#39=FACE_BOUND('',#105,.T.);
#40=FACE_BOUND('',#108,.T.);
#41=FACE_BOUND('',#109,.T.);
#42=FACE_BOUND('',#110,.T.);
#43=FACE_BOUND('',#111,.T.);
#44=FACE_BOUND('',#112,.T.);
#45=FACE_BOUND('',#113,.T.);
#46=FACE_BOUND('',#114,.T.);
#47=FACE_BOUND('',#115,.T.);
#48=FACE_OUTER_BOUND('',#77,.T.);
#49=FACE_OUTER_BOUND('',#79,.T.);
#50=FACE_OUTER_BOUND('',#80,.T.);
#51=FACE_OUTER_BOUND('',#81,.T.);
#52=FACE_OUTER_BOUND('',#82,.T.);
#53=FACE_OUTER_BOUND('',#83,.T.);
#54=FACE_OUTER_BOUND('',#84,.T.);
#55=FACE_OUTER_BOUND('',#85,.T.);
#56=FACE_OUTER_BOUND('',#86,.T.);
#57=FACE_OUTER_BOUND('',#87,.T.);
#58=FACE_OUTER_BOUND('',#88,.T.);
#59=FACE_OUTER_BOUND('',#89,.T.);
#60=FACE_OUTER_BOUND('',#90,.T.);
#61=FACE_OUTER_BOUND('',#91,.T.);
#62=FACE_OUTER_BOUND('',#92,.T.);
#63=FACE_OUTER_BOUND('',#93,.T.);
#64=FACE_OUTER_BOUND('',#94,.T.);
#65=FACE_OUTER_BOUND('',#95,.T.);
#66=FACE_OUTER_BOUND('',#96,.T.);
#67=FACE_OUTER_BOUND('',#104,.T.);
#68=FACE_OUTER_BOUND('',#106,.T.);
#69=FACE_OUTER_BOUND('',#107,.T.);
#70=FACE_OUTER_BOUND('',#116,.T.);
#71=FACE_OUTER_BOUND('',#117,.T.);
#72=FACE_OUTER_BOUND('',#118,.T.);
#73=FACE_OUTER_BOUND('',#119,.T.);
#74=FACE_OUTER_BOUND('',#120,.T.);
#75=FACE_OUTER_BOUND('',#121,.T.);
#76=FACE_OUTER_BOUND('',#122,.T.);
#77=EDGE_LOOP('',(#373,#374,#375,#376,#377,#378,#379,#380,#381,#382,#383,
#384,#385));
#78=EDGE_LOOP('',(#386,#387,#388,#389,#390));
#79=EDGE_LOOP('',(#391,#392,#393,#394));
#80=EDGE_LOOP('',(#395,#396,#397,#398));
#81=EDGE_LOOP('',(#399,#400,#401,#402));
#82=EDGE_LOOP('',(#403,#404,#405,#406));
#83=EDGE_LOOP('',(#407,#408,#409,#410,#411,#412,#413,#414));
#84=EDGE_LOOP('',(#415,#416,#417,#418));
#85=EDGE_LOOP('',(#419,#420,#421,#422));
#86=EDGE_LOOP('',(#423,#424,#425,#426));
#87=EDGE_LOOP('',(#427,#428,#429,#430));
#88=EDGE_LOOP('',(#431,#432,#433,#434));
#89=EDGE_LOOP('',(#435,#436,#437,#438));
#90=EDGE_LOOP('',(#439,#440,#441,#442));
#91=EDGE_LOOP('',(#443,#444,#445,#446));
#92=EDGE_LOOP('',(#447,#448,#449,#450,#451,#452,#453,#454));
#93=EDGE_LOOP('',(#455,#456,#457,#458));
#94=EDGE_LOOP('',(#459,#460,#461,#462));
#95=EDGE_LOOP('',(#463,#464,#465,#466));
#96=EDGE_LOOP('',(#467,#468,#469,#470));
#97=EDGE_LOOP('',(#471));
#98=EDGE_LOOP('',(#472));
#99=EDGE_LOOP('',(#473));
#100=EDGE_LOOP('',(#474));
#101=EDGE_LOOP('',(#475));
#102=EDGE_LOOP('',(#476));
#103=EDGE_LOOP('',(#477));
#104=EDGE_LOOP('',(#478));
#105=EDGE_LOOP('',(#479));
#106=EDGE_LOOP('',(#480,#481,#482,#483));
#107=EDGE_LOOP('',(#484,#485,#486,#487,#488,#489,#490,#491,#492));
#108=EDGE_LOOP('',(#493));
#109=EDGE_LOOP('',(#494));
#110=EDGE_LOOP('',(#495));
#111=EDGE_LOOP('',(#496));
#112=EDGE_LOOP('',(#497));
#113=EDGE_LOOP('',(#498));
#114=EDGE_LOOP('',(#499));
#115=EDGE_LOOP('',(#500));
#116=EDGE_LOOP('',(#501,#502,#503,#504));
#117=EDGE_LOOP('',(#505,#506,#507,#508));
#118=EDGE_LOOP('',(#509,#510,#511,#512));
#119=EDGE_LOOP('',(#513,#514,#515,#516));
#120=EDGE_LOOP('',(#517,#518,#519,#520));
#121=EDGE_LOOP('',(#521,#522,#523,#524));
#122=EDGE_LOOP('',(#525,#526,#527,#528));
#123=LINE('',#830,#165);
#124=LINE('',#832,#166);
#125=LINE('',#836,#167);
#126=LINE('',#840,#168);
#127=LINE('',#846,#169);
#128=LINE('',#850,#170);
#129=LINE('',#854,#171);
#130=LINE('',#858,#172);
#131=LINE('',#866,#173);
#132=LINE('',#867,#174);
#133=LINE('',#870,#175);
#134=LINE('',#871,#176);
#135=LINE('',#875,#177);
#136=LINE('',#877,#178);
#137=LINE('',#880,#179);
#138=LINE('',#883,#180);
#139=LINE('',#887,#181);
#140=LINE('',#890,#182);
#141=LINE('',#894,#183);
#142=LINE('',#895,#184);
#143=LINE('',#899,#185);
#144=LINE('',#902,#186);
#145=LINE('',#903,#187);
#146=LINE('',#907,#188);
#147=LINE('',#910,#189);
#148=LINE('',#911,#190);
#149=LINE('',#913,#191);
#150=LINE('',#917,#192);
#151=LINE('',#919,#193);
#152=LINE('',#922,#194);
#153=LINE('',#925,#195);
#154=LINE('',#926,#196);
#155=LINE('',#930,#197);
#156=LINE('',#932,#198);
#157=LINE('',#953,#199);
#158=LINE('',#971,#200);
#159=LINE('',#973,#201);
#160=LINE('',#975,#202);
#161=LINE('',#977,#203);
#162=LINE('',#979,#204);
#163=LINE('',#981,#205);
#164=LINE('',#983,#206);
#165=VECTOR('',#656,10.);
#166=VECTOR('',#657,10.);
#167=VECTOR('',#660,10.);
#168=VECTOR('',#663,10.);
#169=VECTOR('',#668,10.);
#170=VECTOR('',#671,10.);
#171=VECTOR('',#674,10.);
#172=VECTOR('',#677,10.);
#173=VECTOR('',#686,10.);
#174=VECTOR('',#687,10.);
#175=VECTOR('',#690,10.);
#176=VECTOR('',#691,10.);
#177=VECTOR('',#696,10.);
#178=VECTOR('',#699,10.);
#179=VECTOR('',#702,10.);
#180=VECTOR('',#705,10.);
#181=VECTOR('',#710,10.);
#182=VECTOR('',#713,10.);
#183=VECTOR('',#718,10.);
#184=VECTOR('',#719,10.);
#185=VECTOR('',#724,10.);
#186=VECTOR('',#727,10.);
#187=VECTOR('',#728,10.);
#188=VECTOR('',#733,10.);
#189=VECTOR('',#736,10.);
#190=VECTOR('',#737,10.);
#191=VECTOR('',#740,10.);
#192=VECTOR('',#745,3.4);
#193=VECTOR('',#746,10.);
#194=VECTOR('',#749,10.);
#195=VECTOR('',#752,10.);
#196=VECTOR('',#753,10.);
#197=VECTOR('',#758,10.);
#198=VECTOR('',#761,10.);
#199=VECTOR('',#784,2.4);
#200=VECTOR('',#805,0.499999999999998);
#201=VECTOR('',#808,0.499999999999998);
#202=VECTOR('',#811,0.499999999999998);
#203=VECTOR('',#814,0.499999999999998);
#204=VECTOR('',#817,0.499999999999998);
#205=VECTOR('',#820,0.499999999999998);
#206=VECTOR('',#823,0.499999999999998);
#207=CIRCLE('',#586,8.57074048706363);
#208=CIRCLE('',#587,15.5);
#209=CIRCLE('',#588,12.5062230354262);
#210=CIRCLE('',#589,8.57074048706363);
#211=CIRCLE('',#590,14.);
#212=CIRCLE('',#591,10.);
#213=CIRCLE('',#592,14.);
#214=CIRCLE('',#593,1.80000000000018);
#215=CIRCLE('',#594,3.4);
#216=CIRCLE('',#595,3.4);
#217=CIRCLE('',#597,10.);
#218=CIRCLE('',#600,14.);
#219=CIRCLE('',#603,14.);
#220=CIRCLE('',#605,8.57074048706363);
#221=CIRCLE('',#607,8.57074048706363);
#222=CIRCLE('',#610,12.5062230354262);
#223=CIRCLE('',#613,15.5);
#224=CIRCLE('',#617,3.4);
#225=CIRCLE('',#618,3.4);
#226=CIRCLE('',#621,1.80000000000018);
#227=CIRCLE('',#624,0.499999999999998);
#228=CIRCLE('',#625,0.499999999999998);
#229=CIRCLE('',#626,0.499999999999998);
#230=CIRCLE('',#627,0.499999999999998);
#231=CIRCLE('',#628,0.499999999999998);
#232=CIRCLE('',#629,0.499999999999998);
#233=CIRCLE('',#630,0.499999999999998);
#234=CIRCLE('',#632,2.4);
#235=CIRCLE('',#634,2.4);
#236=CIRCLE('',#636,0.499999999999998);
#237=CIRCLE('',#637,0.499999999999998);
#238=CIRCLE('',#638,0.499999999999998);
#239=CIRCLE('',#639,0.499999999999998);
#240=CIRCLE('',#640,0.499999999999998);
#241=CIRCLE('',#641,0.499999999999998);
#242=CIRCLE('',#642,0.499999999999998);
#243=VERTEX_POINT('',#826);
#244=VERTEX_POINT('',#827);
#245=VERTEX_POINT('',#829);
#246=VERTEX_POINT('',#831);
#247=VERTEX_POINT('',#833);
#248=VERTEX_POINT('',#835);
#249=VERTEX_POINT('',#837);
#250=VERTEX_POINT('',#839);
#251=VERTEX_POINT('',#841);
#252=VERTEX_POINT('',#843);
#253=VERTEX_POINT('',#845);
#254=VERTEX_POINT('',#847);
#255=VERTEX_POINT('',#849);
#256=VERTEX_POINT('',#852);
#257=VERTEX_POINT('',#853);
#258=VERTEX_POINT('',#855);
#259=VERTEX_POINT('',#857);
#260=VERTEX_POINT('',#859);
#261=VERTEX_POINT('',#863);
#262=VERTEX_POINT('',#864);
#263=VERTEX_POINT('',#869);
#264=VERTEX_POINT('',#873);
#265=VERTEX_POINT('',#879);
#266=VERTEX_POINT('',#881);
#267=VERTEX_POINT('',#885);
#268=VERTEX_POINT('',#889);
#269=VERTEX_POINT('',#893);
#270=VERTEX_POINT('',#897);
#271=VERTEX_POINT('',#901);
#272=VERTEX_POINT('',#905);
#273=VERTEX_POINT('',#909);
#274=VERTEX_POINT('',#915);
#275=VERTEX_POINT('',#918);
#276=VERTEX_POINT('',#920);
#277=VERTEX_POINT('',#924);
#278=VERTEX_POINT('',#928);
#279=VERTEX_POINT('',#934);
#280=VERTEX_POINT('',#936);
#281=VERTEX_POINT('',#938);
#282=VERTEX_POINT('',#940);
#283=VERTEX_POINT('',#942);
#284=VERTEX_POINT('',#944);
#285=VERTEX_POINT('',#946);
#286=VERTEX_POINT('',#949);
#287=VERTEX_POINT('',#952);
#288=VERTEX_POINT('',#956);
#289=VERTEX_POINT('',#958);
#290=VERTEX_POINT('',#960);
#291=VERTEX_POINT('',#962);
#292=VERTEX_POINT('',#964);
#293=VERTEX_POINT('',#966);
#294=VERTEX_POINT('',#968);
#295=EDGE_CURVE('',#243,#244,#207,.T.);
#296=EDGE_CURVE('',#244,#245,#123,.T.);
#297=EDGE_CURVE('',#245,#246,#124,.T.);
#298=EDGE_CURVE('',#246,#247,#208,.T.);
#299=EDGE_CURVE('',#247,#248,#125,.T.);
#300=EDGE_CURVE('',#248,#249,#209,.T.);
#301=EDGE_CURVE('',#249,#250,#126,.T.);
#302=EDGE_CURVE('',#250,#251,#210,.T.);
#303=EDGE_CURVE('',#251,#252,#211,.T.);
#304=EDGE_CURVE('',#253,#252,#127,.T.);
#305=EDGE_CURVE('',#254,#253,#212,.T.);
#306=EDGE_CURVE('',#255,#254,#128,.T.);
#307=EDGE_CURVE('',#255,#243,#213,.T.);
#308=EDGE_CURVE('',#256,#257,#129,.T.);
#309=EDGE_CURVE('',#257,#258,#214,.T.);
#310=EDGE_CURVE('',#258,#259,#130,.T.);
#311=EDGE_CURVE('',#259,#260,#215,.T.);
#312=EDGE_CURVE('',#260,#256,#216,.T.);
#313=EDGE_CURVE('',#261,#262,#217,.T.);
#314=EDGE_CURVE('',#254,#261,#131,.T.);
#315=EDGE_CURVE('',#253,#262,#132,.T.);
#316=EDGE_CURVE('',#263,#261,#133,.T.);
#317=EDGE_CURVE('',#255,#263,#134,.T.);
#318=EDGE_CURVE('',#264,#263,#218,.T.);
#319=EDGE_CURVE('',#262,#264,#135,.T.);
#320=EDGE_CURVE('',#252,#264,#136,.T.);
#321=EDGE_CURVE('',#265,#251,#137,.T.);
#322=EDGE_CURVE('',#266,#265,#219,.T.);
#323=EDGE_CURVE('',#243,#266,#138,.T.);
#324=EDGE_CURVE('',#267,#266,#220,.T.);
#325=EDGE_CURVE('',#267,#244,#139,.T.);
#326=EDGE_CURVE('',#268,#250,#140,.T.);
#327=EDGE_CURVE('',#265,#268,#221,.T.);
#328=EDGE_CURVE('',#268,#269,#141,.T.);
#329=EDGE_CURVE('',#269,#249,#142,.T.);
#330=EDGE_CURVE('',#269,#270,#222,.T.);
#331=EDGE_CURVE('',#270,#248,#143,.T.);
#332=EDGE_CURVE('',#270,#271,#144,.T.);
#333=EDGE_CURVE('',#271,#247,#145,.T.);
#334=EDGE_CURVE('',#271,#272,#223,.T.);
#335=EDGE_CURVE('',#272,#246,#146,.T.);
#336=EDGE_CURVE('',#272,#273,#147,.T.);
#337=EDGE_CURVE('',#273,#245,#148,.T.);
#338=EDGE_CURVE('',#267,#273,#149,.T.);
#339=EDGE_CURVE('',#274,#274,#224,.T.);
#340=EDGE_CURVE('',#274,#260,#150,.T.);
#341=EDGE_CURVE('',#275,#259,#151,.T.);
#342=EDGE_CURVE('',#276,#275,#225,.T.);
#343=EDGE_CURVE('',#276,#256,#152,.T.);
#344=EDGE_CURVE('',#277,#276,#153,.T.);
#345=EDGE_CURVE('',#277,#257,#154,.T.);
#346=EDGE_CURVE('',#278,#277,#226,.T.);
#347=EDGE_CURVE('',#278,#258,#155,.T.);
#348=EDGE_CURVE('',#275,#278,#156,.T.);
#349=EDGE_CURVE('',#279,#279,#227,.T.);
#350=EDGE_CURVE('',#280,#280,#228,.T.);
#351=EDGE_CURVE('',#281,#281,#229,.T.);
#352=EDGE_CURVE('',#282,#282,#230,.T.);
#353=EDGE_CURVE('',#283,#283,#231,.T.);
#354=EDGE_CURVE('',#284,#284,#232,.T.);
#355=EDGE_CURVE('',#285,#285,#233,.T.);
#356=EDGE_CURVE('',#286,#286,#234,.T.);
#357=EDGE_CURVE('',#286,#287,#157,.T.);
#358=EDGE_CURVE('',#287,#287,#235,.T.);
#359=EDGE_CURVE('',#288,#288,#236,.T.);
#360=EDGE_CURVE('',#289,#289,#237,.T.);
#361=EDGE_CURVE('',#290,#290,#238,.T.);
#362=EDGE_CURVE('',#291,#291,#239,.T.);
#363=EDGE_CURVE('',#292,#292,#240,.T.);
#364=EDGE_CURVE('',#293,#293,#241,.T.);
#365=EDGE_CURVE('',#294,#294,#242,.T.);
#366=EDGE_CURVE('',#282,#294,#158,.T.);
#367=EDGE_CURVE('',#281,#293,#159,.T.);
#368=EDGE_CURVE('',#285,#292,#160,.T.);
#369=EDGE_CURVE('',#279,#291,#161,.T.);
#370=EDGE_CURVE('',#280,#290,#162,.T.);
#371=EDGE_CURVE('',#284,#289,#163,.T.);
#372=EDGE_CURVE('',#283,#288,#164,.T.);
#373=ORIENTED_EDGE('',*,*,#295,.T.);
#374=ORIENTED_EDGE('',*,*,#296,.T.);
#375=ORIENTED_EDGE('',*,*,#297,.T.);
#376=ORIENTED_EDGE('',*,*,#298,.T.);
#377=ORIENTED_EDGE('',*,*,#299,.T.);
#378=ORIENTED_EDGE('',*,*,#300,.T.);
#379=ORIENTED_EDGE('',*,*,#301,.T.);
#380=ORIENTED_EDGE('',*,*,#302,.T.);
#381=ORIENTED_EDGE('',*,*,#303,.T.);
#382=ORIENTED_EDGE('',*,*,#304,.F.);
#383=ORIENTED_EDGE('',*,*,#305,.F.);
#384=ORIENTED_EDGE('',*,*,#306,.F.);
#385=ORIENTED_EDGE('',*,*,#307,.T.);
#386=ORIENTED_EDGE('',*,*,#308,.T.);
#387=ORIENTED_EDGE('',*,*,#309,.T.);
#388=ORIENTED_EDGE('',*,*,#310,.T.);
#389=ORIENTED_EDGE('',*,*,#311,.T.);
#390=ORIENTED_EDGE('',*,*,#312,.T.);
#391=ORIENTED_EDGE('',*,*,#313,.F.);
#392=ORIENTED_EDGE('',*,*,#314,.F.);
#393=ORIENTED_EDGE('',*,*,#305,.T.);
#394=ORIENTED_EDGE('',*,*,#315,.T.);
#395=ORIENTED_EDGE('',*,*,#306,.T.);
#396=ORIENTED_EDGE('',*,*,#314,.T.);
#397=ORIENTED_EDGE('',*,*,#316,.F.);
#398=ORIENTED_EDGE('',*,*,#317,.F.);
#399=ORIENTED_EDGE('',*,*,#318,.T.);
#400=ORIENTED_EDGE('',*,*,#316,.T.);
#401=ORIENTED_EDGE('',*,*,#313,.T.);
#402=ORIENTED_EDGE('',*,*,#319,.T.);
#403=ORIENTED_EDGE('',*,*,#304,.T.);
#404=ORIENTED_EDGE('',*,*,#320,.T.);
#405=ORIENTED_EDGE('',*,*,#319,.F.);
#406=ORIENTED_EDGE('',*,*,#315,.F.);
#407=ORIENTED_EDGE('',*,*,#303,.F.);
#408=ORIENTED_EDGE('',*,*,#321,.F.);
#409=ORIENTED_EDGE('',*,*,#322,.F.);
#410=ORIENTED_EDGE('',*,*,#323,.F.);
#411=ORIENTED_EDGE('',*,*,#307,.F.);
#412=ORIENTED_EDGE('',*,*,#317,.T.);
#413=ORIENTED_EDGE('',*,*,#318,.F.);
#414=ORIENTED_EDGE('',*,*,#320,.F.);
#415=ORIENTED_EDGE('',*,*,#323,.T.);
#416=ORIENTED_EDGE('',*,*,#324,.F.);
#417=ORIENTED_EDGE('',*,*,#325,.T.);
#418=ORIENTED_EDGE('',*,*,#295,.F.);
#419=ORIENTED_EDGE('',*,*,#321,.T.);
#420=ORIENTED_EDGE('',*,*,#302,.F.);
#421=ORIENTED_EDGE('',*,*,#326,.F.);
#422=ORIENTED_EDGE('',*,*,#327,.F.);
#423=ORIENTED_EDGE('',*,*,#328,.F.);
#424=ORIENTED_EDGE('',*,*,#326,.T.);
#425=ORIENTED_EDGE('',*,*,#301,.F.);
#426=ORIENTED_EDGE('',*,*,#329,.F.);
#427=ORIENTED_EDGE('',*,*,#330,.F.);
#428=ORIENTED_EDGE('',*,*,#329,.T.);
#429=ORIENTED_EDGE('',*,*,#300,.F.);
#430=ORIENTED_EDGE('',*,*,#331,.F.);
#431=ORIENTED_EDGE('',*,*,#332,.F.);
#432=ORIENTED_EDGE('',*,*,#331,.T.);
#433=ORIENTED_EDGE('',*,*,#299,.F.);
#434=ORIENTED_EDGE('',*,*,#333,.F.);
#435=ORIENTED_EDGE('',*,*,#334,.F.);
#436=ORIENTED_EDGE('',*,*,#333,.T.);
#437=ORIENTED_EDGE('',*,*,#298,.F.);
#438=ORIENTED_EDGE('',*,*,#335,.F.);
#439=ORIENTED_EDGE('',*,*,#336,.F.);
#440=ORIENTED_EDGE('',*,*,#335,.T.);
#441=ORIENTED_EDGE('',*,*,#297,.F.);
#442=ORIENTED_EDGE('',*,*,#337,.F.);
#443=ORIENTED_EDGE('',*,*,#338,.T.);
#444=ORIENTED_EDGE('',*,*,#337,.T.);
#445=ORIENTED_EDGE('',*,*,#296,.F.);
#446=ORIENTED_EDGE('',*,*,#325,.F.);
#447=ORIENTED_EDGE('',*,*,#339,.F.);
#448=ORIENTED_EDGE('',*,*,#340,.T.);
#449=ORIENTED_EDGE('',*,*,#311,.F.);
#450=ORIENTED_EDGE('',*,*,#341,.F.);
#451=ORIENTED_EDGE('',*,*,#342,.F.);
#452=ORIENTED_EDGE('',*,*,#343,.T.);
#453=ORIENTED_EDGE('',*,*,#312,.F.);
#454=ORIENTED_EDGE('',*,*,#340,.F.);
#455=ORIENTED_EDGE('',*,*,#344,.F.);
#456=ORIENTED_EDGE('',*,*,#345,.T.);
#457=ORIENTED_EDGE('',*,*,#308,.F.);
#458=ORIENTED_EDGE('',*,*,#343,.F.);
#459=ORIENTED_EDGE('',*,*,#346,.F.);
#460=ORIENTED_EDGE('',*,*,#347,.T.);
#461=ORIENTED_EDGE('',*,*,#309,.F.);
#462=ORIENTED_EDGE('',*,*,#345,.F.);
#463=ORIENTED_EDGE('',*,*,#348,.F.);
#464=ORIENTED_EDGE('',*,*,#341,.T.);
#465=ORIENTED_EDGE('',*,*,#310,.F.);
#466=ORIENTED_EDGE('',*,*,#347,.F.);
#467=ORIENTED_EDGE('',*,*,#348,.T.);
#468=ORIENTED_EDGE('',*,*,#346,.T.);
#469=ORIENTED_EDGE('',*,*,#344,.T.);
#470=ORIENTED_EDGE('',*,*,#342,.T.);
#471=ORIENTED_EDGE('',*,*,#349,.F.);
#472=ORIENTED_EDGE('',*,*,#350,.F.);
#473=ORIENTED_EDGE('',*,*,#351,.F.);
#474=ORIENTED_EDGE('',*,*,#352,.F.);
#475=ORIENTED_EDGE('',*,*,#353,.F.);
#476=ORIENTED_EDGE('',*,*,#354,.F.);
#477=ORIENTED_EDGE('',*,*,#355,.F.);
#478=ORIENTED_EDGE('',*,*,#339,.T.);
#479=ORIENTED_EDGE('',*,*,#356,.F.);
#480=ORIENTED_EDGE('',*,*,#356,.T.);
#481=ORIENTED_EDGE('',*,*,#357,.T.);
#482=ORIENTED_EDGE('',*,*,#358,.F.);
#483=ORIENTED_EDGE('',*,*,#357,.F.);
#484=ORIENTED_EDGE('',*,*,#322,.T.);
#485=ORIENTED_EDGE('',*,*,#327,.T.);
#486=ORIENTED_EDGE('',*,*,#328,.T.);
#487=ORIENTED_EDGE('',*,*,#330,.T.);
#488=ORIENTED_EDGE('',*,*,#332,.T.);
#489=ORIENTED_EDGE('',*,*,#334,.T.);
#490=ORIENTED_EDGE('',*,*,#336,.T.);
#491=ORIENTED_EDGE('',*,*,#338,.F.);
#492=ORIENTED_EDGE('',*,*,#324,.T.);
#493=ORIENTED_EDGE('',*,*,#359,.T.);
#494=ORIENTED_EDGE('',*,*,#360,.T.);
#495=ORIENTED_EDGE('',*,*,#361,.T.);
#496=ORIENTED_EDGE('',*,*,#362,.T.);
#497=ORIENTED_EDGE('',*,*,#363,.T.);
#498=ORIENTED_EDGE('',*,*,#364,.T.);
#499=ORIENTED_EDGE('',*,*,#365,.T.);
#500=ORIENTED_EDGE('',*,*,#358,.T.);
#501=ORIENTED_EDGE('',*,*,#352,.T.);
#502=ORIENTED_EDGE('',*,*,#366,.T.);
#503=ORIENTED_EDGE('',*,*,#365,.F.);
#504=ORIENTED_EDGE('',*,*,#366,.F.);
#505=ORIENTED_EDGE('',*,*,#351,.T.);
#506=ORIENTED_EDGE('',*,*,#367,.T.);
#507=ORIENTED_EDGE('',*,*,#364,.F.);
#508=ORIENTED_EDGE('',*,*,#367,.F.);
#509=ORIENTED_EDGE('',*,*,#355,.T.);
#510=ORIENTED_EDGE('',*,*,#368,.T.);
#511=ORIENTED_EDGE('',*,*,#363,.F.);
#512=ORIENTED_EDGE('',*,*,#368,.F.);
#513=ORIENTED_EDGE('',*,*,#349,.T.);
#514=ORIENTED_EDGE('',*,*,#369,.T.);
#515=ORIENTED_EDGE('',*,*,#362,.F.);
#516=ORIENTED_EDGE('',*,*,#369,.F.);
#517=ORIENTED_EDGE('',*,*,#350,.T.);
#518=ORIENTED_EDGE('',*,*,#370,.T.);
#519=ORIENTED_EDGE('',*,*,#361,.F.);
#520=ORIENTED_EDGE('',*,*,#370,.F.);
#521=ORIENTED_EDGE('',*,*,#354,.T.);
#522=ORIENTED_EDGE('',*,*,#371,.T.);
#523=ORIENTED_EDGE('',*,*,#360,.F.);
#524=ORIENTED_EDGE('',*,*,#371,.F.);
#525=ORIENTED_EDGE('',*,*,#353,.T.);
#526=ORIENTED_EDGE('',*,*,#372,.T.);
#527=ORIENTED_EDGE('',*,*,#359,.F.);
#528=ORIENTED_EDGE('',*,*,#372,.F.);
#529=PLANE('',#585);
#530=PLANE('',#598);
#531=PLANE('',#599);
#532=PLANE('',#601);
#533=PLANE('',#608);
#534=PLANE('',#611);
#535=PLANE('',#614);
#536=PLANE('',#615);
#537=PLANE('',#619);
#538=PLANE('',#622);
#539=PLANE('',#623);
#540=PLANE('',#631);
#541=PLANE('',#635);
#542=ADVANCED_FACE('',(#48,#31),#529,.F.);
#543=ADVANCED_FACE('',(#49),#15,.F.);
#544=ADVANCED_FACE('',(#50),#530,.T.);
#545=ADVANCED_FACE('',(#51),#531,.F.);
#546=ADVANCED_FACE('',(#52),#532,.T.);
#547=ADVANCED_FACE('',(#53),#16,.T.);
#548=ADVANCED_FACE('',(#54),#17,.T.);
#549=ADVANCED_FACE('',(#55),#18,.T.);
#550=ADVANCED_FACE('',(#56),#533,.T.);
#551=ADVANCED_FACE('',(#57),#19,.T.);
#552=ADVANCED_FACE('',(#58),#534,.T.);
#553=ADVANCED_FACE('',(#59),#20,.T.);
#554=ADVANCED_FACE('',(#60),#535,.T.);
#555=ADVANCED_FACE('',(#61),#536,.T.);
#556=ADVANCED_FACE('',(#62),#21,.F.);
#557=ADVANCED_FACE('',(#63),#537,.F.);
#558=ADVANCED_FACE('',(#64),#22,.F.);
#559=ADVANCED_FACE('',(#65),#538,.F.);
#560=ADVANCED_FACE('',(#66,#32,#33,#34,#35,#36,#37,#38),#539,.T.);
#561=ADVANCED_FACE('',(#67,#39),#540,.T.);
#562=ADVANCED_FACE('',(#68),#23,.F.);
#563=ADVANCED_FACE('',(#69,#40,#41,#42,#43,#44,#45,#46,#47),#541,.T.);
#564=ADVANCED_FACE('',(#70),#24,.F.);
#565=ADVANCED_FACE('',(#71),#25,.F.);
#566=ADVANCED_FACE('',(#72),#26,.F.);
#567=ADVANCED_FACE('',(#73),#27,.F.);
#568=ADVANCED_FACE('',(#74),#28,.F.);
#569=ADVANCED_FACE('',(#75),#29,.F.);
#570=ADVANCED_FACE('',(#76),#30,.F.);
#571=CLOSED_SHELL('',(#542,#543,#544,#545,#546,#547,#548,#549,#550,#551,
#552,#553,#554,#555,#556,#557,#558,#559,#560,#561,#562,#563,#564,#565,#566,
#567,#568,#569,#570));
#572=DERIVED_UNIT_ELEMENT(#574,1.);
#573=DERIVED_UNIT_ELEMENT(#989,-3.);
#574=(
MASS_UNIT()
NAMED_UNIT(*)
SI_UNIT(.KILO.,.GRAM.)
);
#575=DERIVED_UNIT((#572,#573));
#576=MEASURE_REPRESENTATION_ITEM('density measure',
POSITIVE_RATIO_MEASURE(7850.),#575);
#577=PROPERTY_DEFINITION_REPRESENTATION(#582,#579);
#578=PROPERTY_DEFINITION_REPRESENTATION(#583,#580);
#579=REPRESENTATION('material name',(#581),#986);
#580=REPRESENTATION('density',(#576),#986);
#581=DESCRIPTIVE_REPRESENTATION_ITEM('Steel','Steel');
#582=PROPERTY_DEFINITION('material property','material name',#996);
#583=PROPERTY_DEFINITION('material property','density of part',#996);
#584=AXIS2_PLACEMENT_3D('',#824,#650,#651);
#585=AXIS2_PLACEMENT_3D('',#825,#652,#653);
#586=AXIS2_PLACEMENT_3D('',#828,#654,#655);
#587=AXIS2_PLACEMENT_3D('',#834,#658,#659);
#588=AXIS2_PLACEMENT_3D('',#838,#661,#662);
#589=AXIS2_PLACEMENT_3D('',#842,#664,#665);
#590=AXIS2_PLACEMENT_3D('',#844,#666,#667);
#591=AXIS2_PLACEMENT_3D('',#848,#669,#670);
#592=AXIS2_PLACEMENT_3D('',#851,#672,#673);
#593=AXIS2_PLACEMENT_3D('',#856,#675,#676);
#594=AXIS2_PLACEMENT_3D('',#860,#678,#679);
#595=AXIS2_PLACEMENT_3D('',#861,#680,#681);
#596=AXIS2_PLACEMENT_3D('',#862,#682,#683);
#597=AXIS2_PLACEMENT_3D('',#865,#684,#685);
#598=AXIS2_PLACEMENT_3D('',#868,#688,#689);
#599=AXIS2_PLACEMENT_3D('',#872,#692,#693);
#600=AXIS2_PLACEMENT_3D('',#874,#694,#695);
#601=AXIS2_PLACEMENT_3D('',#876,#697,#698);
#602=AXIS2_PLACEMENT_3D('',#878,#700,#701);
#603=AXIS2_PLACEMENT_3D('',#882,#703,#704);
#604=AXIS2_PLACEMENT_3D('',#884,#706,#707);
#605=AXIS2_PLACEMENT_3D('',#886,#708,#709);
#606=AXIS2_PLACEMENT_3D('',#888,#711,#712);
#607=AXIS2_PLACEMENT_3D('',#891,#714,#715);
#608=AXIS2_PLACEMENT_3D('',#892,#716,#717);
#609=AXIS2_PLACEMENT_3D('',#896,#720,#721);
#610=AXIS2_PLACEMENT_3D('',#898,#722,#723);
#611=AXIS2_PLACEMENT_3D('',#900,#725,#726);
#612=AXIS2_PLACEMENT_3D('',#904,#729,#730);
#613=AXIS2_PLACEMENT_3D('',#906,#731,#732);
#614=AXIS2_PLACEMENT_3D('',#908,#734,#735);
#615=AXIS2_PLACEMENT_3D('',#912,#738,#739);
#616=AXIS2_PLACEMENT_3D('',#914,#741,#742);
#617=AXIS2_PLACEMENT_3D('',#916,#743,#744);
#618=AXIS2_PLACEMENT_3D('',#921,#747,#748);
#619=AXIS2_PLACEMENT_3D('',#923,#750,#751);
#620=AXIS2_PLACEMENT_3D('',#927,#754,#755);
#621=AXIS2_PLACEMENT_3D('',#929,#756,#757);
#622=AXIS2_PLACEMENT_3D('',#931,#759,#760);
#623=AXIS2_PLACEMENT_3D('',#933,#762,#763);
#624=AXIS2_PLACEMENT_3D('',#935,#764,#765);
#625=AXIS2_PLACEMENT_3D('',#937,#766,#767);
#626=AXIS2_PLACEMENT_3D('',#939,#768,#769);
#627=AXIS2_PLACEMENT_3D('',#941,#770,#771);
#628=AXIS2_PLACEMENT_3D('',#943,#772,#773);
#629=AXIS2_PLACEMENT_3D('',#945,#774,#775);
#630=AXIS2_PLACEMENT_3D('',#947,#776,#777);
#631=AXIS2_PLACEMENT_3D('',#948,#778,#779);
#632=AXIS2_PLACEMENT_3D('',#950,#780,#781);
#633=AXIS2_PLACEMENT_3D('',#951,#782,#783);
#634=AXIS2_PLACEMENT_3D('',#954,#785,#786);
#635=AXIS2_PLACEMENT_3D('',#955,#787,#788);
#636=AXIS2_PLACEMENT_3D('',#957,#789,#790);
#637=AXIS2_PLACEMENT_3D('',#959,#791,#792);
#638=AXIS2_PLACEMENT_3D('',#961,#793,#794);
#639=AXIS2_PLACEMENT_3D('',#963,#795,#796);
#640=AXIS2_PLACEMENT_3D('',#965,#797,#798);
#641=AXIS2_PLACEMENT_3D('',#967,#799,#800);
#642=AXIS2_PLACEMENT_3D('',#969,#801,#802);
#643=AXIS2_PLACEMENT_3D('',#970,#803,#804);
#644=AXIS2_PLACEMENT_3D('',#972,#806,#807);
#645=AXIS2_PLACEMENT_3D('',#974,#809,#810);
#646=AXIS2_PLACEMENT_3D('',#976,#812,#813);
#647=AXIS2_PLACEMENT_3D('',#978,#815,#816);
#648=AXIS2_PLACEMENT_3D('',#980,#818,#819);
#649=AXIS2_PLACEMENT_3D('',#982,#821,#822);
#650=DIRECTION('axis',(0.,0.,1.));
#651=DIRECTION('refdir',(1.,0.,0.));
#652=DIRECTION('center_axis',(0.,1.,0.));
#653=DIRECTION('ref_axis',(-1.,0.,0.));
#654=DIRECTION('center_axis',(0.,-1.,0.));
#655=DIRECTION('ref_axis',(-0.783451439916694,0.,0.621453008112809));
#656=DIRECTION('',(-0.903599856791177,0.,-0.428377519026109));
#657=DIRECTION('',(-0.996898148495905,0.,0.0787024874158108));
#658=DIRECTION('center_axis',(0.,-1.,0.));
#659=DIRECTION('ref_axis',(0.123208373316454,0.,-0.992380822439004));
#660=DIRECTION('',(0.996898148653469,0.,0.0787024854200099));
#661=DIRECTION('center_axis',(0.,-1.,0.));
#662=DIRECTION('ref_axis',(0.0787024870956489,0.,0.996898148521181));
#663=DIRECTION('',(0.79743960455658,0.,0.60339877119915));
#664=DIRECTION('center_axis',(0.,-1.,0.));
#665=DIRECTION('ref_axis',(-0.783451439916694,0.,0.621453008112809));
#666=DIRECTION('center_axis',(0.,-1.,0.));
#667=DIRECTION('ref_axis',(1.,0.,0.));
#668=DIRECTION('',(1.,0.,0.));
#669=DIRECTION('center_axis',(0.,-1.,0.));
#670=DIRECTION('ref_axis',(1.,0.,0.));
#671=DIRECTION('',(1.,0.,0.));
#672=DIRECTION('center_axis',(0.,-1.,0.));
#673=DIRECTION('ref_axis',(1.,0.,0.));
#674=DIRECTION('',(0.995229549419667,0.,-0.0975609756097562));
#675=DIRECTION('center_axis',(0.,1.,0.));
#676=DIRECTION('ref_axis',(0.0975609756097438,0.,-0.995229549419668));
#677=DIRECTION('',(-0.995229549419666,0.,-0.0975609756097661));
#678=DIRECTION('center_axis',(0.,1.,0.));
#679=DIRECTION('ref_axis',(1.,0.,0.));
#680=DIRECTION('center_axis',(0.,1.,0.));
#681=DIRECTION('ref_axis',(1.,0.,0.));
#682=DIRECTION('center_axis',(0.,1.,0.));
#683=DIRECTION('ref_axis',(6.12323399573677E-17,0.,-1.));
#684=DIRECTION('center_axis',(0.,-1.,0.));
#685=DIRECTION('ref_axis',(1.,0.,0.));
#686=DIRECTION('',(0.,1.,0.));
#687=DIRECTION('',(0.,1.,0.));
#688=DIRECTION('center_axis',(0.,0.,1.));
#689=DIRECTION('ref_axis',(1.,0.,0.));
#690=DIRECTION('',(1.,0.,0.));
#691=DIRECTION('',(0.,1.,0.));
#692=DIRECTION('center_axis',(0.,-1.,0.));
#693=DIRECTION('ref_axis',(1.,0.,0.));
#694=DIRECTION('center_axis',(0.,1.,0.));
#695=DIRECTION('ref_axis',(1.,0.,0.));
#696=DIRECTION('',(1.,0.,0.));
#697=DIRECTION('center_axis',(0.,0.,1.));
#698=DIRECTION('ref_axis',(1.,0.,0.));
#699=DIRECTION('',(0.,1.,0.));
#700=DIRECTION('center_axis',(0.,1.,0.));
#701=DIRECTION('ref_axis',(6.12323399573677E-17,0.,-1.));
#702=DIRECTION('',(0.,-1.,0.));
#703=DIRECTION('center_axis',(0.,-1.,0.));
#704=DIRECTION('ref_axis',(1.,0.,0.));
#705=DIRECTION('',(0.,1.,0.));
#706=DIRECTION('center_axis',(0.,-1.,0.));
#707=DIRECTION('ref_axis',(-0.783451439916694,0.,0.621453008112809));
#708=DIRECTION('center_axis',(0.,1.,0.));
#709=DIRECTION('ref_axis',(-0.783451439916694,0.,0.621453008112809));
#710=DIRECTION('',(0.,-1.,0.));
#711=DIRECTION('center_axis',(0.,-1.,0.));
#712=DIRECTION('ref_axis',(0.999909293135714,0.,-0.0134686859357485));
#713=DIRECTION('',(0.,-1.,0.));
#714=DIRECTION('center_axis',(0.,1.,0.));
#715=DIRECTION('ref_axis',(-0.783451439916694,0.,0.621453008112809));
#716=DIRECTION('center_axis',(0.60339877119915,0.,-0.79743960455658));
#717=DIRECTION('ref_axis',(0.79743960455658,0.,0.60339877119915));
#718=DIRECTION('',(-0.79743960455658,0.,-0.60339877119915));
#719=DIRECTION('',(0.,-1.,0.));
#720=DIRECTION('center_axis',(0.,-1.,0.));
#721=DIRECTION('ref_axis',(0.0787024870956489,0.,0.996898148521181));
#722=DIRECTION('center_axis',(0.,1.,0.));
#723=DIRECTION('ref_axis',(0.0787024870956489,0.,0.996898148521181));
#724=DIRECTION('',(0.,-1.,0.));
#725=DIRECTION('center_axis',(0.0787024854200099,0.,-0.996898148653469));
#726=DIRECTION('ref_axis',(0.996898148653469,0.,0.0787024854200099));
#727=DIRECTION('',(-0.996898148653469,0.,-0.0787024854200099));
#728=DIRECTION('',(0.,-1.,0.));
#729=DIRECTION('center_axis',(0.,-1.,0.));
#730=DIRECTION('ref_axis',(-0.999999999999999,0.,-5.34739519510208E-8));
#731=DIRECTION('center_axis',(0.,1.,0.));
#732=DIRECTION('ref_axis',(0.123208373316454,0.,-0.992380822439004));
#733=DIRECTION('',(0.,-1.,0.));
#734=DIRECTION('center_axis',(0.0787024874158108,0.,0.996898148495905));
#735=DIRECTION('ref_axis',(-0.996898148495905,0.,0.0787024874158108));
#736=DIRECTION('',(0.996898148495905,0.,-0.0787024874158108));
#737=DIRECTION('',(0.,-1.,0.));
#738=DIRECTION('center_axis',(-0.428377519026109,0.,0.903599856791177));
#739=DIRECTION('ref_axis',(-0.903599856791177,0.,-0.428377519026109));
#740=DIRECTION('',(-0.903599856791177,0.,-0.428377519026109));
#741=DIRECTION('center_axis',(0.,-1.,0.));
#742=DIRECTION('ref_axis',(1.,0.,0.));
#743=DIRECTION('center_axis',(0.,-1.,0.));
#744=DIRECTION('ref_axis',(1.,0.,0.));
#745=DIRECTION('',(0.,-1.,0.));
#746=DIRECTION('',(0.,-1.,0.));
#747=DIRECTION('center_axis',(0.,1.,0.));
#748=DIRECTION('ref_axis',(1.,0.,0.));
#749=DIRECTION('',(0.,-1.,0.));
#750=DIRECTION('center_axis',(0.0975609756097562,0.,0.995229549419667));
#751=DIRECTION('ref_axis',(-0.995229549419667,0.,0.0975609756097562));
#752=DIRECTION('',(-0.995229549419667,0.,0.0975609756097561));
#753=DIRECTION('',(0.,-1.,0.));
#754=DIRECTION('center_axis',(0.,-1.,0.));
#755=DIRECTION('ref_axis',(0.0975609756097438,0.,-0.995229549419668));
#756=DIRECTION('center_axis',(0.,-1.,0.));
#757=DIRECTION('ref_axis',(0.0975609756097438,0.,-0.995229549419668));
#758=DIRECTION('',(0.,-1.,0.));
#759=DIRECTION('center_axis',(0.0975609756097661,0.,-0.995229549419666));
#760=DIRECTION('ref_axis',(0.995229549419666,0.,0.0975609756097661));
#761=DIRECTION('',(0.995229549419666,0.,0.0975609756097661));
#762=DIRECTION('center_axis',(0.,-1.,0.));
#763=DIRECTION('ref_axis',(1.,0.,0.));
#764=DIRECTION('center_axis',(0.,-1.,0.));
#765=DIRECTION('ref_axis',(-1.,0.,0.));
#766=DIRECTION('center_axis',(0.,-1.,0.));
#767=DIRECTION('ref_axis',(-1.,0.,0.));
#768=DIRECTION('center_axis',(0.,-1.,0.));
#769=DIRECTION('ref_axis',(-1.,0.,0.));
#770=DIRECTION('center_axis',(0.,-1.,0.));
#771=DIRECTION('ref_axis',(-1.,0.,0.));
#772=DIRECTION('center_axis',(0.,-1.,0.));
#773=DIRECTION('ref_axis',(-1.,0.,0.));
#774=DIRECTION('center_axis',(0.,-1.,0.));
#775=DIRECTION('ref_axis',(-1.,0.,0.));
#776=DIRECTION('center_axis',(0.,-1.,0.));
#777=DIRECTION('ref_axis',(-1.,0.,0.));
#778=DIRECTION('center_axis',(0.,-1.,0.));
#779=DIRECTION('ref_axis',(1.,0.,0.));
#780=DIRECTION('center_axis',(0.,-1.,0.));
#781=DIRECTION('ref_axis',(-1.,0.,0.));
#782=DIRECTION('center_axis',(0.,-1.,0.));
#783=DIRECTION('ref_axis',(-1.,0.,0.));
#784=DIRECTION('',(0.,1.,0.));
#785=DIRECTION('center_axis',(0.,-1.,0.));
#786=DIRECTION('ref_axis',(-1.,0.,0.));
#787=DIRECTION('center_axis',(0.,1.,0.));
#788=DIRECTION('ref_axis',(-1.,0.,0.));
#789=DIRECTION('center_axis',(0.,-1.,0.));
#790=DIRECTION('ref_axis',(-1.,0.,0.));
#791=DIRECTION('center_axis',(0.,-1.,0.));
#792=DIRECTION('ref_axis',(-1.,0.,0.));
#793=DIRECTION('center_axis',(0.,-1.,0.));
#794=DIRECTION('ref_axis',(-1.,0.,0.));
#795=DIRECTION('center_axis',(0.,-1.,0.));
#796=DIRECTION('ref_axis',(-1.,0.,0.));
#797=DIRECTION('center_axis',(0.,-1.,0.));
#798=DIRECTION('ref_axis',(-1.,0.,0.));
#799=DIRECTION('center_axis',(0.,-1.,0.));
#800=DIRECTION('ref_axis',(-1.,0.,0.));
#801=DIRECTION('center_axis',(0.,-1.,0.));
#802=DIRECTION('ref_axis',(-1.,0.,0.));
#803=DIRECTION('center_axis',(0.,-1.,0.));
#804=DIRECTION('ref_axis',(-1.,0.,0.));
#805=DIRECTION('',(0.,1.,0.));
#806=DIRECTION('center_axis',(0.,-1.,0.));
#807=DIRECTION('ref_axis',(-1.,0.,0.));
#808=DIRECTION('',(0.,1.,0.));
#809=DIRECTION('center_axis',(0.,-1.,0.));
#810=DIRECTION('ref_axis',(-1.,0.,0.));
#811=DIRECTION('',(0.,1.,0.));
#812=DIRECTION('center_axis',(0.,-1.,0.));
#813=DIRECTION('ref_axis',(-1.,0.,0.));
#814=DIRECTION('',(0.,1.,0.));
#815=DIRECTION('center_axis',(0.,-1.,0.));
#816=DIRECTION('ref_axis',(-1.,0.,0.));
#817=DIRECTION('',(0.,1.,0.));
#818=DIRECTION('center_axis',(0.,-1.,0.));
#819=DIRECTION('ref_axis',(-1.,0.,0.));
#820=DIRECTION('',(0.,1.,0.));
#821=DIRECTION('center_axis',(0.,-1.,0.));
#822=DIRECTION('ref_axis',(-1.,0.,0.));
#823=DIRECTION('',(0.,1.,0.));
#824=CARTESIAN_POINT('',(0.,0.,0.));
#825=CARTESIAN_POINT('Origin',(47.4241646547551,-2.3,0.));
#826=CARTESIAN_POINT('',(102.904102488896,-2.3,32.1265868864276));
#827=CARTESIAN_POINT('',(101.995759794425,-2.3,31.1486846849927));
#828=CARTESIAN_POINT('Origin',(108.710518770168,-2.3,25.8223722275528));
#829=CARTESIAN_POINT('',(63.4806017614984,-2.3,12.889465497382));
#830=CARTESIAN_POINT('',(101.995759794425,-2.3,31.1486846849927));
#831=CARTESIAN_POINT('',(31.9097281413428,-2.3,15.3819029520461));
#832=CARTESIAN_POINT('',(31.9097281413428,-2.3,15.3819029520461));
#833=CARTESIAN_POINT('',(31.909729786405,-2.3,-15.3819027478046));
#834=CARTESIAN_POINT('Origin',(30.,-2.3,0.));
#835=CARTESIAN_POINT('',(68.8263771101891,-2.3,-12.4674305906637));
#836=CARTESIAN_POINT('',(68.8263771101891,-2.3,-12.4674305906637));
#837=CARTESIAN_POINT('',(75.3883458860027,-2.3,-9.97295755186667));
#838=CARTESIAN_POINT('Origin',(67.842106274084,-2.3,-1.38777878078145E-16));
#839=CARTESIAN_POINT('',(115.,-2.3,20.));
#840=CARTESIAN_POINT('',(115.,-2.3,20.));
#841=CARTESIAN_POINT('',(115.154543286472,-2.3,31.4732253073857));
#842=CARTESIAN_POINT('Origin',(108.710518770168,-2.3,25.8223722275528));
#843=CARTESIAN_POINT('',(123.443213804656,-2.3,47.0335853158576));
#844=CARTESIAN_POINT('Origin',(109.699559785371,-2.3,44.3667568252716));
#845=CARTESIAN_POINT('',(119.337403206064,-2.3,47.0335853158576));
#846=CARTESIAN_POINT('',(95.9559057660865,-2.3,47.0335853158576));
#847=CARTESIAN_POINT('',(100.061716364678,-2.3,47.0335853158576));
#848=CARTESIAN_POINT('Origin',(109.699559785371,-2.3,44.3667568252716));
#849=CARTESIAN_POINT('',(95.9559057660865,-2.3,47.0335853158576));
#850=CARTESIAN_POINT('',(95.9559057660865,-2.3,47.0335853158576));
#851=CARTESIAN_POINT('Origin',(109.699559785371,-2.3,44.3667568252716));
#852=CARTESIAN_POINT('',(30.3317073170732,-2.3,3.38378046802687));
#853=CARTESIAN_POINT('',(46.5756097560976,-2.3,1.79141318895558));
#854=CARTESIAN_POINT('',(47.0828180101628,-2.3,1.74169226564401));
#855=CARTESIAN_POINT('',(46.5756097560976,-2.3,-1.79141318895558));
#856=CARTESIAN_POINT('Origin',(46.4,-2.3,0.));
#857=CARTESIAN_POINT('',(30.3317073170732,-2.3,-3.38378046802721));
#858=CARTESIAN_POINT('',(38.9608667906506,-2.3,-2.53787590518));
#859=CARTESIAN_POINT('',(26.6,-2.3,-4.163799117101E-16));
#860=CARTESIAN_POINT('Origin',(30.,-2.3,0.));
#861=CARTESIAN_POINT('Origin',(30.,-2.3,0.));
#862=CARTESIAN_POINT('Origin',(109.699559785371,-2.3,44.3667568252716));
#863=CARTESIAN_POINT('',(100.061716364678,12.7,47.0335853158576));
#864=CARTESIAN_POINT('',(119.337403206064,12.7,47.0335853158576));
#865=CARTESIAN_POINT('Origin',(109.699559785371,12.7,44.3667568252716));
#866=CARTESIAN_POINT('',(100.061716364678,-2.3,47.0335853158576));
#867=CARTESIAN_POINT('',(119.337403206064,-2.3,47.0335853158576));
#868=CARTESIAN_POINT('Origin',(95.9559057660865,-2.3,47.0335853158576));
#869=CARTESIAN_POINT('',(95.9559057660865,12.7,47.0335853158576));
#870=CARTESIAN_POINT('',(95.9559057660865,12.7,47.0335853158576));
#871=CARTESIAN_POINT('',(95.9559057660865,-2.3,47.0335853158576));
#872=CARTESIAN_POINT('Origin',(102.433269645812,12.7,39.5800861011426));
#873=CARTESIAN_POINT('',(123.443213804656,12.7,47.0335853158576));
#874=CARTESIAN_POINT('Origin',(109.699559785371,12.7,44.3667568252716));
#875=CARTESIAN_POINT('',(95.9559057660865,12.7,47.0335853158576));
#876=CARTESIAN_POINT('Origin',(119.337403206064,-2.3,47.0335853158576));
#877=CARTESIAN_POINT('',(123.443213804656,-2.3,47.0335853158576));
#878=CARTESIAN_POINT('Origin',(109.699559785371,-2.3,44.3667568252716));
#879=CARTESIAN_POINT('',(115.154543286472,2.,31.4732253073857));
#880=CARTESIAN_POINT('',(115.154543286472,-2.3,31.4732253073857));
#881=CARTESIAN_POINT('',(102.904102488896,2.,32.1265868864276));
#882=CARTESIAN_POINT('Origin',(109.699559785371,2.,44.3667568252716));
#883=CARTESIAN_POINT('',(102.904102488896,-2.3,32.1265868864276));
#884=CARTESIAN_POINT('Origin',(108.710518770168,2.,25.8223722275528));
#885=CARTESIAN_POINT('',(101.995759794425,2.,31.1486846849927));
#886=CARTESIAN_POINT('Origin',(108.710518770168,2.,25.8223722275528));
#887=CARTESIAN_POINT('',(101.995759794425,2.,31.1486846849927));
#888=CARTESIAN_POINT('Origin',(108.710518770168,2.,25.8223722275528));
#889=CARTESIAN_POINT('',(115.,2.,20.));
#890=CARTESIAN_POINT('',(115.,2.,20.));
#891=CARTESIAN_POINT('Origin',(108.710518770168,2.,25.8223722275528));
#892=CARTESIAN_POINT('Origin',(75.3883458860027,2.,-9.97295755186667));
#893=CARTESIAN_POINT('',(75.3883458860027,2.,-9.97295755186667));
#894=CARTESIAN_POINT('',(115.,2.,20.));
#895=CARTESIAN_POINT('',(75.3883458860027,2.,-9.97295755186667));
#896=CARTESIAN_POINT('Origin',(67.842106274084,2.,-1.38777878078145E-16));
#897=CARTESIAN_POINT('',(68.8263771101891,2.,-12.4674305906637));
#898=CARTESIAN_POINT('Origin',(67.842106274084,2.,-1.38777878078145E-16));
#899=CARTESIAN_POINT('',(68.8263771101891,2.,-12.4674305906637));
#900=CARTESIAN_POINT('Origin',(31.909729786405,2.,-15.3819027478046));
#901=CARTESIAN_POINT('',(31.909729786405,2.,-15.3819027478046));
#902=CARTESIAN_POINT('',(68.8263771101891,2.,-12.4674305906637));
#903=CARTESIAN_POINT('',(31.909729786405,2.,-15.3819027478046));
#904=CARTESIAN_POINT('Origin',(30.,2.,0.));
#905=CARTESIAN_POINT('',(31.9097281413428,2.,15.3819029520461));
#906=CARTESIAN_POINT('Origin',(30.,2.,0.));
#907=CARTESIAN_POINT('',(31.9097281413428,2.,15.3819029520461));
#908=CARTESIAN_POINT('Origin',(63.4806017614984,2.,12.889465497382));
#909=CARTESIAN_POINT('',(63.4806017614984,2.,12.889465497382));
#910=CARTESIAN_POINT('',(31.9097281413428,2.,15.3819029520461));
#911=CARTESIAN_POINT('',(63.4806017614984,2.,12.889465497382));
#912=CARTESIAN_POINT('Origin',(101.995759794425,2.,31.1486846849927));
#913=CARTESIAN_POINT('',(101.995759794425,2.,31.1486846849927));
#914=CARTESIAN_POINT('Origin',(30.,-2.77436787862763E-32,0.));
#915=CARTESIAN_POINT('',(26.6,-2.77436787862763E-32,-4.163799117101E-16));
#916=CARTESIAN_POINT('Origin',(30.,-2.77436787862763E-32,0.));
#917=CARTESIAN_POINT('',(26.6,-2.77436787862763E-32,-4.163799117101E-16));
#918=CARTESIAN_POINT('',(30.3317073170732,-0.2,-3.38378046802721));
#919=CARTESIAN_POINT('',(30.3317073170732,0.,-3.38378046802721));
#920=CARTESIAN_POINT('',(30.3317073170732,-0.2,3.38378046802687));
#921=CARTESIAN_POINT('Origin',(30.,-0.2,0.));
#922=CARTESIAN_POINT('',(30.3317073170732,0.,3.38378046802687));
#923=CARTESIAN_POINT('Origin',(46.5756097560976,-0.2,1.7914131889554));
#924=CARTESIAN_POINT('',(46.5756097560976,-0.2,1.79141318895558));
#925=CARTESIAN_POINT('',(46.5756097560976,-0.2,1.7914131889554));
#926=CARTESIAN_POINT('',(46.5756097560976,-0.2,1.79141318895558));
#927=CARTESIAN_POINT('Origin',(46.4,-0.2,0.));
#928=CARTESIAN_POINT('',(46.5756097560976,-0.2,-1.79141318895558));
#929=CARTESIAN_POINT('Origin',(46.4,-0.2,0.));
#930=CARTESIAN_POINT('',(46.5756097560976,-0.2,-1.79141318895558));
#931=CARTESIAN_POINT('Origin',(30.3317073170732,-0.2,-3.38378046802721));
#932=CARTESIAN_POINT('',(30.3317073170732,-0.2,-3.38378046802721));
#933=CARTESIAN_POINT('Origin',(39.2658536585367,-0.2,-1.73194791841524E-13));
#934=CARTESIAN_POINT('',(41.4,-0.2,6.12323399573674E-17));
#935=CARTESIAN_POINT('Origin',(40.9,-0.2,0.));
#936=CARTESIAN_POINT('',(43.3333333333333,-0.2,6.12323399573674E-17));
#937=CARTESIAN_POINT('Origin',(42.8333333333333,-0.2,0.));
#938=CARTESIAN_POINT('',(37.5333333333333,-0.2,6.12323399573674E-17));
#939=CARTESIAN_POINT('Origin',(37.0333333333333,-0.2,0.));
#940=CARTESIAN_POINT('',(47.2,-0.2,6.12323399573674E-17));
#941=CARTESIAN_POINT('Origin',(46.7,-0.2,0.));
#942=CARTESIAN_POINT('',(39.4666666666667,-0.2,6.12323399573674E-17));
#943=CARTESIAN_POINT('Origin',(38.9666666666667,-0.2,0.));
#944=CARTESIAN_POINT('',(45.2666666666667,-0.2,6.12323399573674E-17));
#945=CARTESIAN_POINT('Origin',(44.7666666666667,-0.2,0.));
#946=CARTESIAN_POINT('',(35.6,-0.2,6.12323399573674E-17));
#947=CARTESIAN_POINT('Origin',(35.1,-0.2,0.));
#948=CARTESIAN_POINT('Origin',(30.,-2.77436787862763E-32,0.));
#949=CARTESIAN_POINT('',(32.4,-2.77436787862763E-32,2.93915231795365E-16));
#950=CARTESIAN_POINT('Origin',(30.,-2.77436787862763E-32,0.));
#951=CARTESIAN_POINT('Origin',(30.,-2.77436787862763E-32,0.));
#952=CARTESIAN_POINT('',(32.4,2.,-2.93915231795365E-16));
#953=CARTESIAN_POINT('',(32.4,-2.77436787862763E-32,2.93915231795365E-16));
#954=CARTESIAN_POINT('Origin',(30.,2.,0.));
#955=CARTESIAN_POINT('Origin',(47.4241646547551,2.,0.));
#956=CARTESIAN_POINT('',(39.4666666666667,2.,-6.12323399573674E-17));
#957=CARTESIAN_POINT('Origin',(38.9666666666667,2.,0.));
#958=CARTESIAN_POINT('',(45.2666666666667,2.,-6.12323399573674E-17));
#959=CARTESIAN_POINT('Origin',(44.7666666666667,2.,0.));
#960=CARTESIAN_POINT('',(43.3333333333333,2.,-6.12323399573674E-17));
#961=CARTESIAN_POINT('Origin',(42.8333333333333,2.,0.));
#962=CARTESIAN_POINT('',(41.4,2.,-6.12323399573674E-17));
#963=CARTESIAN_POINT('Origin',(40.9,2.,0.));
#964=CARTESIAN_POINT('',(35.6,2.,-6.12323399573674E-17));
#965=CARTESIAN_POINT('Origin',(35.1,2.,0.));
#966=CARTESIAN_POINT('',(37.5333333333333,2.,-6.12323399573674E-17));
#967=CARTESIAN_POINT('Origin',(37.0333333333333,2.,0.));
#968=CARTESIAN_POINT('',(47.2,2.,-6.12323399573674E-17));
#969=CARTESIAN_POINT('Origin',(46.7,2.,0.));
#970=CARTESIAN_POINT('Origin',(46.7,0.,0.));
#971=CARTESIAN_POINT('',(47.2,0.,6.12323399573674E-17));
#972=CARTESIAN_POINT('Origin',(37.0333333333333,0.,0.));
#973=CARTESIAN_POINT('',(37.5333333333333,0.,6.12323399573674E-17));
#974=CARTESIAN_POINT('Origin',(35.1,0.,0.));
#975=CARTESIAN_POINT('',(35.6,0.,6.12323399573674E-17));
#976=CARTESIAN_POINT('Origin',(40.9,0.,0.));
#977=CARTESIAN_POINT('',(41.4,0.,6.12323399573674E-17));
#978=CARTESIAN_POINT('Origin',(42.8333333333333,0.,0.));
#979=CARTESIAN_POINT('',(43.3333333333333,0.,6.12323399573674E-17));
#980=CARTESIAN_POINT('Origin',(44.7666666666667,0.,0.));
#981=CARTESIAN_POINT('',(45.2666666666667,0.,6.12323399573674E-17));
#982=CARTESIAN_POINT('Origin',(38.9666666666667,0.,0.));
#983=CARTESIAN_POINT('',(39.4666666666667,0.,6.12323399573674E-17));
#984=UNCERTAINTY_MEASURE_WITH_UNIT(LENGTH_MEASURE(0.01),#988,
'DISTANCE_ACCURACY_VALUE',
'Maximum model space distance between geometric entities at asserted c
onnectivities');
#985=UNCERTAINTY_MEASURE_WITH_UNIT(LENGTH_MEASURE(0.01),#988,
'DISTANCE_ACCURACY_VALUE',
'Maximum model space distance between geometric entities at asserted c
onnectivities');
#986=(
GEOMETRIC_REPRESENTATION_CONTEXT(3)
GLOBAL_UNCERTAINTY_ASSIGNED_CONTEXT((#984))
GLOBAL_UNIT_ASSIGNED_CONTEXT((#988,#990,#991))
REPRESENTATION_CONTEXT('','3D')
);
#987=(
GEOMETRIC_REPRESENTATION_CONTEXT(3)
GLOBAL_UNCERTAINTY_ASSIGNED_CONTEXT((#985))
GLOBAL_UNIT_ASSIGNED_CONTEXT((#988,#990,#991))
REPRESENTATION_CONTEXT('','3D')
);
#988=(
LENGTH_UNIT()
NAMED_UNIT(*)
SI_UNIT(.MILLI.,.METRE.)
);
#989=(
LENGTH_UNIT()
NAMED_UNIT(*)
SI_UNIT($,.METRE.)
);
#990=(
NAMED_UNIT(*)
PLANE_ANGLE_UNIT()
SI_UNIT($,.RADIAN.)
);
#991=(
NAMED_UNIT(*)
SI_UNIT($,.STERADIAN.)
SOLID_ANGLE_UNIT()
);
#992=SHAPE_DEFINITION_REPRESENTATION(#993,#994);
#993=PRODUCT_DEFINITION_SHAPE('',$,#996);
#994=SHAPE_REPRESENTATION('',(#584),#986);
#995=PRODUCT_DEFINITION_CONTEXT('part definition',#1000,'design');
#996=PRODUCT_DEFINITION('FusionComponent','FusionComponent',#997,#995);
#997=PRODUCT_DEFINITION_FORMATION('',$,#1002);
#998=PRODUCT_RELATED_PRODUCT_CATEGORY('FusionComponent',
'FusionComponent',(#1002));
#999=APPLICATION_PROTOCOL_DEFINITION('international standard',
'automotive_design',2009,#1000);
#1000=APPLICATION_CONTEXT(
'Core Data for Automotive Mechanical Design Process');
#1001=PRODUCT_CONTEXT('part definition',#1000,'mechanical');
#1002=PRODUCT('FusionComponent','FusionComponent',$,(#1001));
#1003=PRESENTATION_STYLE_ASSIGNMENT((#1005));
#1004=PRESENTATION_STYLE_ASSIGNMENT((#1006));
#1005=SURFACE_STYLE_USAGE(.BOTH.,#1007);
#1006=SURFACE_STYLE_USAGE(.BOTH.,#1008);
#1007=SURFACE_SIDE_STYLE('',(#1009));
#1008=SURFACE_SIDE_STYLE('',(#1010));
#1009=SURFACE_STYLE_FILL_AREA(#1011);
#1010=SURFACE_STYLE_FILL_AREA(#1012);
#1011=FILL_AREA_STYLE('Plate',(#1013));
#1012=FILL_AREA_STYLE('Opaque(160,160,160)',(#1014));
#1013=FILL_AREA_STYLE_COLOUR('Plate',#1015);
#1014=FILL_AREA_STYLE_COLOUR('Opaque(160,160,160)',#1016);
#1015=COLOUR_RGB('Plate',0.6,0.6,0.6);
#1016=COLOUR_RGB('Opaque(160,160,160)',0.627450980392157,0.627450980392157,
0.627450980392157);
ENDSEC;
END-ISO-10303-21;
