ISO-10303-21;
HEADER;
/* Generated by software containing ST-Developer
 * from STEP Tools, Inc. (www.steptools.com) 
 */

FILE_DESCRIPTION(
/* description */ (''),
/* implementation_level */ '2;1');

FILE_NAME(
/* name */ 'rightwing.step',
/* time_stamp */ '2026-04-12T13:01:23+05:30',
/* author */ (''),
/* organization */ (''),
/* preprocessor_version */ 'ST-DEVELOPER v20.1',
/* originating_system */ 'Autodesk Translation Framework v14.24.0.0',
/* authorisation */ '');

FILE_SCHEMA (('AUTOMOTIVE_DESIGN { 1 0 10303 214 3 1 1 }','AP242_MANAGED_MODEL_BASED_3D_ENGINEERING_MIM_LF { 1 0 10303 442 3 1 4 }'));
ENDSEC;

DATA;
#10=MECHANICAL_DESIGN_GEOMETRIC_PRESENTATION_REPRESENTATION('',(#13),#1081);
#11=SHAPE_REPRESENTATION_RELATIONSHIP('SRR','None',#1088,#12);
#12=ADVANCED_BREP_SHAPE_REPRESENTATION('',(#14),#1080);
#13=STYLED_ITEM('',(#1097),#14);
#14=MANIFOLD_SOLID_BREP('right (1)',#347);
#15=CYLINDRICAL_SURFACE('',#366,13.310971137854);
#16=CYLINDRICAL_SURFACE('',#370,5.);
#17=CYLINDRICAL_SURFACE('',#372,74.009995284854);
#18=CYLINDRICAL_SURFACE('',#374,13.310971137854);
#19=FACE_BOUND('',#56,.T.);
#20=FACE_BOUND('',#74,.T.);
#21=CIRCLE('',#363,13.310971137854);
#22=CIRCLE('',#364,13.310971137854);
#23=CIRCLE('',#365,5.);
#24=CIRCLE('',#367,13.310971137854);
#25=CIRCLE('',#369,74.009995284854);
#26=CIRCLE('',#371,5.);
#27=CIRCLE('',#373,74.009995284854);
#28=CIRCLE('',#375,13.310971137854);
#29=PLANE('',#361);
#30=PLANE('',#362);
#31=PLANE('',#368);
#32=PLANE('',#376);
#33=FACE_OUTER_BOUND('',#53,.T.);
#34=FACE_OUTER_BOUND('',#54,.T.);
#35=FACE_OUTER_BOUND('',#55,.T.);
#36=FACE_OUTER_BOUND('',#57,.T.);
#37=FACE_OUTER_BOUND('',#58,.T.);
#38=FACE_OUTER_BOUND('',#59,.T.);
#39=FACE_OUTER_BOUND('',#60,.T.);
#40=FACE_OUTER_BOUND('',#61,.T.);
#41=FACE_OUTER_BOUND('',#62,.T.);
#42=FACE_OUTER_BOUND('',#63,.T.);
#43=FACE_OUTER_BOUND('',#64,.T.);
#44=FACE_OUTER_BOUND('',#65,.T.);
#45=FACE_OUTER_BOUND('',#66,.T.);
#46=FACE_OUTER_BOUND('',#67,.T.);
#47=FACE_OUTER_BOUND('',#68,.T.);
#48=FACE_OUTER_BOUND('',#69,.T.);
#49=FACE_OUTER_BOUND('',#70,.T.);
#50=FACE_OUTER_BOUND('',#71,.T.);
#51=FACE_OUTER_BOUND('',#72,.T.);
#52=FACE_OUTER_BOUND('',#73,.T.);
#53=EDGE_LOOP('',(#215,#216,#217,#218));
#54=EDGE_LOOP('',(#219,#220,#221,#222));
#55=EDGE_LOOP('',(#223,#224,#225,#226,#227,#228,#229));
#56=EDGE_LOOP('',(#230));
#57=EDGE_LOOP('',(#231,#232,#233,#234));
#58=EDGE_LOOP('',(#235,#236,#237,#238));
#59=EDGE_LOOP('',(#239,#240,#241,#242));
#60=EDGE_LOOP('',(#243,#244,#245,#246));
#61=EDGE_LOOP('',(#247,#248,#249,#250,#251,#252,#253));
#62=EDGE_LOOP('',(#254,#255,#256,#257));
#63=EDGE_LOOP('',(#258,#259,#260,#261,#262));
#64=EDGE_LOOP('',(#263,#264,#265,#266));
#65=EDGE_LOOP('',(#267,#268,#269,#270,#271));
#66=EDGE_LOOP('',(#272,#273,#274,#275,#276));
#67=EDGE_LOOP('',(#277,#278,#279,#280,#281));
#68=EDGE_LOOP('',(#282,#283,#284,#285));
#69=EDGE_LOOP('',(#286,#287,#288,#289,#290,#291));
#70=EDGE_LOOP('',(#292,#293,#294,#295));
#71=EDGE_LOOP('',(#296,#297,#298,#299));
#72=EDGE_LOOP('',(#300,#301,#302,#303));
#73=EDGE_LOOP('',(#304,#305,#306,#307,#308,#309,#310,#311,#312,#313));
#74=EDGE_LOOP('',(#314));
#75=LINE('',#458,#94);
#76=LINE('',#468,#95);
#77=LINE('',#586,#96);
#78=LINE('',#596,#97);
#79=LINE('',#600,#98);
#80=LINE('',#621,#99);
#81=LINE('',#674,#100);
#82=LINE('',#692,#101);
#83=LINE('',#735,#102);
#84=LINE('',#767,#103);
#85=LINE('',#784,#104);
#86=LINE('',#834,#105);
#87=LINE('',#854,#106);
#88=LINE('',#876,#107);
#89=LINE('',#923,#108);
#90=LINE('',#970,#109);
#91=LINE('',#974,#110);
#92=LINE('',#978,#111);
#93=LINE('',#1040,#112);
#94=VECTOR('',#379,10.);
#95=VECTOR('',#380,10.);
#96=VECTOR('',#391,10.);
#97=VECTOR('',#392,10.);
#98=VECTOR('',#397,10.);
#99=VECTOR('',#398,10.);
#100=VECTOR('',#399,74.009995284854);
#101=VECTOR('',#400,10.);
#102=VECTOR('',#409,5.);
#103=VECTOR('',#410,10.);
#104=VECTOR('',#411,10.);
#105=VECTOR('',#412,10.);
#106=VECTOR('',#413,10.);
#107=VECTOR('',#414,10.);
#108=VECTOR('',#415,10.);
#109=VECTOR('',#416,10.);
#110=VECTOR('',#421,10.);
#111=VECTOR('',#426,10.);
#112=VECTOR('',#427,10.);
#113=(
BOUNDED_CURVE()
B_SPLINE_CURVE(5,(#449,#450,#451,#452,#453,#454,#455,#456),
 .UNSPECIFIED.,.F.,.F.)
B_SPLINE_CURVE_WITH_KNOTS((6,1,1,6),(-0.552799049932919,-0.533333333333333,
-0.466666666666667,-0.42993420932034),.UNSPECIFIED.)
CURVE()
GEOMETRIC_REPRESENTATION_ITEM()
RATIONAL_B_SPLINE_CURVE((1.,1.,1.,1.,1.,1.,1.,1.))
REPRESENTATION_ITEM('')
);
#114=(
BOUNDED_CURVE()
B_SPLINE_CURVE(5,(#460,#461,#462,#463,#464,#465,#466,#467),
 .UNSPECIFIED.,.F.,.F.)
B_SPLINE_CURVE_WITH_KNOTS((6,1,1,6),(0.42993420932034,0.466666666666667,
0.533333333333333,0.552799049932919),.UNSPECIFIED.)
CURVE()
GEOMETRIC_REPRESENTATION_ITEM()
RATIONAL_B_SPLINE_CURVE((1.,1.,1.,1.,1.,1.,1.,1.))
REPRESENTATION_ITEM('')
);
#115=(
BOUNDED_CURVE()
B_SPLINE_CURVE(5,(#471,#472,#473,#474,#475,#476,#477,#478,#479,#480,#481,
#482,#483,#484,#485),.UNSPECIFIED.,.F.,.F.)
B_SPLINE_CURVE_WITH_KNOTS((6,1,1,1,1,1,1,1,1,1,6),(0.,0.1,0.2,0.3,0.4,0.5,
0.6,0.7,0.8,0.9,0.984274788944015),.UNSPECIFIED.)
CURVE()
GEOMETRIC_REPRESENTATION_ITEM()
RATIONAL_B_SPLINE_CURVE((1.,1.,1.,1.,1.,1.,1.,1.,1.,1.,1.,1.,1.,1.,1.))
REPRESENTATION_ITEM('')
);
#116=(
BOUNDED_CURVE()
B_SPLINE_CURVE(5,(#487,#488,#489,#490,#491,#492,#493,#494,#495,#496,#497,
#498,#499,#500,#501,#502),.UNSPECIFIED.,.F.,.F.)
B_SPLINE_CURVE_WITH_KNOTS((6,1,1,1,1,1,1,1,1,1,1,6),(0.0251713091719709,
0.0666666666666667,0.133333333333333,0.2,0.266666666666667,0.333333333333333,
0.4,0.466666666666667,0.533333333333333,0.6,0.666666666666667,0.677387989190057),
 .UNSPECIFIED.)
CURVE()
GEOMETRIC_REPRESENTATION_ITEM()
RATIONAL_B_SPLINE_CURVE((1.,1.,1.,1.,1.,1.,1.,1.,1.,1.,1.,1.,1.,1.,1.,1.))
REPRESENTATION_ITEM('')
);
#117=(
BOUNDED_CURVE()
B_SPLINE_CURVE(5,(#503,#504,#505,#506,#507,#508),.UNSPECIFIED.,.F.,.F.)
B_SPLINE_CURVE_WITH_KNOTS((6,6),(-0.0655811014675279,0.),.UNSPECIFIED.)
CURVE()
GEOMETRIC_REPRESENTATION_ITEM()
RATIONAL_B_SPLINE_CURVE((1.,1.,1.,1.,1.,1.))
REPRESENTATION_ITEM('')
);
#118=(
BOUNDED_CURVE()
B_SPLINE_CURVE(5,(#511,#512,#513,#514,#515,#516,#517,#518,#519,#520),
 .UNSPECIFIED.,.F.,.F.)
B_SPLINE_CURVE_WITH_KNOTS((6,1,1,1,1,6),(-0.429934209261731,-0.4,-0.333333333333333,
-0.266666666666667,-0.2,-0.155158292325472),.UNSPECIFIED.)
CURVE()
GEOMETRIC_REPRESENTATION_ITEM()
RATIONAL_B_SPLINE_CURVE((1.,1.,1.,1.,1.,1.,1.,1.,1.,1.))
REPRESENTATION_ITEM('')
);
#119=(
BOUNDED_CURVE()
B_SPLINE_CURVE(5,(#522,#523,#524,#525,#526,#527,#528,#529),
 .UNSPECIFIED.,.F.,.F.)
B_SPLINE_CURVE_WITH_KNOTS((6,1,1,6),(-0.155158292325472,-0.133333333333333,
-0.0666666666666667,0.),.UNSPECIFIED.)
CURVE()
GEOMETRIC_REPRESENTATION_ITEM()
RATIONAL_B_SPLINE_CURVE((1.,1.,1.,1.,1.,1.,1.,1.))
REPRESENTATION_ITEM('')
);
#120=(
BOUNDED_CURVE()
B_SPLINE_CURVE(5,(#535,#536,#537,#538,#539,#540,#541,#542,#543,#544,#545,
#546,#547,#548,#549,#550,#551,#552,#553,#554),.UNSPECIFIED.,.F.,.F.)
B_SPLINE_CURVE_WITH_KNOTS((6,1,1,1,1,1,1,1,1,1,1,1,1,1,1,6),(0.,0.0666666666666667,
0.133333333333333,0.2,0.266666666666667,0.333333333333333,0.4,0.466666666666667,
0.533333333333333,0.6,0.666666666666667,0.733333333333333,0.8,0.866666666666667,
0.933333333333333,1.),.UNSPECIFIED.)
CURVE()
GEOMETRIC_REPRESENTATION_ITEM()
RATIONAL_B_SPLINE_CURVE((1.,1.,1.,1.,1.,1.,1.,1.,1.,1.,1.,1.,1.,1.,1.,1.,
1.,1.,1.,1.))
REPRESENTATION_ITEM('')
);
#121=(
BOUNDED_CURVE()
B_SPLINE_CURVE(5,(#555,#556,#557,#558,#559,#560,#561,#562,#563,#564,#565,
#566),.UNSPECIFIED.,.F.,.F.)
B_SPLINE_CURVE_WITH_KNOTS((6,1,1,1,1,1,1,6),(0.552799049932919,0.6,0.666666666666667,
0.733333333333333,0.8,0.866666666666667,0.933333333333333,1.),
 .UNSPECIFIED.)
CURVE()
GEOMETRIC_REPRESENTATION_ITEM()
RATIONAL_B_SPLINE_CURVE((1.,1.,1.,1.,1.,1.,1.,1.,1.,1.,1.,1.))
REPRESENTATION_ITEM('')
);
#122=(
BOUNDED_CURVE()
B_SPLINE_CURVE(5,(#588,#589,#590,#591,#592,#593,#594,#595),
 .UNSPECIFIED.,.F.,.F.)
B_SPLINE_CURVE_WITH_KNOTS((6,1,1,6),(0.,0.0666666666666667,0.133333333333333,
0.155158292325472),.UNSPECIFIED.)
CURVE()
GEOMETRIC_REPRESENTATION_ITEM()
RATIONAL_B_SPLINE_CURVE((1.,1.,1.,1.,1.,1.,1.,1.))
REPRESENTATION_ITEM('')
);
#123=(
BOUNDED_CURVE()
B_SPLINE_CURVE(5,(#622,#623,#624,#625,#626,#627,#628,#629,#630,#631),
 .UNSPECIFIED.,.F.,.F.)
B_SPLINE_CURVE_WITH_KNOTS((6,1,1,1,1,6),(0.155158292325472,0.2,0.266666666666667,
0.333333333333333,0.4,0.429934209261731),.UNSPECIFIED.)
CURVE()
GEOMETRIC_REPRESENTATION_ITEM()
RATIONAL_B_SPLINE_CURVE((1.,1.,1.,1.,1.,1.,1.,1.,1.,1.))
REPRESENTATION_ITEM('')
);
#124=(
BOUNDED_CURVE()
B_SPLINE_CURVE(5,(#676,#677,#678,#679,#680,#681,#682,#683,#684,#685,#686,
#687,#688,#689,#690),.UNSPECIFIED.,.F.,.F.)
B_SPLINE_CURVE_WITH_KNOTS((6,1,1,1,1,1,1,1,1,1,6),(0.,0.0666666666666667,
0.133333333333333,0.2,0.266666666666667,0.333333333333333,0.4,0.466666666666667,
0.533333333333333,0.6,0.655090355548902),.UNSPECIFIED.)
CURVE()
GEOMETRIC_REPRESENTATION_ITEM()
RATIONAL_B_SPLINE_CURVE((1.,1.,1.,1.,1.,1.,1.,1.,1.,1.,1.,1.,1.,1.,1.))
REPRESENTATION_ITEM('')
);
#125=(
BOUNDED_CURVE()
B_SPLINE_CURVE(5,(#693,#694,#695,#696,#697,#698,#699,#700,#701,#702,#703,
#704,#705,#706,#707),.UNSPECIFIED.,.F.,.F.)
B_SPLINE_CURVE_WITH_KNOTS((6,1,1,1,1,1,1,1,1,1,6),(0.,0.0666666666666667,
0.133333333333333,0.2,0.266666666666667,0.333333333333333,0.4,0.466666666666667,
0.533333333333333,0.6,0.655090355548902),.UNSPECIFIED.)
CURVE()
GEOMETRIC_REPRESENTATION_ITEM()
RATIONAL_B_SPLINE_CURVE((1.,1.,1.,1.,1.,1.,1.,1.,1.,1.,1.,1.,1.,1.,1.))
REPRESENTATION_ITEM('')
);
#126=(
BOUNDED_CURVE()
B_SPLINE_CURVE(5,(#709,#710,#711,#712,#713,#714,#715),.UNSPECIFIED.,.F.,
 .F.)
B_SPLINE_CURVE_WITH_KNOTS((6,1,6),(-0.756201432672007,-0.733333333333333,
-0.677387989190057),.UNSPECIFIED.)
CURVE()
GEOMETRIC_REPRESENTATION_ITEM()
RATIONAL_B_SPLINE_CURVE((1.,1.,1.,1.,1.,1.,1.))
REPRESENTATION_ITEM('')
);
#127=(
BOUNDED_CURVE()
B_SPLINE_CURVE(5,(#716,#717,#718,#719,#720,#721,#722,#723,#724,#725,#726,
#727,#728,#729,#730),.UNSPECIFIED.,.F.,.F.)
B_SPLINE_CURVE_WITH_KNOTS((6,1,1,1,1,1,1,1,1,1,6),(0.065581101467567,0.1,
0.2,0.3,0.4,0.5,0.6,0.7,0.8,0.9,1.),.UNSPECIFIED.)
CURVE()
GEOMETRIC_REPRESENTATION_ITEM()
RATIONAL_B_SPLINE_CURVE((1.,1.,1.,1.,1.,1.,1.,1.,1.,1.,1.,1.,1.,1.,1.))
REPRESENTATION_ITEM('')
);
#128=(
BOUNDED_CURVE()
B_SPLINE_CURVE(5,(#769,#770,#771,#772,#773,#774,#775,#776,#777,#778,#779,
#780,#781,#782,#783),.UNSPECIFIED.,.F.,.F.)
B_SPLINE_CURVE_WITH_KNOTS((6,1,1,1,1,1,1,1,1,1,6),(-0.984274788944015,-0.9,
-0.8,-0.7,-0.6,-0.5,-0.4,-0.3,-0.2,-0.1,0.),.UNSPECIFIED.)
CURVE()
GEOMETRIC_REPRESENTATION_ITEM()
RATIONAL_B_SPLINE_CURVE((1.,1.,1.,1.,1.,1.,1.,1.,1.,1.,1.,1.,1.,1.,1.))
REPRESENTATION_ITEM('')
);
#129=(
BOUNDED_CURVE()
B_SPLINE_CURVE(5,(#818,#819,#820,#821,#822,#823,#824,#825,#826,#827,#828,
#829,#830,#831,#832,#833),.UNSPECIFIED.,.F.,.F.)
B_SPLINE_CURVE_WITH_KNOTS((6,1,1,1,1,1,1,1,1,1,1,6),(-0.677387989190057,
-0.666666666666667,-0.6,-0.533333333333333,-0.466666666666667,-0.4,-0.333333333333333,
-0.266666666666667,-0.2,-0.133333333333333,-0.0666666666666667,-0.0251713091719709),
 .UNSPECIFIED.)
CURVE()
GEOMETRIC_REPRESENTATION_ITEM()
RATIONAL_B_SPLINE_CURVE((1.,1.,1.,1.,1.,1.,1.,1.,1.,1.,1.,1.,1.,1.,1.,1.))
REPRESENTATION_ITEM('')
);
#130=(
BOUNDED_CURVE()
B_SPLINE_CURVE(5,(#848,#849,#850,#851,#852,#853),.UNSPECIFIED.,.F.,.F.)
B_SPLINE_CURVE_WITH_KNOTS((6,6),(0.,0.0655811014675279),.UNSPECIFIED.)
CURVE()
GEOMETRIC_REPRESENTATION_ITEM()
RATIONAL_B_SPLINE_CURVE((1.,1.,1.,1.,1.,1.))
REPRESENTATION_ITEM('')
);
#131=(
BOUNDED_CURVE()
B_SPLINE_CURVE(5,(#869,#870,#871,#872,#873,#874,#875),.UNSPECIFIED.,.F.,
 .F.)
B_SPLINE_CURVE_WITH_KNOTS((6,1,6),(0.677387989190057,0.733333333333333,
0.756201432672007),.UNSPECIFIED.)
CURVE()
GEOMETRIC_REPRESENTATION_ITEM()
RATIONAL_B_SPLINE_CURVE((1.,1.,1.,1.,1.,1.,1.))
REPRESENTATION_ITEM('')
);
#132=(
BOUNDED_CURVE()
B_SPLINE_CURVE(5,(#908,#909,#910,#911,#912,#913,#914,#915,#916,#917,#918,
#919,#920,#921,#922),.UNSPECIFIED.,.F.,.F.)
B_SPLINE_CURVE_WITH_KNOTS((6,1,1,1,1,1,1,1,1,1,6),(-1.,-0.9,-0.8,-0.7,-0.6,
-0.5,-0.4,-0.3,-0.2,-0.1,-0.065581101467567),.UNSPECIFIED.)
CURVE()
GEOMETRIC_REPRESENTATION_ITEM()
RATIONAL_B_SPLINE_CURVE((1.,1.,1.,1.,1.,1.,1.,1.,1.,1.,1.,1.,1.,1.,1.))
REPRESENTATION_ITEM('')
);
#133=(
BOUNDED_CURVE()
B_SPLINE_CURVE(5,(#955,#956,#957,#958,#959,#960,#961,#962,#963,#964,#965,
#966,#967,#968,#969),.UNSPECIFIED.,.F.,.F.)
B_SPLINE_CURVE_WITH_KNOTS((6,1,1,1,1,1,1,1,1,1,6),(-0.655090355548902,-0.6,
-0.533333333333333,-0.466666666666667,-0.4,-0.333333333333333,-0.266666666666667,
-0.2,-0.133333333333333,-0.0666666666666667,0.),.UNSPECIFIED.)
CURVE()
GEOMETRIC_REPRESENTATION_ITEM()
RATIONAL_B_SPLINE_CURVE((1.,1.,1.,1.,1.,1.,1.,1.,1.,1.,1.,1.,1.,1.,1.))
REPRESENTATION_ITEM('')
);
#134=(
BOUNDED_CURVE()
B_SPLINE_CURVE(5,(#1020,#1021,#1022,#1023,#1024,#1025,#1026,#1027,#1028,
#1029,#1030,#1031,#1032,#1033,#1034,#1035,#1036,#1037,#1038,#1039),
 .UNSPECIFIED.,.F.,.F.)
B_SPLINE_CURVE_WITH_KNOTS((6,1,1,1,1,1,1,1,1,1,1,1,1,1,1,6),(-1.,-0.933333333333333,
-0.866666666666667,-0.8,-0.733333333333333,-0.666666666666667,-0.6,-0.533333333333333,
-0.466666666666667,-0.4,-0.333333333333333,-0.266666666666667,-0.2,-0.133333333333333,
-0.0666666666666667,0.),.UNSPECIFIED.)
CURVE()
GEOMETRIC_REPRESENTATION_ITEM()
RATIONAL_B_SPLINE_CURVE((1.,1.,1.,1.,1.,1.,1.,1.,1.,1.,1.,1.,1.,1.,1.,1.,
1.,1.,1.,1.))
REPRESENTATION_ITEM('')
);
#135=(
BOUNDED_CURVE()
B_SPLINE_CURVE(5,(#1065,#1066,#1067,#1068,#1069,#1070,#1071,#1072,#1073,
#1074,#1075,#1076),.UNSPECIFIED.,.F.,.F.)
B_SPLINE_CURVE_WITH_KNOTS((6,1,1,1,1,1,1,6),(0.552799049932927,0.6,0.666666666666667,
0.733333333333333,0.8,0.866666666666667,0.933333333333333,1.),
 .UNSPECIFIED.)
CURVE()
GEOMETRIC_REPRESENTATION_ITEM()
RATIONAL_B_SPLINE_CURVE((1.,1.,1.,1.,1.,1.,1.,1.,1.,1.,1.,1.))
REPRESENTATION_ITEM('')
);
#136=VERTEX_POINT('',#447);
#137=VERTEX_POINT('',#448);
#138=VERTEX_POINT('',#457);
#139=VERTEX_POINT('',#459);
#140=VERTEX_POINT('',#470);
#141=VERTEX_POINT('',#486);
#142=VERTEX_POINT('',#510);
#143=VERTEX_POINT('',#521);
#144=VERTEX_POINT('',#530);
#145=VERTEX_POINT('',#532);
#146=VERTEX_POINT('',#534);
#147=VERTEX_POINT('',#567);
#148=VERTEX_POINT('',#585);
#149=VERTEX_POINT('',#587);
#150=VERTEX_POINT('',#598);
#151=VERTEX_POINT('',#672);
#152=VERTEX_POINT('',#673);
#153=VERTEX_POINT('',#675);
#154=VERTEX_POINT('',#691);
#155=VERTEX_POINT('',#733);
#156=VERTEX_POINT('',#766);
#157=VERTEX_POINT('',#768);
#158=VERTEX_POINT('',#817);
#159=VERTEX_POINT('',#847);
#160=VERTEX_POINT('',#907);
#161=VERTEX_POINT('',#954);
#162=VERTEX_POINT('',#972);
#163=VERTEX_POINT('',#976);
#164=VERTEX_POINT('',#1019);
#165=EDGE_CURVE('',#136,#137,#113,.T.);
#166=EDGE_CURVE('',#136,#138,#75,.T.);
#167=EDGE_CURVE('',#139,#138,#114,.T.);
#168=EDGE_CURVE('',#137,#139,#76,.T.);
#169=EDGE_CURVE('',#138,#140,#115,.T.);
#170=EDGE_CURVE('',#140,#141,#116,.T.);
#171=EDGE_CURVE('',#141,#139,#117,.T.);
#172=EDGE_CURVE('',#137,#142,#118,.T.);
#173=EDGE_CURVE('',#142,#143,#119,.T.);
#174=EDGE_CURVE('',#143,#144,#21,.T.);
#175=EDGE_CURVE('',#145,#144,#22,.T.);
#176=EDGE_CURVE('',#145,#146,#120,.T.);
#177=EDGE_CURVE('',#136,#146,#121,.T.);
#178=EDGE_CURVE('',#147,#147,#23,.T.);
#179=EDGE_CURVE('',#142,#148,#77,.T.);
#180=EDGE_CURVE('',#149,#148,#122,.T.);
#181=EDGE_CURVE('',#143,#149,#78,.T.);
#182=EDGE_CURVE('',#150,#149,#24,.T.);
#183=EDGE_CURVE('',#144,#150,#79,.T.);
#184=EDGE_CURVE('',#137,#139,#80,.T.);
#185=EDGE_CURVE('',#148,#139,#123,.T.);
#186=EDGE_CURVE('',#151,#152,#81,.T.);
#187=EDGE_CURVE('',#153,#152,#124,.T.);
#188=EDGE_CURVE('',#154,#153,#82,.T.);
#189=EDGE_CURVE('',#154,#151,#125,.T.);
#190=EDGE_CURVE('',#139,#141,#126,.T.);
#191=EDGE_CURVE('',#141,#153,#127,.T.);
#192=EDGE_CURVE('',#152,#150,#25,.T.);
#193=EDGE_CURVE('',#155,#155,#26,.T.);
#194=EDGE_CURVE('',#155,#147,#83,.T.);
#195=EDGE_CURVE('',#136,#156,#84,.T.);
#196=EDGE_CURVE('',#157,#156,#128,.T.);
#197=EDGE_CURVE('',#140,#157,#85,.T.);
#198=EDGE_CURVE('',#158,#157,#129,.T.);
#199=EDGE_CURVE('',#141,#158,#86,.T.);
#200=EDGE_CURVE('',#159,#158,#130,.T.);
#201=EDGE_CURVE('',#137,#159,#87,.T.);
#202=EDGE_CURVE('',#158,#159,#131,.T.);
#203=EDGE_CURVE('',#141,#158,#88,.T.);
#204=EDGE_CURVE('',#160,#158,#132,.T.);
#205=EDGE_CURVE('',#154,#160,#89,.T.);
#206=EDGE_CURVE('',#161,#160,#133,.T.);
#207=EDGE_CURVE('',#151,#161,#90,.T.);
#208=EDGE_CURVE('',#162,#161,#27,.T.);
#209=EDGE_CURVE('',#144,#162,#91,.T.);
#210=EDGE_CURVE('',#163,#162,#28,.T.);
#211=EDGE_CURVE('',#145,#163,#92,.T.);
#212=EDGE_CURVE('',#164,#163,#134,.T.);
#213=EDGE_CURVE('',#146,#164,#93,.T.);
#214=EDGE_CURVE('',#156,#164,#135,.T.);
#215=ORIENTED_EDGE('',*,*,#165,.F.);
#216=ORIENTED_EDGE('',*,*,#166,.T.);
#217=ORIENTED_EDGE('',*,*,#167,.F.);
#218=ORIENTED_EDGE('',*,*,#168,.F.);
#219=ORIENTED_EDGE('',*,*,#167,.T.);
#220=ORIENTED_EDGE('',*,*,#169,.T.);
#221=ORIENTED_EDGE('',*,*,#170,.T.);
#222=ORIENTED_EDGE('',*,*,#171,.T.);
#223=ORIENTED_EDGE('',*,*,#165,.T.);
#224=ORIENTED_EDGE('',*,*,#172,.T.);
#225=ORIENTED_EDGE('',*,*,#173,.T.);
#226=ORIENTED_EDGE('',*,*,#174,.T.);
#227=ORIENTED_EDGE('',*,*,#175,.F.);
#228=ORIENTED_EDGE('',*,*,#176,.T.);
#229=ORIENTED_EDGE('',*,*,#177,.F.);
#230=ORIENTED_EDGE('',*,*,#178,.F.);
#231=ORIENTED_EDGE('',*,*,#173,.F.);
#232=ORIENTED_EDGE('',*,*,#179,.T.);
#233=ORIENTED_EDGE('',*,*,#180,.F.);
#234=ORIENTED_EDGE('',*,*,#181,.F.);
#235=ORIENTED_EDGE('',*,*,#174,.F.);
#236=ORIENTED_EDGE('',*,*,#181,.T.);
#237=ORIENTED_EDGE('',*,*,#182,.F.);
#238=ORIENTED_EDGE('',*,*,#183,.F.);
#239=ORIENTED_EDGE('',*,*,#172,.F.);
#240=ORIENTED_EDGE('',*,*,#184,.T.);
#241=ORIENTED_EDGE('',*,*,#185,.F.);
#242=ORIENTED_EDGE('',*,*,#179,.F.);
#243=ORIENTED_EDGE('',*,*,#186,.T.);
#244=ORIENTED_EDGE('',*,*,#187,.F.);
#245=ORIENTED_EDGE('',*,*,#188,.F.);
#246=ORIENTED_EDGE('',*,*,#189,.T.);
#247=ORIENTED_EDGE('',*,*,#190,.T.);
#248=ORIENTED_EDGE('',*,*,#191,.T.);
#249=ORIENTED_EDGE('',*,*,#187,.T.);
#250=ORIENTED_EDGE('',*,*,#192,.T.);
#251=ORIENTED_EDGE('',*,*,#182,.T.);
#252=ORIENTED_EDGE('',*,*,#180,.T.);
#253=ORIENTED_EDGE('',*,*,#185,.T.);
#254=ORIENTED_EDGE('',*,*,#193,.F.);
#255=ORIENTED_EDGE('',*,*,#194,.T.);
#256=ORIENTED_EDGE('',*,*,#178,.T.);
#257=ORIENTED_EDGE('',*,*,#194,.F.);
#258=ORIENTED_EDGE('',*,*,#195,.T.);
#259=ORIENTED_EDGE('',*,*,#196,.F.);
#260=ORIENTED_EDGE('',*,*,#197,.F.);
#261=ORIENTED_EDGE('',*,*,#169,.F.);
#262=ORIENTED_EDGE('',*,*,#166,.F.);
#263=ORIENTED_EDGE('',*,*,#197,.T.);
#264=ORIENTED_EDGE('',*,*,#198,.F.);
#265=ORIENTED_EDGE('',*,*,#199,.F.);
#266=ORIENTED_EDGE('',*,*,#170,.F.);
#267=ORIENTED_EDGE('',*,*,#199,.T.);
#268=ORIENTED_EDGE('',*,*,#200,.F.);
#269=ORIENTED_EDGE('',*,*,#201,.F.);
#270=ORIENTED_EDGE('',*,*,#168,.T.);
#271=ORIENTED_EDGE('',*,*,#171,.F.);
#272=ORIENTED_EDGE('',*,*,#201,.T.);
#273=ORIENTED_EDGE('',*,*,#202,.F.);
#274=ORIENTED_EDGE('',*,*,#203,.F.);
#275=ORIENTED_EDGE('',*,*,#190,.F.);
#276=ORIENTED_EDGE('',*,*,#184,.F.);
#277=ORIENTED_EDGE('',*,*,#203,.T.);
#278=ORIENTED_EDGE('',*,*,#204,.F.);
#279=ORIENTED_EDGE('',*,*,#205,.F.);
#280=ORIENTED_EDGE('',*,*,#188,.T.);
#281=ORIENTED_EDGE('',*,*,#191,.F.);
#282=ORIENTED_EDGE('',*,*,#189,.F.);
#283=ORIENTED_EDGE('',*,*,#205,.T.);
#284=ORIENTED_EDGE('',*,*,#206,.F.);
#285=ORIENTED_EDGE('',*,*,#207,.F.);
#286=ORIENTED_EDGE('',*,*,#207,.T.);
#287=ORIENTED_EDGE('',*,*,#208,.F.);
#288=ORIENTED_EDGE('',*,*,#209,.F.);
#289=ORIENTED_EDGE('',*,*,#183,.T.);
#290=ORIENTED_EDGE('',*,*,#192,.F.);
#291=ORIENTED_EDGE('',*,*,#186,.F.);
#292=ORIENTED_EDGE('',*,*,#175,.T.);
#293=ORIENTED_EDGE('',*,*,#209,.T.);
#294=ORIENTED_EDGE('',*,*,#210,.F.);
#295=ORIENTED_EDGE('',*,*,#211,.F.);
#296=ORIENTED_EDGE('',*,*,#176,.F.);
#297=ORIENTED_EDGE('',*,*,#211,.T.);
#298=ORIENTED_EDGE('',*,*,#212,.F.);
#299=ORIENTED_EDGE('',*,*,#213,.F.);
#300=ORIENTED_EDGE('',*,*,#177,.T.);
#301=ORIENTED_EDGE('',*,*,#213,.T.);
#302=ORIENTED_EDGE('',*,*,#214,.F.);
#303=ORIENTED_EDGE('',*,*,#195,.F.);
#304=ORIENTED_EDGE('',*,*,#214,.T.);
#305=ORIENTED_EDGE('',*,*,#212,.T.);
#306=ORIENTED_EDGE('',*,*,#210,.T.);
#307=ORIENTED_EDGE('',*,*,#208,.T.);
#308=ORIENTED_EDGE('',*,*,#206,.T.);
#309=ORIENTED_EDGE('',*,*,#204,.T.);
#310=ORIENTED_EDGE('',*,*,#202,.T.);
#311=ORIENTED_EDGE('',*,*,#200,.T.);
#312=ORIENTED_EDGE('',*,*,#198,.T.);
#313=ORIENTED_EDGE('',*,*,#196,.T.);
#314=ORIENTED_EDGE('',*,*,#193,.T.);
#315=(
BOUNDED_SURFACE()
B_SPLINE_SURFACE(5,1,((#431,#432),(#433,#434),(#435,#436),(#437,#438),(#439,
#440),(#441,#442),(#443,#444),(#445,#446)),.UNSPECIFIED.,.F.,.F.,.F.)
B_SPLINE_SURFACE_WITH_KNOTS((6,1,1,6),(2,2),(0.42993420932034,0.466666666666667,
0.533333333333333,0.552799049932919),(0.,0.0999999999999996),
 .UNSPECIFIED.)
GEOMETRIC_REPRESENTATION_ITEM()
RATIONAL_B_SPLINE_SURFACE(((1.,1.),(1.,1.),(1.,1.),(1.,1.),(1.,1.),(1.,
1.),(1.,1.),(1.,1.)))
REPRESENTATION_ITEM('')
SURFACE()
);
#316=(
BOUNDED_SURFACE()
B_SPLINE_SURFACE(5,1,((#569,#570),(#571,#572),(#573,#574),(#575,#576),(#577,
#578),(#579,#580),(#581,#582),(#583,#584)),.UNSPECIFIED.,.F.,.F.,.F.)
B_SPLINE_SURFACE_WITH_KNOTS((6,1,1,6),(2,2),(0.,0.0666666666666667,0.133333333333333,
0.155158292325472),(0.,0.0999999999999996),.UNSPECIFIED.)
GEOMETRIC_REPRESENTATION_ITEM()
RATIONAL_B_SPLINE_SURFACE(((1.,1.),(1.,1.),(1.,1.),(1.,1.),(1.,1.),(1.,
1.),(1.,1.),(1.,1.)))
REPRESENTATION_ITEM('')
SURFACE()
);
#317=(
BOUNDED_SURFACE()
B_SPLINE_SURFACE(5,1,((#601,#602),(#603,#604),(#605,#606),(#607,#608),(#609,
#610),(#611,#612),(#613,#614),(#615,#616),(#617,#618),(#619,#620)),
 .UNSPECIFIED.,.F.,.F.,.F.)
B_SPLINE_SURFACE_WITH_KNOTS((6,1,1,1,1,6),(2,2),(0.155158292325472,0.2,
0.266666666666667,0.333333333333333,0.4,0.429934209261731),(0.,0.0999999999999996),
 .UNSPECIFIED.)
GEOMETRIC_REPRESENTATION_ITEM()
RATIONAL_B_SPLINE_SURFACE(((1.,1.),(1.,1.),(1.,1.),(1.,1.),(1.,1.),(1.,
1.),(1.,1.),(1.,1.),(1.,1.),(1.,1.)))
REPRESENTATION_ITEM('')
SURFACE()
);
#318=(
BOUNDED_SURFACE()
B_SPLINE_SURFACE(5,1,((#632,#633),(#634,#635),(#636,#637),(#638,#639),(#640,
#641),(#642,#643),(#644,#645),(#646,#647),(#648,#649),(#650,#651),(#652,
#653),(#654,#655),(#656,#657),(#658,#659),(#660,#661),(#662,#663),(#664,
#665),(#666,#667),(#668,#669),(#670,#671)),.UNSPECIFIED.,.F.,.F.,.F.)
B_SPLINE_SURFACE_WITH_KNOTS((6,1,1,1,1,1,1,1,1,1,1,1,1,1,1,6),(2,2),(0.,
0.0666666666666667,0.133333333333333,0.2,0.266666666666667,0.333333333333333,
0.4,0.466666666666667,0.533333333333333,0.6,0.666666666666667,0.733333333333333,
0.8,0.866666666666667,0.933333333333333,1.),(0.,0.0999999999999996),
 .UNSPECIFIED.)
GEOMETRIC_REPRESENTATION_ITEM()
RATIONAL_B_SPLINE_SURFACE(((1.,1.),(1.,1.),(1.,1.),(1.,1.),(1.,1.),(1.,
1.),(1.,1.),(1.,1.),(1.,1.),(1.,1.),(1.,1.),(1.,1.),(1.,1.),(1.,1.),(1.,
1.),(1.,1.),(1.,1.),(1.,1.),(1.,1.),(1.,1.)))
REPRESENTATION_ITEM('')
SURFACE()
);
#319=(
BOUNDED_SURFACE()
B_SPLINE_SURFACE(5,1,((#736,#737),(#738,#739),(#740,#741),(#742,#743),(#744,
#745),(#746,#747),(#748,#749),(#750,#751),(#752,#753),(#754,#755),(#756,
#757),(#758,#759),(#760,#761),(#762,#763),(#764,#765)),.UNSPECIFIED.,.F.,
 .F.,.F.)
B_SPLINE_SURFACE_WITH_KNOTS((6,1,1,1,1,1,1,1,1,1,6),(2,2),(-0.984274788944015,
-0.9,-0.8,-0.7,-0.6,-0.5,-0.4,-0.3,-0.2,-0.1,0.),(-0.0999999999999996,0.0999999999999996),
 .UNSPECIFIED.)
GEOMETRIC_REPRESENTATION_ITEM()
RATIONAL_B_SPLINE_SURFACE(((1.,1.),(1.,1.),(1.,1.),(1.,1.),(1.,1.),(1.,
1.),(1.,1.),(1.,1.),(1.,1.),(1.,1.),(1.,1.),(1.,1.),(1.,1.),(1.,1.),(1.,
1.)))
REPRESENTATION_ITEM('')
SURFACE()
);
#320=(
BOUNDED_SURFACE()
B_SPLINE_SURFACE(5,1,((#785,#786),(#787,#788),(#789,#790),(#791,#792),(#793,
#794),(#795,#796),(#797,#798),(#799,#800),(#801,#802),(#803,#804),(#805,
#806),(#807,#808),(#809,#810),(#811,#812),(#813,#814),(#815,#816)),
 .UNSPECIFIED.,.F.,.F.,.F.)
B_SPLINE_SURFACE_WITH_KNOTS((6,1,1,1,1,1,1,1,1,1,1,6),(2,2),(-0.677387989190057,
-0.666666666666667,-0.6,-0.533333333333333,-0.466666666666667,-0.4,-0.333333333333333,
-0.266666666666667,-0.2,-0.133333333333333,-0.0666666666666667,-0.0251713091719709),
(-0.0999999999999996,0.0999999999999996),.UNSPECIFIED.)
GEOMETRIC_REPRESENTATION_ITEM()
RATIONAL_B_SPLINE_SURFACE(((1.,1.),(1.,1.),(1.,1.),(1.,1.),(1.,1.),(1.,
1.),(1.,1.),(1.,1.),(1.,1.),(1.,1.),(1.,1.),(1.,1.),(1.,1.),(1.,1.),(1.,
1.),(1.,1.)))
REPRESENTATION_ITEM('')
SURFACE()
);
#321=(
BOUNDED_SURFACE()
B_SPLINE_SURFACE(5,1,((#835,#836),(#837,#838),(#839,#840),(#841,#842),(#843,
#844),(#845,#846)),.UNSPECIFIED.,.F.,.F.,.F.)
B_SPLINE_SURFACE_WITH_KNOTS((6,6),(2,2),(0.,0.0655811014675279),(-0.0999999999999996,
0.0999999999999996),.UNSPECIFIED.)
GEOMETRIC_REPRESENTATION_ITEM()
RATIONAL_B_SPLINE_SURFACE(((1.,1.),(1.,1.),(1.,1.),(1.,1.),(1.,1.),(1.,
1.)))
REPRESENTATION_ITEM('')
SURFACE()
);
#322=(
BOUNDED_SURFACE()
B_SPLINE_SURFACE(5,1,((#855,#856),(#857,#858),(#859,#860),(#861,#862),(#863,
#864),(#865,#866),(#867,#868)),.UNSPECIFIED.,.F.,.F.,.F.)
B_SPLINE_SURFACE_WITH_KNOTS((6,1,6),(2,2),(0.677387989190057,0.733333333333333,
0.756201432672007),(-0.0999999999999996,0.0999999999999996),
 .UNSPECIFIED.)
GEOMETRIC_REPRESENTATION_ITEM()
RATIONAL_B_SPLINE_SURFACE(((1.,1.),(1.,1.),(1.,1.),(1.,1.),(1.,1.),(1.,
1.),(1.,1.)))
REPRESENTATION_ITEM('')
SURFACE()
);
#323=(
BOUNDED_SURFACE()
B_SPLINE_SURFACE(5,1,((#877,#878),(#879,#880),(#881,#882),(#883,#884),(#885,
#886),(#887,#888),(#889,#890),(#891,#892),(#893,#894),(#895,#896),(#897,
#898),(#899,#900),(#901,#902),(#903,#904),(#905,#906)),.UNSPECIFIED.,.F.,
 .F.,.F.)
B_SPLINE_SURFACE_WITH_KNOTS((6,1,1,1,1,1,1,1,1,1,6),(2,2),(-1.,-0.9,-0.8,
-0.7,-0.6,-0.5,-0.4,-0.3,-0.2,-0.1,-0.065581101467567),(-0.0999999999999996,
0.0999999999999996),.UNSPECIFIED.)
GEOMETRIC_REPRESENTATION_ITEM()
RATIONAL_B_SPLINE_SURFACE(((1.,1.),(1.,1.),(1.,1.),(1.,1.),(1.,1.),(1.,
1.),(1.,1.),(1.,1.),(1.,1.),(1.,1.),(1.,1.),(1.,1.),(1.,1.),(1.,1.),(1.,
1.)))
REPRESENTATION_ITEM('')
SURFACE()
);
#324=(
BOUNDED_SURFACE()
B_SPLINE_SURFACE(5,1,((#924,#925),(#926,#927),(#928,#929),(#930,#931),(#932,
#933),(#934,#935),(#936,#937),(#938,#939),(#940,#941),(#942,#943),(#944,
#945),(#946,#947),(#948,#949),(#950,#951),(#952,#953)),.UNSPECIFIED.,.F.,
 .F.,.F.)
B_SPLINE_SURFACE_WITH_KNOTS((6,1,1,1,1,1,1,1,1,1,6),(2,2),(-0.655090355548902,
-0.6,-0.533333333333333,-0.466666666666667,-0.4,-0.333333333333333,-0.266666666666667,
-0.2,-0.133333333333333,-0.0666666666666667,0.),(0.,0.0999999999999996),
 .UNSPECIFIED.)
GEOMETRIC_REPRESENTATION_ITEM()
RATIONAL_B_SPLINE_SURFACE(((1.,1.),(1.,1.),(1.,1.),(1.,1.),(1.,1.),(1.,
1.),(1.,1.),(1.,1.),(1.,1.),(1.,1.),(1.,1.),(1.,1.),(1.,1.),(1.,1.),(1.,
1.)))
REPRESENTATION_ITEM('')
SURFACE()
);
#325=(
BOUNDED_SURFACE()
B_SPLINE_SURFACE(5,1,((#979,#980),(#981,#982),(#983,#984),(#985,#986),(#987,
#988),(#989,#990),(#991,#992),(#993,#994),(#995,#996),(#997,#998),(#999,
#1000),(#1001,#1002),(#1003,#1004),(#1005,#1006),(#1007,#1008),(#1009,#1010),
(#1011,#1012),(#1013,#1014),(#1015,#1016),(#1017,#1018)),.UNSPECIFIED.,
 .F.,.F.,.F.)
B_SPLINE_SURFACE_WITH_KNOTS((6,1,1,1,1,1,1,1,1,1,1,1,1,1,1,6),(2,2),(-1.,
-0.933333333333333,-0.866666666666667,-0.8,-0.733333333333333,-0.666666666666667,
-0.6,-0.533333333333333,-0.466666666666667,-0.4,-0.333333333333333,-0.266666666666667,
-0.2,-0.133333333333333,-0.0666666666666667,0.),(0.,0.0999999999999996),
 .UNSPECIFIED.)
GEOMETRIC_REPRESENTATION_ITEM()
RATIONAL_B_SPLINE_SURFACE(((1.,1.),(1.,1.),(1.,1.),(1.,1.),(1.,1.),(1.,
1.),(1.,1.),(1.,1.),(1.,1.),(1.,1.),(1.,1.),(1.,1.),(1.,1.),(1.,1.),(1.,
1.),(1.,1.),(1.,1.),(1.,1.),(1.,1.),(1.,1.)))
REPRESENTATION_ITEM('')
SURFACE()
);
#326=(
BOUNDED_SURFACE()
B_SPLINE_SURFACE(5,1,((#1041,#1042),(#1043,#1044),(#1045,#1046),(#1047,
#1048),(#1049,#1050),(#1051,#1052),(#1053,#1054),(#1055,#1056),(#1057,#1058),
(#1059,#1060),(#1061,#1062),(#1063,#1064)),.UNSPECIFIED.,.F.,.F.,.F.)
B_SPLINE_SURFACE_WITH_KNOTS((6,1,1,1,1,1,1,6),(2,2),(0.552799049932927,
0.6,0.666666666666667,0.733333333333333,0.8,0.866666666666667,0.933333333333333,
1.),(0.,0.0999999999999996),.UNSPECIFIED.)
GEOMETRIC_REPRESENTATION_ITEM()
RATIONAL_B_SPLINE_SURFACE(((1.,1.),(1.,1.),(1.,1.),(1.,1.),(1.,1.),(1.,
1.),(1.,1.),(1.,1.),(1.,1.),(1.,1.),(1.,1.),(1.,1.)))
REPRESENTATION_ITEM('')
SURFACE()
);
#327=ADVANCED_FACE('',(#33),#315,.T.);
#328=ADVANCED_FACE('',(#34),#29,.F.);
#329=ADVANCED_FACE('',(#35,#19),#30,.F.);
#330=ADVANCED_FACE('',(#36),#316,.T.);
#331=ADVANCED_FACE('',(#37),#15,.F.);
#332=ADVANCED_FACE('',(#38),#317,.T.);
#333=ADVANCED_FACE('',(#39),#318,.T.);
#334=ADVANCED_FACE('',(#40),#31,.F.);
#335=ADVANCED_FACE('',(#41),#16,.F.);
#336=ADVANCED_FACE('',(#42),#319,.T.);
#337=ADVANCED_FACE('',(#43),#320,.T.);
#338=ADVANCED_FACE('',(#44),#321,.T.);
#339=ADVANCED_FACE('',(#45),#322,.T.);
#340=ADVANCED_FACE('',(#46),#323,.T.);
#341=ADVANCED_FACE('',(#47),#324,.T.);
#342=ADVANCED_FACE('',(#48),#17,.T.);
#343=ADVANCED_FACE('',(#49),#18,.T.);
#344=ADVANCED_FACE('',(#50),#325,.T.);
#345=ADVANCED_FACE('',(#51),#326,.T.);
#346=ADVANCED_FACE('',(#52,#20),#32,.T.);
#347=CLOSED_SHELL('',(#327,#328,#329,#330,#331,#332,#333,#334,#335,#336,
#337,#338,#339,#340,#341,#342,#343,#344,#345,#346));
#348=DERIVED_UNIT_ELEMENT(#350,1.);
#349=DERIVED_UNIT_ELEMENT(#1083,-3.);
#350=(
MASS_UNIT()
NAMED_UNIT(*)
SI_UNIT(.KILO.,.GRAM.)
);
#351=DERIVED_UNIT((#348,#349));
#352=MEASURE_REPRESENTATION_ITEM('density measure',
POSITIVE_RATIO_MEASURE(7850.),#351);
#353=PROPERTY_DEFINITION_REPRESENTATION(#358,#355);
#354=PROPERTY_DEFINITION_REPRESENTATION(#359,#356);
#355=REPRESENTATION('material name',(#357),#1080);
#356=REPRESENTATION('density',(#352),#1080);
#357=DESCRIPTIVE_REPRESENTATION_ITEM('Steel','Steel');
#358=PROPERTY_DEFINITION('material property','material name',#1090);
#359=PROPERTY_DEFINITION('material property','density of part',#1090);
#360=AXIS2_PLACEMENT_3D('',#430,#377,#378);
#361=AXIS2_PLACEMENT_3D('',#469,#381,#382);
#362=AXIS2_PLACEMENT_3D('',#509,#383,#384);
#363=AXIS2_PLACEMENT_3D('',#531,#385,#386);
#364=AXIS2_PLACEMENT_3D('',#533,#387,#388);
#365=AXIS2_PLACEMENT_3D('',#568,#389,#390);
#366=AXIS2_PLACEMENT_3D('',#597,#393,#394);
#367=AXIS2_PLACEMENT_3D('',#599,#395,#396);
#368=AXIS2_PLACEMENT_3D('',#708,#401,#402);
#369=AXIS2_PLACEMENT_3D('',#731,#403,#404);
#370=AXIS2_PLACEMENT_3D('',#732,#405,#406);
#371=AXIS2_PLACEMENT_3D('',#734,#407,#408);
#372=AXIS2_PLACEMENT_3D('',#971,#417,#418);
#373=AXIS2_PLACEMENT_3D('',#973,#419,#420);
#374=AXIS2_PLACEMENT_3D('',#975,#422,#423);
#375=AXIS2_PLACEMENT_3D('',#977,#424,#425);
#376=AXIS2_PLACEMENT_3D('',#1077,#428,#429);
#377=DIRECTION('axis',(0.,0.,1.));
#378=DIRECTION('refdir',(1.,0.,0.));
#379=DIRECTION('',(0.,0.,1.));
#380=DIRECTION('',(0.,0.,1.));
#381=DIRECTION('center_axis',(0.,0.,-1.));
#382=DIRECTION('ref_axis',(-1.,0.,0.));
#383=DIRECTION('center_axis',(0.,0.,-1.));
#384=DIRECTION('ref_axis',(-1.,0.,0.));
#385=DIRECTION('center_axis',(0.,0.,1.));
#386=DIRECTION('ref_axis',(0.477367616190063,0.878703681005728,0.));
#387=DIRECTION('center_axis',(0.,0.,-1.));
#388=DIRECTION('ref_axis',(0.477367616190063,0.878703681005728,0.));
#389=DIRECTION('center_axis',(0.,0.,1.));
#390=DIRECTION('ref_axis',(-1.,0.,0.));
#391=DIRECTION('',(0.,0.,1.));
#392=DIRECTION('',(0.,0.,1.));
#393=DIRECTION('center_axis',(0.,0.,1.));
#394=DIRECTION('ref_axis',(-0.443047738669713,-0.896498020778436,0.));
#395=DIRECTION('center_axis',(0.,0.,-1.));
#396=DIRECTION('ref_axis',(0.477367616190063,0.878703681005728,0.));
#397=DIRECTION('',(0.,0.,1.));
#398=DIRECTION('',(0.,0.,1.));
#399=DIRECTION('',(0.,0.,1.));
#400=DIRECTION('',(0.,0.,1.));
#401=DIRECTION('center_axis',(0.,0.,-1.));
#402=DIRECTION('ref_axis',(-1.,0.,0.));
#403=DIRECTION('center_axis',(0.,0.,1.));
#404=DIRECTION('ref_axis',(0.0153286150343962,-0.999882509878599,0.));
#405=DIRECTION('center_axis',(0.,0.,-1.));
#406=DIRECTION('ref_axis',(-1.,0.,0.));
#407=DIRECTION('center_axis',(0.,0.,1.));
#408=DIRECTION('ref_axis',(-1.,0.,0.));
#409=DIRECTION('',(0.,0.,1.));
#410=DIRECTION('',(0.,0.,-1.));
#411=DIRECTION('',(0.,0.,-1.));
#412=DIRECTION('',(0.,0.,-1.));
#413=DIRECTION('',(0.,0.,-1.));
#414=DIRECTION('',(0.,0.,-1.));
#415=DIRECTION('',(0.,0.,-1.));
#416=DIRECTION('',(0.,0.,-1.));
#417=DIRECTION('center_axis',(0.,0.,-1.));
#418=DIRECTION('ref_axis',(0.0153286150343962,-0.999882509878599,0.));
#419=DIRECTION('center_axis',(0.,0.,-1.));
#420=DIRECTION('ref_axis',(0.0153286150343962,-0.999882509878599,0.));
#421=DIRECTION('',(0.,0.,-1.));
#422=DIRECTION('center_axis',(0.,0.,-1.));
#423=DIRECTION('ref_axis',(0.477367616190063,0.878703681005728,0.));
#424=DIRECTION('center_axis',(0.,0.,-1.));
#425=DIRECTION('ref_axis',(0.477367616190063,0.878703681005728,0.));
#426=DIRECTION('',(0.,0.,-1.));
#427=DIRECTION('',(0.,0.,-1.));
#428=DIRECTION('center_axis',(0.,0.,-1.));
#429=DIRECTION('ref_axis',(-1.,0.,0.));
#430=CARTESIAN_POINT('',(0.,0.,0.));
#431=CARTESIAN_POINT('Ctrl Pts',(-49.424581560863,-17.1742865764397,-46.35));
#432=CARTESIAN_POINT('Ctrl Pts',(-49.424581560863,-17.1742865764397,-45.35));
#433=CARTESIAN_POINT('Ctrl Pts',(-49.9943380977632,-16.4741526153637,-46.35));
#434=CARTESIAN_POINT('Ctrl Pts',(-49.9943380977632,-16.4741526153637,-45.35));
#435=CARTESIAN_POINT('Ctrl Pts',(-51.5848312577379,-14.4830077024869,-46.35));
#436=CARTESIAN_POINT('Ctrl Pts',(-51.5848312577379,-14.4830077024869,-45.35));
#437=CARTESIAN_POINT('Ctrl Pts',(-53.4300883525484,-12.0561649461042,-46.35));
#438=CARTESIAN_POINT('Ctrl Pts',(-53.4300883525484,-12.0561649461042,-45.35));
#439=CARTESIAN_POINT('Ctrl Pts',(-55.222144633916,-9.58277784683387,-46.35));
#440=CARTESIAN_POINT('Ctrl Pts',(-55.222144633916,-9.58277784683387,-45.35));
#441=CARTESIAN_POINT('Ctrl Pts',(-56.9610931325976,-7.09786495535768,-46.35));
#442=CARTESIAN_POINT('Ctrl Pts',(-56.9610931325976,-7.09786495535768,-45.35));
#443=CARTESIAN_POINT('Ctrl Pts',(-58.1541285267525,-5.36275492000329,-46.35));
#444=CARTESIAN_POINT('Ctrl Pts',(-58.1541285267525,-5.36275492000329,-45.35));
#445=CARTESIAN_POINT('Ctrl Pts',(-58.4224233980386,-4.9711220167533,-46.35));
#446=CARTESIAN_POINT('Ctrl Pts',(-58.4224233980386,-4.9711220167533,-45.35));
#447=CARTESIAN_POINT('',(-58.4224233980386,-4.9711220167533,-46.35));
#448=CARTESIAN_POINT('',(-49.4245815563176,-17.1742865820252,-46.35));
#449=CARTESIAN_POINT('Ctrl Pts',(-58.4224233980386,-4.9711220167533,-46.35));
#450=CARTESIAN_POINT('Ctrl Pts',(-58.1541285267525,-5.36275492000329,-46.35));
#451=CARTESIAN_POINT('Ctrl Pts',(-56.9610931325976,-7.09786495535768,-46.35));
#452=CARTESIAN_POINT('Ctrl Pts',(-55.222144633916,-9.58277784683386,-46.35));
#453=CARTESIAN_POINT('Ctrl Pts',(-53.4300883525484,-12.0561649461042,-46.35));
#454=CARTESIAN_POINT('Ctrl Pts',(-51.584831257738,-14.4830077024869,-46.35));
#455=CARTESIAN_POINT('Ctrl Pts',(-49.9943380977632,-16.4741526153638,-46.35));
#456=CARTESIAN_POINT('Ctrl Pts',(-49.424581560863,-17.1742865764397,-46.35));
#457=CARTESIAN_POINT('',(-58.4224233980386,-4.9711220167533,-45.35));
#458=CARTESIAN_POINT('',(-58.4224233980386,-4.9711220167533,-46.35));
#459=CARTESIAN_POINT('',(-49.4245815563176,-17.1742865820252,-45.35));
#460=CARTESIAN_POINT('Ctrl Pts',(-49.424581560863,-17.1742865764397,-45.35));
#461=CARTESIAN_POINT('Ctrl Pts',(-49.9943380977632,-16.4741526153638,-45.35));
#462=CARTESIAN_POINT('Ctrl Pts',(-51.584831257738,-14.4830077024869,-45.35));
#463=CARTESIAN_POINT('Ctrl Pts',(-53.4300883525484,-12.0561649461042,-45.35));
#464=CARTESIAN_POINT('Ctrl Pts',(-55.222144633916,-9.58277784683386,-45.35));
#465=CARTESIAN_POINT('Ctrl Pts',(-56.9610931325976,-7.09786495535768,-45.35));
#466=CARTESIAN_POINT('Ctrl Pts',(-58.1541285267525,-5.36275492000329,-45.35));
#467=CARTESIAN_POINT('Ctrl Pts',(-58.4224233980386,-4.9711220167533,-45.35));
#468=CARTESIAN_POINT('',(-49.4245815563176,-17.1742865820252,-46.35));
#469=CARTESIAN_POINT('Origin',(-66.3869820007344,-8.53779371393019,-45.35));
#470=CARTESIAN_POINT('',(-83.3493824451512,-1.59467422065646,-45.35));
#471=CARTESIAN_POINT('Ctrl Pts',(-58.4224233980386,-4.9711220167533,-45.35));
#472=CARTESIAN_POINT('Ctrl Pts',(-59.0759647497218,-4.67858497514587,-45.35));
#473=CARTESIAN_POINT('Ctrl Pts',(-60.3708690326018,-4.11205791604953,-45.35));
#474=CARTESIAN_POINT('Ctrl Pts',(-62.2766920290411,-3.31790560732723,-45.35));
#475=CARTESIAN_POINT('Ctrl Pts',(-64.743504662872,-2.37216711996734,-45.35));
#476=CARTESIAN_POINT('Ctrl Pts',(-67.6940014895679,-1.39257413729964,-45.35));
#477=CARTESIAN_POINT('Ctrl Pts',(-70.4970832842831,-0.637485650654253,-45.35));
#478=CARTESIAN_POINT('Ctrl Pts',(-73.135926913124,-0.132522311780146,-45.35));
#479=CARTESIAN_POINT('Ctrl Pts',(-75.5950250684169,0.0986991541648575,-45.35));
#480=CARTESIAN_POINT('Ctrl Pts',(-77.8678175970999,0.0461880166759792,-45.35));
#481=CARTESIAN_POINT('Ctrl Pts',(-79.8959204367987,-0.268459444468,-45.35));
#482=CARTESIAN_POINT('Ctrl Pts',(-81.3813398889698,-0.706813733372728,-45.35));
#483=CARTESIAN_POINT('Ctrl Pts',(-82.4160624084414,-1.12878484425914,-45.35));
#484=CARTESIAN_POINT('Ctrl Pts',(-83.0602893273601,-1.44268965939266,-45.35));
#485=CARTESIAN_POINT('Ctrl Pts',(-83.3493824451512,-1.59467422065644,-45.35));
#486=CARTESIAN_POINT('',(-52.4945536353452,-16.2582873249489,-45.35));
#487=CARTESIAN_POINT('Ctrl Pts',(-83.3493824451512,-1.59467422065646,-45.35));
#488=CARTESIAN_POINT('Ctrl Pts',(-83.0374171420205,-1.55884651679364,-45.35));
#489=CARTESIAN_POINT('Ctrl Pts',(-82.2140779608628,-1.49102105940975,-45.35));
#490=CARTESIAN_POINT('Ctrl Pts',(-80.8403671332645,-1.48924015886566,-45.35));
#491=CARTESIAN_POINT('Ctrl Pts',(-78.8465340189511,-1.72894559541678,-45.35));
#492=CARTESIAN_POINT('Ctrl Pts',(-76.1318583566357,-2.464762600486,-45.35));
#493=CARTESIAN_POINT('Ctrl Pts',(-72.9981563249066,-3.76383872567401,-45.35));
#494=CARTESIAN_POINT('Ctrl Pts',(-69.6878027425564,-5.52521119162389,-45.35));
#495=CARTESIAN_POINT('Ctrl Pts',(-66.2426245610041,-7.6621539904491,-45.35));
#496=CARTESIAN_POINT('Ctrl Pts',(-62.7360952284038,-10.0184553880692,-45.35));
#497=CARTESIAN_POINT('Ctrl Pts',(-59.2652287472077,-12.3862418777173,-45.35));
#498=CARTESIAN_POINT('Ctrl Pts',(-56.4968797842639,-14.1722026327511,-45.35));
#499=CARTESIAN_POINT('Ctrl Pts',(-54.520867718706,-15.2999755818928,-45.35));
#500=CARTESIAN_POINT('Ctrl Pts',(-53.2461372418046,-15.9278235361898,-45.35));
#501=CARTESIAN_POINT('Ctrl Pts',(-52.5855937107881,-16.2188666869086,-45.35));
#502=CARTESIAN_POINT('Ctrl Pts',(-52.4945536353452,-16.2582873249489,-45.35));
#503=CARTESIAN_POINT('Ctrl Pts',(-52.4945536353452,-16.2582873249489,-45.35));
#504=CARTESIAN_POINT('Ctrl Pts',(-51.8894404004038,-16.4344377152359,-45.35));
#505=CARTESIAN_POINT('Ctrl Pts',(-51.2798625809709,-16.614131881436,-45.35));
#506=CARTESIAN_POINT('Ctrl Pts',(-50.6658523240771,-16.7973443067576,-45.35));
#507=CARTESIAN_POINT('Ctrl Pts',(-50.0474253441219,-16.9840625178538,-45.35));
#508=CARTESIAN_POINT('Ctrl Pts',(-49.4245815563176,-17.1742865820252,-45.35));
#509=CARTESIAN_POINT('Origin',(-36.1087638946354,-11.0002319337763,-46.35));
#510=CARTESIAN_POINT('',(-25.557864878562,-37.2343242973192,-46.35));
#511=CARTESIAN_POINT('Ctrl Pts',(-49.4245815563175,-17.1742865820253,-46.35));
#512=CARTESIAN_POINT('Ctrl Pts',(-48.9602725327226,-17.744843468626,-46.35));
#513=CARTESIAN_POINT('Ctrl Pts',(-47.4517500151867,-19.5706205769184,-46.35));
#514=CARTESIAN_POINT('Ctrl Pts',(-44.8468862927336,-22.5648293953529,-46.35));
#515=CARTESIAN_POINT('Ctrl Pts',(-41.0476375235157,-26.5120311023137,-46.35));
#516=CARTESIAN_POINT('Ctrl Pts',(-36.292429433287,-30.6711234088732,-46.35));
#517=CARTESIAN_POINT('Ctrl Pts',(-31.8598368505705,-33.7861517124266,-46.35));
#518=CARTESIAN_POINT('Ctrl Pts',(-28.5348804732768,-35.7288531068299,-46.35));
#519=CARTESIAN_POINT('Ctrl Pts',(-26.4160242653567,-36.8172428488657,-46.35));
#520=CARTESIAN_POINT('Ctrl Pts',(-25.557864878562,-37.2343242973192,-46.35));
#521=CARTESIAN_POINT('',(-10.0000001490116,-42.0000006258488,-46.35));
#522=CARTESIAN_POINT('Ctrl Pts',(-25.557864878562,-37.2343242973192,-46.35));
#523=CARTESIAN_POINT('Ctrl Pts',(-25.1401891387919,-37.4373224876413,-46.35));
#524=CARTESIAN_POINT('Ctrl Pts',(-23.4408311357759,-38.2406133631834,-46.35));
#525=CARTESIAN_POINT('Ctrl Pts',(-20.4198438518024,-39.5084246008803,-46.35));
#526=CARTESIAN_POINT('Ctrl Pts',(-17.3275014067119,-40.5301481717063,-46.35));
#527=CARTESIAN_POINT('Ctrl Pts',(-14.1654179579235,-41.3086172671848,-46.35));
#528=CARTESIAN_POINT('Ctrl Pts',(-11.3969940305808,-41.7992607164802,-46.35));
#529=CARTESIAN_POINT('Ctrl Pts',(-10.0000001490116,-42.0000006258488,-46.35));
#530=CARTESIAN_POINT('',(-4.5104977336832,-44.7129030251439,-46.35));
#531=CARTESIAN_POINT('Origin',(-1.5159706122703,-31.7431397292351,-46.35));
#532=CARTESIAN_POINT('',(4.8382559489818,-20.0467403926417,-46.35));
#533=CARTESIAN_POINT('Origin',(-1.5159706122703,-31.7431397292351,-46.35));
#534=CARTESIAN_POINT('',(-82.4417871150557,22.9547947666717,-46.35));
#535=CARTESIAN_POINT('Ctrl Pts',(4.8382559489818,-20.0467403926417,-46.35));
#536=CARTESIAN_POINT('Ctrl Pts',(3.43890741070911,-20.2303489022084,-46.35));
#537=CARTESIAN_POINT('Ctrl Pts',(0.640770133953104,-20.5048116797222,-46.35));
#538=CARTESIAN_POINT('Ctrl Pts',(-3.55475588853421,-20.6382477382615,-46.35));
#539=CARTESIAN_POINT('Ctrl Pts',(-9.14541091690115,-20.2555602699167,-46.35));
#540=CARTESIAN_POINT('Ctrl Pts',(-16.1243374019029,-18.8278069525708,-46.35));
#541=CARTESIAN_POINT('Ctrl Pts',(-23.0828544585302,-16.4477785980911,-46.35));
#542=CARTESIAN_POINT('Ctrl Pts',(-29.9987707851091,-13.1457884733613,-46.35));
#543=CARTESIAN_POINT('Ctrl Pts',(-36.8351412347091,-9.00638214798933,-46.35));
#544=CARTESIAN_POINT('Ctrl Pts',(-43.535233503975,-4.20001378643243,-46.35));
#545=CARTESIAN_POINT('Ctrl Pts',(-50.0210467201976,1.00318834922005,-46.35));
#546=CARTESIAN_POINT('Ctrl Pts',(-56.2028809580916,6.27977593422455,-46.35));
#547=CARTESIAN_POINT('Ctrl Pts',(-61.9869899731613,11.2852005746779,-46.35));
#548=CARTESIAN_POINT('Ctrl Pts',(-67.2851854167832,15.6913773594448,-46.35));
#549=CARTESIAN_POINT('Ctrl Pts',(-72.0240381219582,19.2199093803312,-46.35));
#550=CARTESIAN_POINT('Ctrl Pts',(-76.1585355538831,21.6868948860701,-46.35));
#551=CARTESIAN_POINT('Ctrl Pts',(-78.9752005716411,22.7591209006398,-46.35));
#552=CARTESIAN_POINT('Ctrl Pts',(-80.8140993805652,23.0536469995364,-46.35));
#553=CARTESIAN_POINT('Ctrl Pts',(-81.9193409117665,23.025213032683,-46.35));
#554=CARTESIAN_POINT('Ctrl Pts',(-82.4417871150557,22.9547947666717,-46.35));
#555=CARTESIAN_POINT('Ctrl Pts',(-58.4224233980386,-4.9711220167533,-46.35));
#556=CARTESIAN_POINT('Ctrl Pts',(-59.0729914240368,-4.02148088659718,-46.35));
#557=CARTESIAN_POINT('Ctrl Pts',(-60.6235808233149,-1.73762805397325,-46.35));
#558=CARTESIAN_POINT('Ctrl Pts',(-63.0100610394171,1.83719668866827,-46.35));
#559=CARTESIAN_POINT('Ctrl Pts',(-66.1224333990832,6.5305440299009,-46.35));
#560=CARTESIAN_POINT('Ctrl Pts',(-69.8068798863787,11.8715223801316,-46.35));
#561=CARTESIAN_POINT('Ctrl Pts',(-73.4180165322288,16.5477340208362,-46.35));
#562=CARTESIAN_POINT('Ctrl Pts',(-76.7336108599848,20.038711069432,-46.35));
#563=CARTESIAN_POINT('Ctrl Pts',(-79.15654318157,21.8311031620272,-46.35));
#564=CARTESIAN_POINT('Ctrl Pts',(-80.8477884438623,22.6108363953659,-46.35));
#565=CARTESIAN_POINT('Ctrl Pts',(-81.919716013399,22.8816474336059,-46.35));
#566=CARTESIAN_POINT('Ctrl Pts',(-82.4417871150557,22.9547947666717,-46.35));
#567=CARTESIAN_POINT('',(9.00000005960464,-30.0000004470348,-46.35));
#568=CARTESIAN_POINT('Origin',(4.00000005960464,-30.0000004470348,-46.35));
#569=CARTESIAN_POINT('Ctrl Pts',(-10.0000001490116,-42.0000006258488,-46.35));
#570=CARTESIAN_POINT('Ctrl Pts',(-10.0000001490116,-42.0000006258488,-45.35));
#571=CARTESIAN_POINT('Ctrl Pts',(-11.3969940305808,-41.7992607164802,-46.35));
#572=CARTESIAN_POINT('Ctrl Pts',(-11.3969940305808,-41.7992607164802,-45.35));
#573=CARTESIAN_POINT('Ctrl Pts',(-14.1654179579235,-41.3086172671848,-46.35));
#574=CARTESIAN_POINT('Ctrl Pts',(-14.1654179579235,-41.3086172671848,-45.35));
#575=CARTESIAN_POINT('Ctrl Pts',(-17.3275014067119,-40.5301481717063,-46.35));
#576=CARTESIAN_POINT('Ctrl Pts',(-17.3275014067119,-40.5301481717063,-45.35));
#577=CARTESIAN_POINT('Ctrl Pts',(-20.4198438518024,-39.5084246008803,-46.35));
#578=CARTESIAN_POINT('Ctrl Pts',(-20.4198438518024,-39.5084246008803,-45.35));
#579=CARTESIAN_POINT('Ctrl Pts',(-23.4408311357759,-38.2406133631834,-46.35));
#580=CARTESIAN_POINT('Ctrl Pts',(-23.4408311357759,-38.2406133631834,-45.35));
#581=CARTESIAN_POINT('Ctrl Pts',(-25.1401891387919,-37.4373224876413,-46.35));
#582=CARTESIAN_POINT('Ctrl Pts',(-25.1401891387919,-37.4373224876413,-45.35));
#583=CARTESIAN_POINT('Ctrl Pts',(-25.557864878562,-37.2343242973192,-46.35));
#584=CARTESIAN_POINT('Ctrl Pts',(-25.557864878562,-37.2343242973192,-45.35));
#585=CARTESIAN_POINT('',(-25.557864878562,-37.2343242973192,-45.35));
#586=CARTESIAN_POINT('',(-25.557864878562,-37.2343242973192,-46.35));
#587=CARTESIAN_POINT('',(-10.0000001490116,-42.0000006258488,-45.35));
#588=CARTESIAN_POINT('Ctrl Pts',(-10.0000001490116,-42.0000006258488,-45.35));
#589=CARTESIAN_POINT('Ctrl Pts',(-11.3969940305808,-41.7992607164802,-45.35));
#590=CARTESIAN_POINT('Ctrl Pts',(-14.1654179579235,-41.3086172671848,-45.35));
#591=CARTESIAN_POINT('Ctrl Pts',(-17.3275014067119,-40.5301481717063,-45.35));
#592=CARTESIAN_POINT('Ctrl Pts',(-20.4198438518024,-39.5084246008803,-45.35));
#593=CARTESIAN_POINT('Ctrl Pts',(-23.4408311357759,-38.2406133631834,-45.35));
#594=CARTESIAN_POINT('Ctrl Pts',(-25.1401891387919,-37.4373224876413,-45.35));
#595=CARTESIAN_POINT('Ctrl Pts',(-25.557864878562,-37.2343242973192,-45.35));
#596=CARTESIAN_POINT('',(-10.0000001490116,-42.0000006258488,-46.35));
#597=CARTESIAN_POINT('Origin',(-1.5159706122703,-31.7431397292351,-46.35));
#598=CARTESIAN_POINT('',(-4.5104977336832,-44.7129030251439,-45.35));
#599=CARTESIAN_POINT('Origin',(-1.5159706122703,-31.7431397292351,-45.35));
#600=CARTESIAN_POINT('',(-4.5104977336832,-44.7129030251439,-46.35));
#601=CARTESIAN_POINT('Ctrl Pts',(-25.557864878562,-37.2343242973192,-46.35));
#602=CARTESIAN_POINT('Ctrl Pts',(-25.557864878562,-37.2343242973192,-45.35));
#603=CARTESIAN_POINT('Ctrl Pts',(-26.4160242653567,-36.8172428488657,-46.35));
#604=CARTESIAN_POINT('Ctrl Pts',(-26.4160242653567,-36.8172428488657,-45.35));
#605=CARTESIAN_POINT('Ctrl Pts',(-28.5348804732768,-35.7288531068299,-46.35));
#606=CARTESIAN_POINT('Ctrl Pts',(-28.5348804732768,-35.7288531068299,-45.35));
#607=CARTESIAN_POINT('Ctrl Pts',(-31.8598368505705,-33.7861517124266,-46.35));
#608=CARTESIAN_POINT('Ctrl Pts',(-31.8598368505705,-33.7861517124266,-45.35));
#609=CARTESIAN_POINT('Ctrl Pts',(-36.292429433287,-30.6711234088732,-46.35));
#610=CARTESIAN_POINT('Ctrl Pts',(-36.292429433287,-30.6711234088732,-45.35));
#611=CARTESIAN_POINT('Ctrl Pts',(-41.0476375235157,-26.5120311023137,-46.35));
#612=CARTESIAN_POINT('Ctrl Pts',(-41.0476375235157,-26.5120311023137,-45.35));
#613=CARTESIAN_POINT('Ctrl Pts',(-44.8468862927336,-22.564829395353,-46.35));
#614=CARTESIAN_POINT('Ctrl Pts',(-44.8468862927336,-22.564829395353,-45.35));
#615=CARTESIAN_POINT('Ctrl Pts',(-47.4517500151867,-19.5706205769184,-46.35));
#616=CARTESIAN_POINT('Ctrl Pts',(-47.4517500151867,-19.5706205769184,-45.35));
#617=CARTESIAN_POINT('Ctrl Pts',(-48.9602725327226,-17.744843468626,-46.35));
#618=CARTESIAN_POINT('Ctrl Pts',(-48.9602725327226,-17.744843468626,-45.35));
#619=CARTESIAN_POINT('Ctrl Pts',(-49.4245815563175,-17.1742865820253,-46.35));
#620=CARTESIAN_POINT('Ctrl Pts',(-49.4245815563175,-17.1742865820253,-45.35));
#621=CARTESIAN_POINT('',(-49.4245815563176,-17.1742865820252,-46.35));
#622=CARTESIAN_POINT('Ctrl Pts',(-25.557864878562,-37.2343242973192,-45.35));
#623=CARTESIAN_POINT('Ctrl Pts',(-26.4160242653567,-36.8172428488657,-45.35));
#624=CARTESIAN_POINT('Ctrl Pts',(-28.5348804732768,-35.7288531068299,-45.35));
#625=CARTESIAN_POINT('Ctrl Pts',(-31.8598368505705,-33.7861517124266,-45.35));
#626=CARTESIAN_POINT('Ctrl Pts',(-36.292429433287,-30.6711234088732,-45.35));
#627=CARTESIAN_POINT('Ctrl Pts',(-41.0476375235157,-26.5120311023137,-45.35));
#628=CARTESIAN_POINT('Ctrl Pts',(-44.8468862927336,-22.5648293953529,-45.35));
#629=CARTESIAN_POINT('Ctrl Pts',(-47.4517500151867,-19.5706205769184,-45.35));
#630=CARTESIAN_POINT('Ctrl Pts',(-48.9602725327226,-17.744843468626,-45.35));
#631=CARTESIAN_POINT('Ctrl Pts',(-49.4245815563175,-17.1742865820253,-45.35));
#632=CARTESIAN_POINT('Ctrl Pts',(-84.0125283148545,-12.9096080792297,-46.35));
#633=CARTESIAN_POINT('Ctrl Pts',(-84.0125283148545,-12.9096080792297,-45.35));
#634=CARTESIAN_POINT('Ctrl Pts',(-83.3082586854197,-12.8288126152066,-46.35));
#635=CARTESIAN_POINT('Ctrl Pts',(-83.3082586854197,-12.8288126152066,-45.35));
#636=CARTESIAN_POINT('Ctrl Pts',(-81.897499186972,-12.7268924275555,-46.35));
#637=CARTESIAN_POINT('Ctrl Pts',(-81.897499186972,-12.7268924275555,-45.35));
#638=CARTESIAN_POINT('Ctrl Pts',(-79.7746995865858,-12.7530312466938,-46.35));
#639=CARTESIAN_POINT('Ctrl Pts',(-79.7746995865858,-12.7530312466938,-45.35));
#640=CARTESIAN_POINT('Ctrl Pts',(-76.9308794730125,-13.1484648383587,-46.35));
#641=CARTESIAN_POINT('Ctrl Pts',(-76.9308794730125,-13.1484648383587,-45.35));
#642=CARTESIAN_POINT('Ctrl Pts',(-73.3522810715225,-14.2484078718667,-46.35));
#643=CARTESIAN_POINT('Ctrl Pts',(-73.3522810715225,-14.2484078718667,-45.35));
#644=CARTESIAN_POINT('Ctrl Pts',(-69.746440391115,-15.9391372865024,-46.35));
#645=CARTESIAN_POINT('Ctrl Pts',(-69.746440391115,-15.9391372865024,-45.35));
#646=CARTESIAN_POINT('Ctrl Pts',(-66.1073875271528,-18.1701958091132,-46.35));
#647=CARTESIAN_POINT('Ctrl Pts',(-66.1073875271528,-18.1701958091132,-45.35));
#648=CARTESIAN_POINT('Ctrl Pts',(-62.4256653484148,-20.8283980734188,-46.35));
#649=CARTESIAN_POINT('Ctrl Pts',(-62.4256653484148,-20.8283980734188,-45.35));
#650=CARTESIAN_POINT('Ctrl Pts',(-58.6889653743031,-23.7465229643167,-46.35));
#651=CARTESIAN_POINT('Ctrl Pts',(-58.6889653743031,-23.7465229643167,-45.35));
#652=CARTESIAN_POINT('Ctrl Pts',(-54.8836976675887,-26.7321173923753,-46.35));
#653=CARTESIAN_POINT('Ctrl Pts',(-54.8836976675887,-26.7321173923753,-45.35));
#654=CARTESIAN_POINT('Ctrl Pts',(-50.9964446346649,-29.5887629171428,-46.35));
#655=CARTESIAN_POINT('Ctrl Pts',(-50.9964446346649,-29.5887629171428,-45.35));
#656=CARTESIAN_POINT('Ctrl Pts',(-47.0155781078662,-32.1387096776058,-46.35));
#657=CARTESIAN_POINT('Ctrl Pts',(-47.0155781078662,-32.1387096776058,-45.35));
#658=CARTESIAN_POINT('Ctrl Pts',(-42.9333661609671,-34.2479362922351,-46.35));
#659=CARTESIAN_POINT('Ctrl Pts',(-42.9333661609671,-34.2479362922351,-45.35));
#660=CARTESIAN_POINT('Ctrl Pts',(-38.7475553354531,-35.8449677758481,-46.35));
#661=CARTESIAN_POINT('Ctrl Pts',(-38.7475553354531,-35.8449677758481,-45.35));
#662=CARTESIAN_POINT('Ctrl Pts',(-34.4589239976023,-36.8987623679232,-46.35));
#663=CARTESIAN_POINT('Ctrl Pts',(-34.4589239976023,-36.8987623679232,-45.35));
#664=CARTESIAN_POINT('Ctrl Pts',(-30.9475657702677,-37.3032601331663,-46.35));
#665=CARTESIAN_POINT('Ctrl Pts',(-30.9475657702677,-37.3032601331663,-45.35));
#666=CARTESIAN_POINT('Ctrl Pts',(-28.2697981217238,-37.3628897157871,-46.35));
#667=CARTESIAN_POINT('Ctrl Pts',(-28.2697981217238,-37.3628897157871,-45.35));
#668=CARTESIAN_POINT('Ctrl Pts',(-26.4650965297385,-37.2951030655394,-46.35));
#669=CARTESIAN_POINT('Ctrl Pts',(-26.4650965297385,-37.2951030655394,-45.35));
#670=CARTESIAN_POINT('Ctrl Pts',(-25.557864878562,-37.2343242973192,-46.35));
#671=CARTESIAN_POINT('Ctrl Pts',(-25.557864878562,-37.2343242973192,-45.35));
#672=CARTESIAN_POINT('',(-47.6889053609281,-31.6196221297619,-46.35));
#673=CARTESIAN_POINT('',(-47.6889053609281,-31.6196221297619,-45.35));
#674=CARTESIAN_POINT('',(-47.6889053609281,-31.6196221297619,-46.35));
#675=CARTESIAN_POINT('',(-84.0125283148545,-12.9096080792297,-45.35));
#676=CARTESIAN_POINT('Ctrl Pts',(-84.0125283148545,-12.9096080792297,-45.35));
#677=CARTESIAN_POINT('Ctrl Pts',(-83.3082586854197,-12.8288126152066,-45.35));
#678=CARTESIAN_POINT('Ctrl Pts',(-81.897499186972,-12.7268924275555,-45.35));
#679=CARTESIAN_POINT('Ctrl Pts',(-79.7746995865858,-12.7530312466938,-45.35));
#680=CARTESIAN_POINT('Ctrl Pts',(-76.9308794730125,-13.1484648383587,-45.35));
#681=CARTESIAN_POINT('Ctrl Pts',(-73.3522810715225,-14.2484078718667,-45.35));
#682=CARTESIAN_POINT('Ctrl Pts',(-69.746440391115,-15.9391372865024,-45.35));
#683=CARTESIAN_POINT('Ctrl Pts',(-66.1073875271528,-18.1701958091132,-45.35));
#684=CARTESIAN_POINT('Ctrl Pts',(-62.4256653484148,-20.8283980734188,-45.35));
#685=CARTESIAN_POINT('Ctrl Pts',(-58.6889653743031,-23.7465229643167,-45.35));
#686=CARTESIAN_POINT('Ctrl Pts',(-55.0158505561666,-26.6284308824633,-45.35));
#687=CARTESIAN_POINT('Ctrl Pts',(-52.0437719412596,-28.8188229017032,-45.35));
#688=CARTESIAN_POINT('Ctrl Pts',(-49.8113103845537,-30.3183757513929,-45.35));
#689=CARTESIAN_POINT('Ctrl Pts',(-48.3524018819811,-31.2239400620134,-45.35));
#690=CARTESIAN_POINT('Ctrl Pts',(-47.6889053609281,-31.6196221297619,-45.35));
#691=CARTESIAN_POINT('',(-84.0125283148545,-12.9096080792297,-46.35));
#692=CARTESIAN_POINT('',(-84.0125283148545,-12.9096080792297,-46.35));
#693=CARTESIAN_POINT('Ctrl Pts',(-84.0125283148545,-12.9096080792297,-46.35));
#694=CARTESIAN_POINT('Ctrl Pts',(-83.3082586854197,-12.8288126152066,-46.35));
#695=CARTESIAN_POINT('Ctrl Pts',(-81.897499186972,-12.7268924275555,-46.35));
#696=CARTESIAN_POINT('Ctrl Pts',(-79.7746995865858,-12.7530312466938,-46.35));
#697=CARTESIAN_POINT('Ctrl Pts',(-76.9308794730125,-13.1484648383587,-46.35));
#698=CARTESIAN_POINT('Ctrl Pts',(-73.3522810715225,-14.2484078718667,-46.35));
#699=CARTESIAN_POINT('Ctrl Pts',(-69.746440391115,-15.9391372865024,-46.35));
#700=CARTESIAN_POINT('Ctrl Pts',(-66.1073875271528,-18.1701958091132,-46.35));
#701=CARTESIAN_POINT('Ctrl Pts',(-62.4256653484148,-20.8283980734188,-46.35));
#702=CARTESIAN_POINT('Ctrl Pts',(-58.6889653743031,-23.7465229643167,-46.35));
#703=CARTESIAN_POINT('Ctrl Pts',(-55.0158505561666,-26.6284308824633,-46.35));
#704=CARTESIAN_POINT('Ctrl Pts',(-52.0437719412596,-28.8188229017032,-46.35));
#705=CARTESIAN_POINT('Ctrl Pts',(-49.8113103845537,-30.3183757513929,-46.35));
#706=CARTESIAN_POINT('Ctrl Pts',(-48.3524018819811,-31.2239400620134,-46.35));
#707=CARTESIAN_POINT('Ctrl Pts',(-47.6889053609281,-31.6196221297619,-46.35));
#708=CARTESIAN_POINT('Origin',(-54.7851965967082,-24.5087624274647,-45.35));
#709=CARTESIAN_POINT('Ctrl Pts',(-49.4245815662255,-17.1742865808036,-45.35));
#710=CARTESIAN_POINT('Ctrl Pts',(-49.5856079181374,-17.1544321029944,-45.35));
#711=CARTESIAN_POINT('Ctrl Pts',(-50.149605148541,-17.0683388173945,-45.35));
#712=CARTESIAN_POINT('Ctrl Pts',(-50.7443427348957,-16.9221952429652,-45.35));
#713=CARTESIAN_POINT('Ctrl Pts',(-51.3683378042575,-16.7192342963053,-45.35));
#714=CARTESIAN_POINT('Ctrl Pts',(-52.0194939269584,-16.4639896677992,-45.35));
#715=CARTESIAN_POINT('Ctrl Pts',(-52.4945536353452,-16.2582873249489,-45.35));
#716=CARTESIAN_POINT('Ctrl Pts',(-52.494553635347,-16.2582873249484,-45.35));
#717=CARTESIAN_POINT('Ctrl Pts',(-52.8121349288603,-16.1658383987477,-45.35));
#718=CARTESIAN_POINT('Ctrl Pts',(-54.047608100878,-15.808602272337,-45.35));
#719=CARTESIAN_POINT('Ctrl Pts',(-56.1693695912672,-15.2116643563256,-45.35));
#720=CARTESIAN_POINT('Ctrl Pts',(-59.1130376965058,-14.4261278005395,-45.35));
#721=CARTESIAN_POINT('Ctrl Pts',(-62.7736675216287,-13.5352928967825,-45.35));
#722=CARTESIAN_POINT('Ctrl Pts',(-66.7367092517721,-12.7085775950909,-45.35));
#723=CARTESIAN_POINT('Ctrl Pts',(-70.4184429431663,-12.105151303485,-45.35));
#724=CARTESIAN_POINT('Ctrl Pts',(-73.7888355113864,-11.7488528632413,-45.35));
#725=CARTESIAN_POINT('Ctrl Pts',(-76.8290487652103,-11.6546351391422,-45.35));
#726=CARTESIAN_POINT('Ctrl Pts',(-79.5465111040538,-11.8166018192261,-45.35));
#727=CARTESIAN_POINT('Ctrl Pts',(-81.4765366506546,-12.1398066249486,-45.35));
#728=CARTESIAN_POINT('Ctrl Pts',(-82.7942052579403,-12.4852794535946,-45.35));
#729=CARTESIAN_POINT('Ctrl Pts',(-83.6158823953568,-12.7606549017736,-45.35));
#730=CARTESIAN_POINT('Ctrl Pts',(-84.0125283148545,-12.9096080792297,-45.35));
#731=CARTESIAN_POINT('Origin',(-5.64496846010221,29.2883968163792,-45.35));
#732=CARTESIAN_POINT('Origin',(4.00000005960464,-30.0000004470348,-46.35));
#733=CARTESIAN_POINT('',(9.00000005960464,-30.0000004470348,-47.35));
#734=CARTESIAN_POINT('Origin',(4.00000005960464,-30.0000004470348,-47.35));
#735=CARTESIAN_POINT('',(9.00000005960464,-30.0000004470348,-46.35));
#736=CARTESIAN_POINT('Ctrl Pts',(-83.3493824451512,-1.59467422065644,-45.35));
#737=CARTESIAN_POINT('Ctrl Pts',(-83.3493824451512,-1.59467422065644,-47.35));
#738=CARTESIAN_POINT('Ctrl Pts',(-83.0602893273601,-1.44268965939266,-45.35));
#739=CARTESIAN_POINT('Ctrl Pts',(-83.0602893273601,-1.44268965939266,-47.35));
#740=CARTESIAN_POINT('Ctrl Pts',(-82.4160624084414,-1.12878484425914,-45.35));
#741=CARTESIAN_POINT('Ctrl Pts',(-82.4160624084414,-1.12878484425914,-47.35));
#742=CARTESIAN_POINT('Ctrl Pts',(-81.3813398889698,-0.706813733372728,-45.35));
#743=CARTESIAN_POINT('Ctrl Pts',(-81.3813398889698,-0.706813733372728,-47.35));
#744=CARTESIAN_POINT('Ctrl Pts',(-79.8959204367987,-0.268459444468,-45.35));
#745=CARTESIAN_POINT('Ctrl Pts',(-79.8959204367987,-0.268459444468,-47.35));
#746=CARTESIAN_POINT('Ctrl Pts',(-77.8678175970999,0.0461880166759792,-45.35));
#747=CARTESIAN_POINT('Ctrl Pts',(-77.8678175970999,0.0461880166759792,-47.35));
#748=CARTESIAN_POINT('Ctrl Pts',(-75.5950250684169,0.0986991541648575,-45.35));
#749=CARTESIAN_POINT('Ctrl Pts',(-75.5950250684169,0.0986991541648575,-47.35));
#750=CARTESIAN_POINT('Ctrl Pts',(-73.135926913124,-0.132522311780146,-45.35));
#751=CARTESIAN_POINT('Ctrl Pts',(-73.135926913124,-0.132522311780146,-47.35));
#752=CARTESIAN_POINT('Ctrl Pts',(-70.4970832842831,-0.637485650654253,-45.35));
#753=CARTESIAN_POINT('Ctrl Pts',(-70.4970832842831,-0.637485650654253,-47.35));
#754=CARTESIAN_POINT('Ctrl Pts',(-67.6940014895679,-1.39257413729964,-45.35));
#755=CARTESIAN_POINT('Ctrl Pts',(-67.6940014895679,-1.39257413729964,-47.35));
#756=CARTESIAN_POINT('Ctrl Pts',(-64.743504662872,-2.37216711996734,-45.35));
#757=CARTESIAN_POINT('Ctrl Pts',(-64.743504662872,-2.37216711996734,-47.35));
#758=CARTESIAN_POINT('Ctrl Pts',(-62.2766920290411,-3.31790560732723,-45.35));
#759=CARTESIAN_POINT('Ctrl Pts',(-62.2766920290411,-3.31790560732723,-47.35));
#760=CARTESIAN_POINT('Ctrl Pts',(-60.3708690326018,-4.11205791604953,-45.35));
#761=CARTESIAN_POINT('Ctrl Pts',(-60.3708690326018,-4.11205791604953,-47.35));
#762=CARTESIAN_POINT('Ctrl Pts',(-59.0759647497218,-4.67858497514587,-45.35));
#763=CARTESIAN_POINT('Ctrl Pts',(-59.0759647497218,-4.67858497514587,-47.35));
#764=CARTESIAN_POINT('Ctrl Pts',(-58.4224233980386,-4.9711220167533,-45.35));
#765=CARTESIAN_POINT('Ctrl Pts',(-58.4224233980386,-4.9711220167533,-47.35));
#766=CARTESIAN_POINT('',(-58.4224233980386,-4.9711220167533,-47.35));
#767=CARTESIAN_POINT('',(-58.4224233980386,-4.9711220167533,-46.35));
#768=CARTESIAN_POINT('',(-83.3493824451512,-1.59467422065646,-47.35));
#769=CARTESIAN_POINT('Ctrl Pts',(-83.3493824451512,-1.59467422065644,-47.35));
#770=CARTESIAN_POINT('Ctrl Pts',(-83.0602893273601,-1.44268965939266,-47.35));
#771=CARTESIAN_POINT('Ctrl Pts',(-82.4160624084414,-1.12878484425914,-47.35));
#772=CARTESIAN_POINT('Ctrl Pts',(-81.3813398889698,-0.706813733372728,-47.35));
#773=CARTESIAN_POINT('Ctrl Pts',(-79.8959204367987,-0.268459444468,-47.35));
#774=CARTESIAN_POINT('Ctrl Pts',(-77.8678175970999,0.0461880166759792,-47.35));
#775=CARTESIAN_POINT('Ctrl Pts',(-75.5950250684169,0.0986991541648575,-47.35));
#776=CARTESIAN_POINT('Ctrl Pts',(-73.135926913124,-0.132522311780146,-47.35));
#777=CARTESIAN_POINT('Ctrl Pts',(-70.4970832842831,-0.637485650654253,-47.35));
#778=CARTESIAN_POINT('Ctrl Pts',(-67.6940014895679,-1.39257413729964,-47.35));
#779=CARTESIAN_POINT('Ctrl Pts',(-64.743504662872,-2.37216711996734,-47.35));
#780=CARTESIAN_POINT('Ctrl Pts',(-62.2766920290411,-3.31790560732723,-47.35));
#781=CARTESIAN_POINT('Ctrl Pts',(-60.3708690326018,-4.11205791604953,-47.35));
#782=CARTESIAN_POINT('Ctrl Pts',(-59.0759647497218,-4.67858497514587,-47.35));
#783=CARTESIAN_POINT('Ctrl Pts',(-58.4224233980386,-4.9711220167533,-47.35));
#784=CARTESIAN_POINT('',(-83.3493824451512,-1.59467422065646,-46.35));
#785=CARTESIAN_POINT('Ctrl Pts',(-52.4945536353452,-16.2582873249489,-45.35));
#786=CARTESIAN_POINT('Ctrl Pts',(-52.4945536353452,-16.2582873249489,-47.35));
#787=CARTESIAN_POINT('Ctrl Pts',(-52.5855937107881,-16.2188666869086,-45.35));
#788=CARTESIAN_POINT('Ctrl Pts',(-52.5855937107881,-16.2188666869086,-47.35));
#789=CARTESIAN_POINT('Ctrl Pts',(-53.2461372418046,-15.9278235361898,-45.35));
#790=CARTESIAN_POINT('Ctrl Pts',(-53.2461372418046,-15.9278235361898,-47.35));
#791=CARTESIAN_POINT('Ctrl Pts',(-54.520867718706,-15.2999755818928,-45.35));
#792=CARTESIAN_POINT('Ctrl Pts',(-54.520867718706,-15.2999755818928,-47.35));
#793=CARTESIAN_POINT('Ctrl Pts',(-56.4968797842639,-14.1722026327511,-45.35));
#794=CARTESIAN_POINT('Ctrl Pts',(-56.4968797842639,-14.1722026327511,-47.35));
#795=CARTESIAN_POINT('Ctrl Pts',(-59.2652287472077,-12.3862418777173,-45.35));
#796=CARTESIAN_POINT('Ctrl Pts',(-59.2652287472077,-12.3862418777173,-47.35));
#797=CARTESIAN_POINT('Ctrl Pts',(-62.7360952284038,-10.0184553880692,-45.35));
#798=CARTESIAN_POINT('Ctrl Pts',(-62.7360952284038,-10.0184553880692,-47.35));
#799=CARTESIAN_POINT('Ctrl Pts',(-66.2426245610041,-7.6621539904491,-45.35));
#800=CARTESIAN_POINT('Ctrl Pts',(-66.2426245610041,-7.6621539904491,-47.35));
#801=CARTESIAN_POINT('Ctrl Pts',(-69.6878027425564,-5.52521119162389,-45.35));
#802=CARTESIAN_POINT('Ctrl Pts',(-69.6878027425564,-5.52521119162389,-47.35));
#803=CARTESIAN_POINT('Ctrl Pts',(-72.9981563249066,-3.76383872567401,-45.35));
#804=CARTESIAN_POINT('Ctrl Pts',(-72.9981563249066,-3.76383872567401,-47.35));
#805=CARTESIAN_POINT('Ctrl Pts',(-76.1318583566357,-2.464762600486,-45.35));
#806=CARTESIAN_POINT('Ctrl Pts',(-76.1318583566357,-2.464762600486,-47.35));
#807=CARTESIAN_POINT('Ctrl Pts',(-78.8465340189511,-1.72894559541678,-45.35));
#808=CARTESIAN_POINT('Ctrl Pts',(-78.8465340189511,-1.72894559541678,-47.35));
#809=CARTESIAN_POINT('Ctrl Pts',(-80.8403671332646,-1.48924015886566,-45.35));
#810=CARTESIAN_POINT('Ctrl Pts',(-80.8403671332646,-1.48924015886566,-47.35));
#811=CARTESIAN_POINT('Ctrl Pts',(-82.2140779608628,-1.49102105940975,-45.35));
#812=CARTESIAN_POINT('Ctrl Pts',(-82.2140779608628,-1.49102105940975,-47.35));
#813=CARTESIAN_POINT('Ctrl Pts',(-83.0374171420205,-1.55884651679364,-45.35));
#814=CARTESIAN_POINT('Ctrl Pts',(-83.0374171420205,-1.55884651679364,-47.35));
#815=CARTESIAN_POINT('Ctrl Pts',(-83.3493824451512,-1.59467422065646,-45.35));
#816=CARTESIAN_POINT('Ctrl Pts',(-83.3493824451512,-1.59467422065646,-47.35));
#817=CARTESIAN_POINT('',(-52.4945536353452,-16.2582873249489,-47.35));
#818=CARTESIAN_POINT('Ctrl Pts',(-52.4945536353452,-16.2582873249489,-47.35));
#819=CARTESIAN_POINT('Ctrl Pts',(-52.5855937107881,-16.2188666869086,-47.35));
#820=CARTESIAN_POINT('Ctrl Pts',(-53.2461372418046,-15.9278235361898,-47.35));
#821=CARTESIAN_POINT('Ctrl Pts',(-54.520867718706,-15.2999755818928,-47.35));
#822=CARTESIAN_POINT('Ctrl Pts',(-56.4968797842639,-14.1722026327511,-47.35));
#823=CARTESIAN_POINT('Ctrl Pts',(-59.2652287472077,-12.3862418777173,-47.35));
#824=CARTESIAN_POINT('Ctrl Pts',(-62.7360952284038,-10.0184553880692,-47.35));
#825=CARTESIAN_POINT('Ctrl Pts',(-66.2426245610041,-7.6621539904491,-47.35));
#826=CARTESIAN_POINT('Ctrl Pts',(-69.6878027425564,-5.52521119162389,-47.35));
#827=CARTESIAN_POINT('Ctrl Pts',(-72.9981563249066,-3.76383872567401,-47.35));
#828=CARTESIAN_POINT('Ctrl Pts',(-76.1318583566357,-2.464762600486,-47.35));
#829=CARTESIAN_POINT('Ctrl Pts',(-78.8465340189511,-1.72894559541678,-47.35));
#830=CARTESIAN_POINT('Ctrl Pts',(-80.8403671332645,-1.48924015886566,-47.35));
#831=CARTESIAN_POINT('Ctrl Pts',(-82.2140779608628,-1.49102105940975,-47.35));
#832=CARTESIAN_POINT('Ctrl Pts',(-83.0374171420205,-1.55884651679364,-47.35));
#833=CARTESIAN_POINT('Ctrl Pts',(-83.3493824451512,-1.59467422065646,-47.35));
#834=CARTESIAN_POINT('',(-52.4945536353452,-16.2582873249489,-46.35));
#835=CARTESIAN_POINT('Ctrl Pts',(-49.4245815563176,-17.1742865820252,-45.35));
#836=CARTESIAN_POINT('Ctrl Pts',(-49.4245815563176,-17.1742865820252,-47.35));
#837=CARTESIAN_POINT('Ctrl Pts',(-50.0474253441219,-16.9840625178538,-45.35));
#838=CARTESIAN_POINT('Ctrl Pts',(-50.0474253441219,-16.9840625178538,-47.35));
#839=CARTESIAN_POINT('Ctrl Pts',(-50.6658523240771,-16.7973443067576,-45.35));
#840=CARTESIAN_POINT('Ctrl Pts',(-50.6658523240771,-16.7973443067576,-47.35));
#841=CARTESIAN_POINT('Ctrl Pts',(-51.2798625809709,-16.614131881436,-45.35));
#842=CARTESIAN_POINT('Ctrl Pts',(-51.2798625809709,-16.614131881436,-47.35));
#843=CARTESIAN_POINT('Ctrl Pts',(-51.8894404004038,-16.4344377152359,-45.35));
#844=CARTESIAN_POINT('Ctrl Pts',(-51.8894404004038,-16.4344377152359,-47.35));
#845=CARTESIAN_POINT('Ctrl Pts',(-52.4945536353452,-16.2582873249489,-45.35));
#846=CARTESIAN_POINT('Ctrl Pts',(-52.4945536353452,-16.2582873249489,-47.35));
#847=CARTESIAN_POINT('',(-49.4245815563176,-17.1742865820252,-47.35));
#848=CARTESIAN_POINT('Ctrl Pts',(-49.4245815563176,-17.1742865820252,-47.35));
#849=CARTESIAN_POINT('Ctrl Pts',(-50.0474253441219,-16.9840625178538,-47.35));
#850=CARTESIAN_POINT('Ctrl Pts',(-50.6658523240771,-16.7973443067576,-47.35));
#851=CARTESIAN_POINT('Ctrl Pts',(-51.2798625809709,-16.614131881436,-47.35));
#852=CARTESIAN_POINT('Ctrl Pts',(-51.8894404004038,-16.4344377152359,-47.35));
#853=CARTESIAN_POINT('Ctrl Pts',(-52.4945536353452,-16.2582873249489,-47.35));
#854=CARTESIAN_POINT('',(-49.4245815563176,-17.1742865820252,-46.35));
#855=CARTESIAN_POINT('Ctrl Pts',(-52.4945536353452,-16.2582873249489,-45.35));
#856=CARTESIAN_POINT('Ctrl Pts',(-52.4945536353452,-16.2582873249489,-47.35));
#857=CARTESIAN_POINT('Ctrl Pts',(-52.0194939269584,-16.4639896677992,-45.35));
#858=CARTESIAN_POINT('Ctrl Pts',(-52.0194939269584,-16.4639896677992,-47.35));
#859=CARTESIAN_POINT('Ctrl Pts',(-51.3683378042575,-16.7192342963053,-45.35));
#860=CARTESIAN_POINT('Ctrl Pts',(-51.3683378042575,-16.7192342963053,-47.35));
#861=CARTESIAN_POINT('Ctrl Pts',(-50.7443427348957,-16.9221952429652,-45.35));
#862=CARTESIAN_POINT('Ctrl Pts',(-50.7443427348957,-16.9221952429652,-47.35));
#863=CARTESIAN_POINT('Ctrl Pts',(-50.149605148541,-17.0683388173945,-45.35));
#864=CARTESIAN_POINT('Ctrl Pts',(-50.149605148541,-17.0683388173945,-47.35));
#865=CARTESIAN_POINT('Ctrl Pts',(-49.5856079181374,-17.1544321029944,-45.35));
#866=CARTESIAN_POINT('Ctrl Pts',(-49.5856079181374,-17.1544321029944,-47.35));
#867=CARTESIAN_POINT('Ctrl Pts',(-49.4245815662255,-17.1742865808036,-45.35));
#868=CARTESIAN_POINT('Ctrl Pts',(-49.4245815662255,-17.1742865808036,-47.35));
#869=CARTESIAN_POINT('Ctrl Pts',(-52.4945536353452,-16.2582873249489,-47.35));
#870=CARTESIAN_POINT('Ctrl Pts',(-52.0194939269584,-16.4639896677992,-47.35));
#871=CARTESIAN_POINT('Ctrl Pts',(-51.3683378042575,-16.7192342963053,-47.35));
#872=CARTESIAN_POINT('Ctrl Pts',(-50.7443427348957,-16.9221952429652,-47.35));
#873=CARTESIAN_POINT('Ctrl Pts',(-50.149605148541,-17.0683388173945,-47.35));
#874=CARTESIAN_POINT('Ctrl Pts',(-49.5856079181374,-17.1544321029944,-47.35));
#875=CARTESIAN_POINT('Ctrl Pts',(-49.4245815662255,-17.1742865808036,-47.35));
#876=CARTESIAN_POINT('',(-52.4945536353452,-16.2582873249489,-46.35));
#877=CARTESIAN_POINT('Ctrl Pts',(-84.0125283148545,-12.9096080792297,-45.35));
#878=CARTESIAN_POINT('Ctrl Pts',(-84.0125283148545,-12.9096080792297,-47.35));
#879=CARTESIAN_POINT('Ctrl Pts',(-83.6158823953568,-12.7606549017736,-45.35));
#880=CARTESIAN_POINT('Ctrl Pts',(-83.6158823953568,-12.7606549017736,-47.35));
#881=CARTESIAN_POINT('Ctrl Pts',(-82.7942052579403,-12.4852794535946,-45.35));
#882=CARTESIAN_POINT('Ctrl Pts',(-82.7942052579403,-12.4852794535946,-47.35));
#883=CARTESIAN_POINT('Ctrl Pts',(-81.4765366506546,-12.1398066249486,-45.35));
#884=CARTESIAN_POINT('Ctrl Pts',(-81.4765366506546,-12.1398066249486,-47.35));
#885=CARTESIAN_POINT('Ctrl Pts',(-79.5465111040538,-11.8166018192261,-45.35));
#886=CARTESIAN_POINT('Ctrl Pts',(-79.5465111040538,-11.8166018192261,-47.35));
#887=CARTESIAN_POINT('Ctrl Pts',(-76.8290487652103,-11.6546351391422,-45.35));
#888=CARTESIAN_POINT('Ctrl Pts',(-76.8290487652103,-11.6546351391422,-47.35));
#889=CARTESIAN_POINT('Ctrl Pts',(-73.7888355113864,-11.7488528632413,-45.35));
#890=CARTESIAN_POINT('Ctrl Pts',(-73.7888355113864,-11.7488528632413,-47.35));
#891=CARTESIAN_POINT('Ctrl Pts',(-70.4184429431663,-12.105151303485,-45.35));
#892=CARTESIAN_POINT('Ctrl Pts',(-70.4184429431663,-12.105151303485,-47.35));
#893=CARTESIAN_POINT('Ctrl Pts',(-66.7367092517721,-12.7085775950909,-45.35));
#894=CARTESIAN_POINT('Ctrl Pts',(-66.7367092517721,-12.7085775950909,-47.35));
#895=CARTESIAN_POINT('Ctrl Pts',(-62.7736675216287,-13.5352928967825,-45.35));
#896=CARTESIAN_POINT('Ctrl Pts',(-62.7736675216287,-13.5352928967825,-47.35));
#897=CARTESIAN_POINT('Ctrl Pts',(-59.1130376965058,-14.4261278005395,-45.35));
#898=CARTESIAN_POINT('Ctrl Pts',(-59.1130376965058,-14.4261278005395,-47.35));
#899=CARTESIAN_POINT('Ctrl Pts',(-56.1693695912672,-15.2116643563256,-45.35));
#900=CARTESIAN_POINT('Ctrl Pts',(-56.1693695912672,-15.2116643563256,-47.35));
#901=CARTESIAN_POINT('Ctrl Pts',(-54.047608100878,-15.808602272337,-45.35));
#902=CARTESIAN_POINT('Ctrl Pts',(-54.047608100878,-15.808602272337,-47.35));
#903=CARTESIAN_POINT('Ctrl Pts',(-52.8121349288603,-16.1658383987477,-45.35));
#904=CARTESIAN_POINT('Ctrl Pts',(-52.8121349288603,-16.1658383987477,-47.35));
#905=CARTESIAN_POINT('Ctrl Pts',(-52.494553635347,-16.2582873249484,-45.35));
#906=CARTESIAN_POINT('Ctrl Pts',(-52.494553635347,-16.2582873249484,-47.35));
#907=CARTESIAN_POINT('',(-84.0125283148545,-12.9096080792297,-47.35));
#908=CARTESIAN_POINT('Ctrl Pts',(-84.0125283148545,-12.9096080792297,-47.35));
#909=CARTESIAN_POINT('Ctrl Pts',(-83.6158823953568,-12.7606549017736,-47.35));
#910=CARTESIAN_POINT('Ctrl Pts',(-82.7942052579403,-12.4852794535946,-47.35));
#911=CARTESIAN_POINT('Ctrl Pts',(-81.4765366506546,-12.1398066249486,-47.35));
#912=CARTESIAN_POINT('Ctrl Pts',(-79.5465111040538,-11.8166018192261,-47.35));
#913=CARTESIAN_POINT('Ctrl Pts',(-76.8290487652103,-11.6546351391422,-47.35));
#914=CARTESIAN_POINT('Ctrl Pts',(-73.7888355113864,-11.7488528632413,-47.35));
#915=CARTESIAN_POINT('Ctrl Pts',(-70.4184429431663,-12.105151303485,-47.35));
#916=CARTESIAN_POINT('Ctrl Pts',(-66.7367092517721,-12.7085775950909,-47.35));
#917=CARTESIAN_POINT('Ctrl Pts',(-62.7736675216287,-13.5352928967825,-47.35));
#918=CARTESIAN_POINT('Ctrl Pts',(-59.1130376965058,-14.4261278005395,-47.35));
#919=CARTESIAN_POINT('Ctrl Pts',(-56.1693695912672,-15.2116643563256,-47.35));
#920=CARTESIAN_POINT('Ctrl Pts',(-54.047608100878,-15.808602272337,-47.35));
#921=CARTESIAN_POINT('Ctrl Pts',(-52.8121349288603,-16.1658383987477,-47.35));
#922=CARTESIAN_POINT('Ctrl Pts',(-52.494553635347,-16.2582873249484,-47.35));
#923=CARTESIAN_POINT('',(-84.0125283148545,-12.9096080792297,-46.35));
#924=CARTESIAN_POINT('Ctrl Pts',(-47.6889053609281,-31.6196221297619,-46.35));
#925=CARTESIAN_POINT('Ctrl Pts',(-47.6889053609281,-31.6196221297619,-47.35));
#926=CARTESIAN_POINT('Ctrl Pts',(-48.3524018819811,-31.2239400620134,-46.35));
#927=CARTESIAN_POINT('Ctrl Pts',(-48.3524018819811,-31.2239400620134,-47.35));
#928=CARTESIAN_POINT('Ctrl Pts',(-49.8113103845537,-30.3183757513929,-46.35));
#929=CARTESIAN_POINT('Ctrl Pts',(-49.8113103845537,-30.3183757513929,-47.35));
#930=CARTESIAN_POINT('Ctrl Pts',(-52.0437719412596,-28.8188229017032,-46.35));
#931=CARTESIAN_POINT('Ctrl Pts',(-52.0437719412596,-28.8188229017032,-47.35));
#932=CARTESIAN_POINT('Ctrl Pts',(-55.0158505561666,-26.6284308824633,-46.35));
#933=CARTESIAN_POINT('Ctrl Pts',(-55.0158505561666,-26.6284308824633,-47.35));
#934=CARTESIAN_POINT('Ctrl Pts',(-58.6889653743031,-23.7465229643167,-46.35));
#935=CARTESIAN_POINT('Ctrl Pts',(-58.6889653743031,-23.7465229643167,-47.35));
#936=CARTESIAN_POINT('Ctrl Pts',(-62.4256653484148,-20.8283980734188,-46.35));
#937=CARTESIAN_POINT('Ctrl Pts',(-62.4256653484148,-20.8283980734188,-47.35));
#938=CARTESIAN_POINT('Ctrl Pts',(-66.1073875271528,-18.1701958091132,-46.35));
#939=CARTESIAN_POINT('Ctrl Pts',(-66.1073875271528,-18.1701958091132,-47.35));
#940=CARTESIAN_POINT('Ctrl Pts',(-69.746440391115,-15.9391372865024,-46.35));
#941=CARTESIAN_POINT('Ctrl Pts',(-69.746440391115,-15.9391372865024,-47.35));
#942=CARTESIAN_POINT('Ctrl Pts',(-73.3522810715225,-14.2484078718667,-46.35));
#943=CARTESIAN_POINT('Ctrl Pts',(-73.3522810715225,-14.2484078718667,-47.35));
#944=CARTESIAN_POINT('Ctrl Pts',(-76.9308794730125,-13.1484648383587,-46.35));
#945=CARTESIAN_POINT('Ctrl Pts',(-76.9308794730125,-13.1484648383587,-47.35));
#946=CARTESIAN_POINT('Ctrl Pts',(-79.7746995865858,-12.7530312466938,-46.35));
#947=CARTESIAN_POINT('Ctrl Pts',(-79.7746995865858,-12.7530312466938,-47.35));
#948=CARTESIAN_POINT('Ctrl Pts',(-81.897499186972,-12.7268924275555,-46.35));
#949=CARTESIAN_POINT('Ctrl Pts',(-81.897499186972,-12.7268924275555,-47.35));
#950=CARTESIAN_POINT('Ctrl Pts',(-83.3082586854197,-12.8288126152066,-46.35));
#951=CARTESIAN_POINT('Ctrl Pts',(-83.3082586854197,-12.8288126152066,-47.35));
#952=CARTESIAN_POINT('Ctrl Pts',(-84.0125283148545,-12.9096080792297,-46.35));
#953=CARTESIAN_POINT('Ctrl Pts',(-84.0125283148545,-12.9096080792297,-47.35));
#954=CARTESIAN_POINT('',(-47.6889053609281,-31.6196221297619,-47.35));
#955=CARTESIAN_POINT('Ctrl Pts',(-47.6889053609281,-31.6196221297619,-47.35));
#956=CARTESIAN_POINT('Ctrl Pts',(-48.3524018819811,-31.2239400620134,-47.35));
#957=CARTESIAN_POINT('Ctrl Pts',(-49.8113103845537,-30.3183757513929,-47.35));
#958=CARTESIAN_POINT('Ctrl Pts',(-52.0437719412596,-28.8188229017032,-47.35));
#959=CARTESIAN_POINT('Ctrl Pts',(-55.0158505561666,-26.6284308824633,-47.35));
#960=CARTESIAN_POINT('Ctrl Pts',(-58.6889653743031,-23.7465229643167,-47.35));
#961=CARTESIAN_POINT('Ctrl Pts',(-62.4256653484148,-20.8283980734188,-47.35));
#962=CARTESIAN_POINT('Ctrl Pts',(-66.1073875271528,-18.1701958091132,-47.35));
#963=CARTESIAN_POINT('Ctrl Pts',(-69.746440391115,-15.9391372865024,-47.35));
#964=CARTESIAN_POINT('Ctrl Pts',(-73.3522810715225,-14.2484078718667,-47.35));
#965=CARTESIAN_POINT('Ctrl Pts',(-76.9308794730125,-13.1484648383587,-47.35));
#966=CARTESIAN_POINT('Ctrl Pts',(-79.7746995865858,-12.7530312466938,-47.35));
#967=CARTESIAN_POINT('Ctrl Pts',(-81.897499186972,-12.7268924275555,-47.35));
#968=CARTESIAN_POINT('Ctrl Pts',(-83.3082586854197,-12.8288126152066,-47.35));
#969=CARTESIAN_POINT('Ctrl Pts',(-84.0125283148545,-12.9096080792297,-47.35));
#970=CARTESIAN_POINT('',(-47.6889053609281,-31.6196221297619,-46.35));
#971=CARTESIAN_POINT('Origin',(-5.64496846010221,29.2883968163792,-46.35));
#972=CARTESIAN_POINT('',(-4.5104977336832,-44.7129030251439,-47.35));
#973=CARTESIAN_POINT('Origin',(-5.64496846010221,29.2883968163792,-47.35));
#974=CARTESIAN_POINT('',(-4.5104977336832,-44.7129030251439,-46.35));
#975=CARTESIAN_POINT('Origin',(-1.5159706122703,-31.7431397292351,-46.35));
#976=CARTESIAN_POINT('',(4.8382559489818,-20.0467403926417,-47.35));
#977=CARTESIAN_POINT('Origin',(-1.5159706122703,-31.7431397292351,-47.35));
#978=CARTESIAN_POINT('',(4.8382559489818,-20.0467403926417,-46.35));
#979=CARTESIAN_POINT('Ctrl Pts',(-82.4417871150557,22.9547947666717,-46.35));
#980=CARTESIAN_POINT('Ctrl Pts',(-82.4417871150557,22.9547947666717,-47.35));
#981=CARTESIAN_POINT('Ctrl Pts',(-81.9193409117665,23.025213032683,-46.35));
#982=CARTESIAN_POINT('Ctrl Pts',(-81.9193409117665,23.025213032683,-47.35));
#983=CARTESIAN_POINT('Ctrl Pts',(-80.8140993805652,23.0536469995364,-46.35));
#984=CARTESIAN_POINT('Ctrl Pts',(-80.8140993805652,23.0536469995364,-47.35));
#985=CARTESIAN_POINT('Ctrl Pts',(-78.9752005716411,22.7591209006398,-46.35));
#986=CARTESIAN_POINT('Ctrl Pts',(-78.9752005716411,22.7591209006398,-47.35));
#987=CARTESIAN_POINT('Ctrl Pts',(-76.1585355538831,21.6868948860701,-46.35));
#988=CARTESIAN_POINT('Ctrl Pts',(-76.1585355538831,21.6868948860701,-47.35));
#989=CARTESIAN_POINT('Ctrl Pts',(-72.0240381219582,19.2199093803312,-46.35));
#990=CARTESIAN_POINT('Ctrl Pts',(-72.0240381219582,19.2199093803312,-47.35));
#991=CARTESIAN_POINT('Ctrl Pts',(-67.2851854167832,15.6913773594448,-46.35));
#992=CARTESIAN_POINT('Ctrl Pts',(-67.2851854167832,15.6913773594448,-47.35));
#993=CARTESIAN_POINT('Ctrl Pts',(-61.9869899731613,11.2852005746779,-46.35));
#994=CARTESIAN_POINT('Ctrl Pts',(-61.9869899731613,11.2852005746779,-47.35));
#995=CARTESIAN_POINT('Ctrl Pts',(-56.2028809580916,6.27977593422455,-46.35));
#996=CARTESIAN_POINT('Ctrl Pts',(-56.2028809580916,6.27977593422455,-47.35));
#997=CARTESIAN_POINT('Ctrl Pts',(-50.0210467201976,1.00318834922005,-46.35));
#998=CARTESIAN_POINT('Ctrl Pts',(-50.0210467201976,1.00318834922005,-47.35));
#999=CARTESIAN_POINT('Ctrl Pts',(-43.535233503975,-4.20001378643243,-46.35));
#1000=CARTESIAN_POINT('Ctrl Pts',(-43.535233503975,-4.20001378643243,-47.35));
#1001=CARTESIAN_POINT('Ctrl Pts',(-36.8351412347091,-9.00638214798933,-46.35));
#1002=CARTESIAN_POINT('Ctrl Pts',(-36.8351412347091,-9.00638214798933,-47.35));
#1003=CARTESIAN_POINT('Ctrl Pts',(-29.9987707851091,-13.1457884733613,-46.35));
#1004=CARTESIAN_POINT('Ctrl Pts',(-29.9987707851091,-13.1457884733613,-47.35));
#1005=CARTESIAN_POINT('Ctrl Pts',(-23.0828544585302,-16.4477785980911,-46.35));
#1006=CARTESIAN_POINT('Ctrl Pts',(-23.0828544585302,-16.4477785980911,-47.35));
#1007=CARTESIAN_POINT('Ctrl Pts',(-16.1243374019029,-18.8278069525708,-46.35));
#1008=CARTESIAN_POINT('Ctrl Pts',(-16.1243374019029,-18.8278069525708,-47.35));
#1009=CARTESIAN_POINT('Ctrl Pts',(-9.14541091690115,-20.2555602699167,-46.35));
#1010=CARTESIAN_POINT('Ctrl Pts',(-9.14541091690115,-20.2555602699167,-47.35));
#1011=CARTESIAN_POINT('Ctrl Pts',(-3.55475588853421,-20.6382477382615,-46.35));
#1012=CARTESIAN_POINT('Ctrl Pts',(-3.55475588853421,-20.6382477382615,-47.35));
#1013=CARTESIAN_POINT('Ctrl Pts',(0.640770133953104,-20.5048116797222,-46.35));
#1014=CARTESIAN_POINT('Ctrl Pts',(0.640770133953104,-20.5048116797222,-47.35));
#1015=CARTESIAN_POINT('Ctrl Pts',(3.43890741070911,-20.2303489022084,-46.35));
#1016=CARTESIAN_POINT('Ctrl Pts',(3.43890741070911,-20.2303489022084,-47.35));
#1017=CARTESIAN_POINT('Ctrl Pts',(4.8382559489818,-20.0467403926417,-46.35));
#1018=CARTESIAN_POINT('Ctrl Pts',(4.8382559489818,-20.0467403926417,-47.35));
#1019=CARTESIAN_POINT('',(-82.4417871150557,22.9547947666717,-47.35));
#1020=CARTESIAN_POINT('Ctrl Pts',(-82.4417871150557,22.9547947666717,-47.35));
#1021=CARTESIAN_POINT('Ctrl Pts',(-81.9193409117665,23.025213032683,-47.35));
#1022=CARTESIAN_POINT('Ctrl Pts',(-80.8140993805652,23.0536469995364,-47.35));
#1023=CARTESIAN_POINT('Ctrl Pts',(-78.9752005716411,22.7591209006398,-47.35));
#1024=CARTESIAN_POINT('Ctrl Pts',(-76.1585355538831,21.6868948860701,-47.35));
#1025=CARTESIAN_POINT('Ctrl Pts',(-72.0240381219582,19.2199093803312,-47.35));
#1026=CARTESIAN_POINT('Ctrl Pts',(-67.2851854167832,15.6913773594448,-47.35));
#1027=CARTESIAN_POINT('Ctrl Pts',(-61.9869899731613,11.2852005746779,-47.35));
#1028=CARTESIAN_POINT('Ctrl Pts',(-56.2028809580916,6.27977593422455,-47.35));
#1029=CARTESIAN_POINT('Ctrl Pts',(-50.0210467201976,1.00318834922005,-47.35));
#1030=CARTESIAN_POINT('Ctrl Pts',(-43.535233503975,-4.20001378643243,-47.35));
#1031=CARTESIAN_POINT('Ctrl Pts',(-36.8351412347091,-9.00638214798933,-47.35));
#1032=CARTESIAN_POINT('Ctrl Pts',(-29.9987707851091,-13.1457884733613,-47.35));
#1033=CARTESIAN_POINT('Ctrl Pts',(-23.0828544585302,-16.4477785980911,-47.35));
#1034=CARTESIAN_POINT('Ctrl Pts',(-16.1243374019029,-18.8278069525708,-47.35));
#1035=CARTESIAN_POINT('Ctrl Pts',(-9.14541091690115,-20.2555602699167,-47.35));
#1036=CARTESIAN_POINT('Ctrl Pts',(-3.55475588853421,-20.6382477382615,-47.35));
#1037=CARTESIAN_POINT('Ctrl Pts',(0.640770133953104,-20.5048116797222,-47.35));
#1038=CARTESIAN_POINT('Ctrl Pts',(3.43890741070911,-20.2303489022084,-47.35));
#1039=CARTESIAN_POINT('Ctrl Pts',(4.8382559489818,-20.0467403926417,-47.35));
#1040=CARTESIAN_POINT('',(-82.4417871150557,22.9547947666717,-46.35));
#1041=CARTESIAN_POINT('Ctrl Pts',(-58.4224233980392,-4.97112201675244,-46.35));
#1042=CARTESIAN_POINT('Ctrl Pts',(-58.4224233980392,-4.97112201675244,-47.35));
#1043=CARTESIAN_POINT('Ctrl Pts',(-59.0729914240373,-4.02148088659649,-46.35));
#1044=CARTESIAN_POINT('Ctrl Pts',(-59.0729914240373,-4.02148088659649,-47.35));
#1045=CARTESIAN_POINT('Ctrl Pts',(-60.6235808233152,-1.73762805397275,-46.35));
#1046=CARTESIAN_POINT('Ctrl Pts',(-60.6235808233152,-1.73762805397275,-47.35));
#1047=CARTESIAN_POINT('Ctrl Pts',(-63.0100610394173,1.8371966886686,-46.35));
#1048=CARTESIAN_POINT('Ctrl Pts',(-63.0100610394173,1.8371966886686,-47.35));
#1049=CARTESIAN_POINT('Ctrl Pts',(-66.1224333990833,6.53054402990105,-46.35));
#1050=CARTESIAN_POINT('Ctrl Pts',(-66.1224333990833,6.53054402990105,-47.35));
#1051=CARTESIAN_POINT('Ctrl Pts',(-69.8068798863787,11.8715223801316,-46.35));
#1052=CARTESIAN_POINT('Ctrl Pts',(-69.8068798863787,11.8715223801316,-47.35));
#1053=CARTESIAN_POINT('Ctrl Pts',(-73.4180165322288,16.5477340208362,-46.35));
#1054=CARTESIAN_POINT('Ctrl Pts',(-73.4180165322288,16.5477340208362,-47.35));
#1055=CARTESIAN_POINT('Ctrl Pts',(-76.7336108599848,20.038711069432,-46.35));
#1056=CARTESIAN_POINT('Ctrl Pts',(-76.7336108599848,20.038711069432,-47.35));
#1057=CARTESIAN_POINT('Ctrl Pts',(-79.15654318157,21.8311031620272,-46.35));
#1058=CARTESIAN_POINT('Ctrl Pts',(-79.15654318157,21.8311031620272,-47.35));
#1059=CARTESIAN_POINT('Ctrl Pts',(-80.8477884438623,22.6108363953659,-46.35));
#1060=CARTESIAN_POINT('Ctrl Pts',(-80.8477884438623,22.6108363953659,-47.35));
#1061=CARTESIAN_POINT('Ctrl Pts',(-81.919716013399,22.8816474336059,-46.35));
#1062=CARTESIAN_POINT('Ctrl Pts',(-81.919716013399,22.8816474336059,-47.35));
#1063=CARTESIAN_POINT('Ctrl Pts',(-82.4417871150557,22.9547947666717,-46.35));
#1064=CARTESIAN_POINT('Ctrl Pts',(-82.4417871150557,22.9547947666717,-47.35));
#1065=CARTESIAN_POINT('Ctrl Pts',(-58.4224233980392,-4.97112201675244,-47.35));
#1066=CARTESIAN_POINT('Ctrl Pts',(-59.0729914240373,-4.02148088659649,-47.35));
#1067=CARTESIAN_POINT('Ctrl Pts',(-60.6235808233152,-1.73762805397275,-47.35));
#1068=CARTESIAN_POINT('Ctrl Pts',(-63.0100610394173,1.8371966886686,-47.35));
#1069=CARTESIAN_POINT('Ctrl Pts',(-66.1224333990833,6.53054402990105,-47.35));
#1070=CARTESIAN_POINT('Ctrl Pts',(-69.8068798863787,11.8715223801316,-47.35));
#1071=CARTESIAN_POINT('Ctrl Pts',(-73.4180165322288,16.5477340208362,-47.35));
#1072=CARTESIAN_POINT('Ctrl Pts',(-76.7336108599848,20.038711069432,-47.35));
#1073=CARTESIAN_POINT('Ctrl Pts',(-79.15654318157,21.8311031620272,-47.35));
#1074=CARTESIAN_POINT('Ctrl Pts',(-80.8477884438623,22.6108363953659,-47.35));
#1075=CARTESIAN_POINT('Ctrl Pts',(-81.919716013399,22.8816474336059,-47.35));
#1076=CARTESIAN_POINT('Ctrl Pts',(-82.4417871150557,22.9547947666717,-47.35));
#1077=CARTESIAN_POINT('Origin',(-36.1087638946354,-11.0002319337763,-47.35));
#1078=UNCERTAINTY_MEASURE_WITH_UNIT(LENGTH_MEASURE(0.01),#1082,
'DISTANCE_ACCURACY_VALUE',
'Maximum model space distance between geometric entities at asserted c
onnectivities');
#1079=UNCERTAINTY_MEASURE_WITH_UNIT(LENGTH_MEASURE(0.01),#1082,
'DISTANCE_ACCURACY_VALUE',
'Maximum model space distance between geometric entities at asserted c
onnectivities');
#1080=(
GEOMETRIC_REPRESENTATION_CONTEXT(3)
GLOBAL_UNCERTAINTY_ASSIGNED_CONTEXT((#1078))
GLOBAL_UNIT_ASSIGNED_CONTEXT((#1082,#1084,#1085))
REPRESENTATION_CONTEXT('','3D')
);
#1081=(
GEOMETRIC_REPRESENTATION_CONTEXT(3)
GLOBAL_UNCERTAINTY_ASSIGNED_CONTEXT((#1079))
GLOBAL_UNIT_ASSIGNED_CONTEXT((#1082,#1084,#1085))
REPRESENTATION_CONTEXT('','3D')
);
#1082=(
LENGTH_UNIT()
NAMED_UNIT(*)
SI_UNIT(.MILLI.,.METRE.)
);
#1083=(
LENGTH_UNIT()
NAMED_UNIT(*)
SI_UNIT($,.METRE.)
);
#1084=(
NAMED_UNIT(*)
PLANE_ANGLE_UNIT()
SI_UNIT($,.RADIAN.)
);
#1085=(
NAMED_UNIT(*)
SI_UNIT($,.STERADIAN.)
SOLID_ANGLE_UNIT()
);
#1086=SHAPE_DEFINITION_REPRESENTATION(#1087,#1088);
#1087=PRODUCT_DEFINITION_SHAPE('',$,#1090);
#1088=SHAPE_REPRESENTATION('',(#360),#1080);
#1089=PRODUCT_DEFINITION_CONTEXT('part definition',#1094,'design');
#1090=PRODUCT_DEFINITION('rightwing','rightwing',#1091,#1089);
#1091=PRODUCT_DEFINITION_FORMATION('',$,#1096);
#1092=PRODUCT_RELATED_PRODUCT_CATEGORY('rightwing','rightwing',(#1096));
#1093=APPLICATION_PROTOCOL_DEFINITION('international standard',
'automotive_design',2009,#1094);
#1094=APPLICATION_CONTEXT(
'Core Data for Automotive Mechanical Design Process');
#1095=PRODUCT_CONTEXT('part definition',#1094,'mechanical');
#1096=PRODUCT('rightwing','rightwing',$,(#1095));
#1097=PRESENTATION_STYLE_ASSIGNMENT((#1098));
#1098=SURFACE_STYLE_USAGE(.BOTH.,#1099);
#1099=SURFACE_SIDE_STYLE('',(#1100));
#1100=SURFACE_STYLE_FILL_AREA(#1101);
#1101=FILL_AREA_STYLE('Steel - Satin',(#1102));
#1102=FILL_AREA_STYLE_COLOUR('Steel - Satin',#1103);
#1103=COLOUR_RGB('Steel - Satin',0.627450980392157,0.627450980392157,0.627450980392157);
ENDSEC;
END-ISO-10303-21;
